<?xml version="1.0" encoding="utf-8"?>
<!-- Generator: Adobe Illustrator 16.0.0, SVG Export Plug-In . SVG Version: 6.00 Build 0)  -->
<!DOCTYPE svg PUBLIC "-//W3C//DTD SVG 1.1//EN" "http://www.w3.org/Graphics/SVG/1.1/DTD/svg11.dtd">
<svg version="1.1" id="Layer_1" xmlns="http://www.w3.org/2000/svg" xmlns:xlink="http://www.w3.org/1999/xlink" x="0px" y="0px"
	 width="150px" height="150px" viewBox="0 0 150 150" enable-background="new 0 0 150 150" xml:space="preserve">
<linearGradient id="SVGID_1_" gradientUnits="userSpaceOnUse" x1="182.8311" y1="-121.8301" x2="279.1716" y2="-218.1706" gradientTransform="matrix(1 0 0 -1 -156 -95)">
	<stop  offset="0" style="stop-color:#6DD9CF"/>
	<stop  offset="1" style="stop-color:#7790D9"/>
</linearGradient>
<path fill="url(#SVGID_1_)" d="M75.002,143.123c-3.042,0-6.114-0.203-9.134-0.606c-0.868-0.115-1.592-0.722-1.866-1.554
	l-4.438-13.578c-3.696-1.086-7.278-2.573-10.683-4.43l-12.746,6.461c-0.777,0.399-1.716,0.313-2.412-0.22
	c-4.863-3.709-9.21-8.055-12.92-12.918c-0.529-0.698-0.616-1.637-0.22-2.414l6.462-12.745c-1.855-3.398-3.344-6.984-4.432-10.681
	l-13.578-4.44c-0.834-0.273-1.435-0.996-1.55-1.863c-0.406-3.021-0.61-6.094-0.61-9.135c0-3.04,0.204-6.112,0.61-9.132
	c0.117-0.87,0.718-1.593,1.55-1.866l13.578-4.44c1.088-3.697,2.578-7.279,4.432-10.68l-6.462-12.746
	c-0.396-0.78-0.31-1.716,0.22-2.412c3.712-4.868,8.061-9.212,12.92-12.92c0.698-0.528,1.635-0.614,2.414-0.22l12.744,6.46
	c3.404-1.856,6.986-3.342,10.683-4.43l4.438-13.578c0.272-0.834,0.998-1.435,1.866-1.55c6.038-0.809,12.226-0.813,18.265,0
	c0.871,0.117,1.594,0.718,1.865,1.55l4.443,13.578c3.695,1.088,7.276,2.575,10.676,4.43l12.746-6.46
	c0.781-0.395,1.719-0.309,2.414,0.22c4.863,3.708,9.209,8.057,12.918,12.92c0.531,0.696,0.619,1.632,0.221,2.412l-6.459,12.746
	c1.855,3.4,3.34,6.98,4.43,10.68l13.574,4.44c0.836,0.271,1.439,0.996,1.555,1.866c0.404,3.02,0.609,6.092,0.609,9.132
	c0,3.042-0.205,6.115-0.609,9.135c-0.117,0.867-0.719,1.59-1.555,1.863l-13.574,4.44c-1.086,3.691-2.57,7.273-4.43,10.681
	l6.459,12.745c0.396,0.777,0.311,1.716-0.221,2.414c-3.707,4.863-8.051,9.209-12.914,12.918c-0.695,0.533-1.635,0.621-2.414,0.22
	l-12.75-6.461c-3.398,1.854-6.98,3.344-10.676,4.43l-4.443,13.578c-0.271,0.832-0.994,1.438-1.865,1.554
	C81.113,142.92,78.043,143.123,75.002,143.123z M67.888,138.17c4.723,0.522,9.506,0.522,14.225,0l4.371-13.354
	c0.238-0.73,0.828-1.295,1.574-1.496c4.137-1.113,8.127-2.773,11.867-4.92c0.668-0.383,1.484-0.408,2.17-0.062l12.541,6.358
	c3.715-2.969,7.09-6.348,10.059-10.063l-6.355-12.538c-0.352-0.688-0.328-1.5,0.057-2.168c2.154-3.742,3.812-7.734,4.927-11.871
	c0.2-0.742,0.76-1.336,1.493-1.572l13.353-4.368c0.265-2.365,0.397-4.75,0.397-7.116c0-2.364-0.135-4.75-0.397-7.114l-13.353-4.368
	c-0.733-0.239-1.293-0.83-1.493-1.571c-1.119-4.143-2.775-8.137-4.927-11.874c-0.385-0.666-0.408-1.482-0.057-2.168l6.355-12.538
	c-2.969-3.716-6.346-7.09-10.063-10.061l-12.536,6.355c-0.688,0.344-1.502,0.326-2.17-0.059c-3.738-2.153-7.73-3.81-11.867-4.926
	c-0.746-0.2-1.336-0.76-1.574-1.492L82.113,11.83c-4.719-0.526-9.502-0.526-14.225,0L63.52,25.186
	c-0.239,0.732-0.831,1.292-1.573,1.492c-4.137,1.116-8.13,2.772-11.874,4.926c-0.666,0.387-1.482,0.404-2.168,0.059l-12.536-6.356
	c-3.716,2.966-7.09,6.343-10.063,10.061l6.358,12.538c0.346,0.686,0.324,1.502-0.061,2.168c-2.151,3.737-3.81,7.731-4.926,11.872
	c-0.2,0.741-0.76,1.334-1.492,1.573L11.83,67.886c-0.262,2.362-0.396,4.75-0.396,7.114c0,2.366,0.135,4.75,0.396,7.116l13.355,4.368
	c0.732,0.236,1.292,0.83,1.492,1.572c1.116,4.137,2.774,8.131,4.926,11.871c0.385,0.664,0.406,1.48,0.061,2.168l-6.358,12.539
	c2.969,3.716,6.345,7.095,10.061,10.063l12.538-6.359c0.684-0.348,1.502-0.322,2.168,0.055c3.742,2.156,7.737,3.813,11.874,4.926
	c0.742,0.201,1.334,0.767,1.573,1.496L67.888,138.17z M75,115.437c-22.294,0-40.434-18.138-40.434-40.435
	c0-22.294,18.138-40.434,40.434-40.434c22.297,0,40.434,18.138,40.434,40.434C115.434,97.299,97.297,115.437,75,115.437z M75,39.127
	c-19.78,0-35.874,16.092-35.874,35.874c0,19.782,16.094,35.875,35.874,35.875c19.781,0,35.875-16.094,35.875-35.875
	C110.875,55.222,94.781,39.127,75,39.127z M75,43.018c-17.636,0-31.982,14.347-31.982,31.982c0,17.635,14.347,31.986,31.982,31.986
	c17.637,0,31.984-14.352,31.984-31.986C106.984,57.363,92.637,43.018,75,43.018z M62.192,80.514c0,0.746-0.269,1.389-0.792,1.912
	c-0.528,0.521-1.168,0.787-1.906,0.787h-4.908v3.012h5.87c0.462,0,0.886,0.176,1.22,0.504c0.344,0.34,0.517,0.756,0.517,1.238
	c0,0.477-0.179,0.906-0.517,1.234c-0.338,0.327-0.758,0.5-1.22,0.5h-8.868c-0.264,0-0.479-0.214-0.479-0.478v-6.807
	c0-0.736,0.264-1.377,0.788-1.906c0.518-0.527,1.155-0.795,1.892-0.795h4.908v-2.979h-5.914c-0.488,0-0.918-0.182-1.244-0.518
	c-0.324-0.327-0.496-0.751-0.496-1.223c0-0.468,0.172-0.895,0.498-1.224c0.324-0.337,0.754-0.515,1.242-0.515h6.71
	c0.738,0,1.376,0.265,1.906,0.786c0.525,0.524,0.792,1.162,0.792,1.892v4.576h0.001V80.514z M73.872,84.313
	c-0.126,0.133-0.269,0.238-0.428,0.32v3.328c0,0.477-0.179,0.906-0.521,1.238c-0.336,0.327-0.754,0.5-1.216,0.5
	c-0.476,0-0.902-0.181-1.236-0.515c-0.328-0.322-0.502-0.752-0.502-1.225v-3.117h-5.184c-0.264,0-0.48-0.215-0.48-0.477v-9.375
	c0-0.475,0.177-0.893,0.521-1.238c0.334-0.336,0.773-0.52,1.238-0.52c0.464,0,0.899,0.184,1.233,0.52
	c0.334,0.34,0.508,0.768,0.508,1.236v6.352h2.164v-4.709c0-0.469,0.172-0.896,0.5-1.229c0.326-0.336,0.765-0.526,1.238-0.526
	c0.472,0,0.914,0.19,1.24,0.53c0.326,0.334,0.498,0.758,0.498,1.229v4.898c0.155,0.077,0.3,0.188,0.432,0.317
	c0.332,0.328,0.508,0.756,0.508,1.23C74.384,83.561,74.208,83.987,73.872,84.313z M74.86,69.49c-0.469,0-0.908-0.183-1.234-0.513
	l-6.792-6.79c-0.33-0.33-0.512-0.768-0.512-1.233c0-0.464,0.182-0.906,0.512-1.234c0.33-0.328,0.766-0.51,1.234-0.51
	c0.464,0,0.903,0.182,1.233,0.51l5.557,5.562l10.606-10.606c0.328-0.33,0.767-0.512,1.234-0.512c0.459,0,0.899,0.182,1.231,0.512
	c0.687,0.68,0.687,1.79,0,2.47L76.09,68.979C75.768,69.308,75.33,69.49,74.86,69.49z M86.16,76.1l-7.625,12.938
	c-0.271,0.442-0.719,0.684-1.262,0.684c-0.428,0-0.824-0.141-1.181-0.414c-0.401-0.324-0.624-0.772-0.624-1.283
	c0-0.362,0.112-0.739,0.328-1.127l7.645-12.94c0.276-0.444,0.744-0.696,1.289-0.696c0.397,0,0.809,0.146,1.145,0.402
	c0.41,0.306,0.635,0.756,0.635,1.264C86.512,75.317,86.396,75.714,86.16,76.1z M98.342,81.213l-3.184,2.721v4.01
	c0,0.459-0.17,0.886-0.498,1.226c-0.336,0.35-0.764,0.533-1.242,0.533c-0.473,0-0.898-0.181-1.238-0.517
	c-0.34-0.328-0.52-0.754-0.52-1.223v-4.746c0-0.586,0.211-1.082,0.604-1.426l3.201-2.705v-2.334h-4.359
	c-0.315,0.518-0.838,0.809-1.473,0.809c-0.471,0-0.885-0.172-1.223-0.508c-0.342-0.348-0.516-0.758-0.516-1.232v-0.805
	c0-0.472,0.174-0.888,0.512-1.229c0.342-0.34,0.756-0.51,1.227-0.51h8.85c0.263,0,0.476,0.216,0.476,0.479v6.09
	C98.957,80.381,98.746,80.856,98.342,81.213z"/>
</svg>
