<?xml version="1.0" encoding="utf-8"?>
<!-- Generator: Adobe Illustrator 23.0.2, SVG Export Plug-In . SVG Version: 6.00 Build 0)  -->
<svg version="1.1" id="Layer_1" xmlns="http://www.w3.org/2000/svg" xmlns:xlink="http://www.w3.org/1999/xlink" x="0px" y="0px"
	 viewBox="0 0 402.89 420.81" style="enable-background:new 0 0 402.89 420.81;" xml:space="preserve">
	 <style xmlns="http://www.w3.org/2000/svg" type="text/css">


.support_bg {
    animation-name: sypportBg;
    animation-duration: 8s;
    animation-iteration-count: infinite;
    transform-origin: 50.3% 36.7%;
    animation-timing-function: linear;
}

@keyframes sypportBg {
	0% {transform: rotate(0deg);}
	100% {transform: rotate(360deg);}
}


	 </style>




<style type="text/css">
	.st0{fill:#E9DB00;}
	.st1{fill:#076D4D;}
</style>




<polygon class="st0 support_bg" points="158.24,172.36 80.58,195.79 78.46,107.75 156,129.87 "/>
<polygon class="st0 support_bg" points="245.99,131.27 323.6,107.66 325.92,195.7 248.32,173.76 "/>
<polygon class="st0 support_bg" points="222.84,195.48 244.82,273.56 156.75,274.04 180.32,196.92 "/>
<polygon class="st0 support_bg" points="181.11,106.61 159.42,28.45 247.49,28.29 223.65,105.32 "/>
<path class="st1" d="M79.82,268.44c-4.31-4.19-10.2-6.34-16.19-5.91c-6,0.43-11.52,3.39-15.2,8.14l-6.57,8.52V192.9
	c-0.12-11.45-9.49-20.63-20.93-20.54C9.49,172.27,0.12,181.45,0,192.9v99.26c-0.01,13.43,5.02,26.37,14.1,36.26l42.78,46.81v32.15
	c0,7.42,6.01,13.43,13.43,13.43h50.56c7.42,0,13.43-6.01,13.43-13.43v-63.29c-0.03-14.5-5.89-28.38-16.27-38.52L79.82,268.44z
	 M120.87,407.38H70.31v-34.76c0-1.68-0.63-3.29-1.76-4.53l-44.57-48.74c-6.8-7.42-10.57-17.13-10.55-27.19V192.9
	c0.12-4.04,3.47-7.21,7.5-7.11c4.04-0.1,7.39,3.08,7.5,7.11v89.86c0,1.81,0.72,3.55,2.02,4.82l7.02,6.79
	c0.07,0.08,0.15,0.15,0.22,0.22l38.99,37.91c2.67,2.54,6.88,2.46,9.44-0.18c2.57-2.64,2.54-6.85-0.07-9.44l-34.82-33.85l7.85-10.15
	c1.33-1.74,3.34-2.82,5.53-2.98c2.18-0.16,4.33,0.63,5.89,2.16l38.21,37.14c7.76,7.61,12.14,18.02,12.15,28.89V407.38z
	 M120.87,407.38"/>
<path class="st1" d="M396.68,178.31c-8.32-7.68-21.14-7.68-29.46,0c-3.97,3.82-6.2,9.09-6.2,14.59v86.29l-6.57-8.51
	c-3.67-4.76-9.2-7.73-15.19-8.16c-6-0.43-11.89,1.72-16.2,5.91l-38.2,37.14c-10.41,10.11-16.28,24.01-16.27,38.52v63.29
	c0,7.42,6.01,13.43,13.43,13.43h50.56c7.41,0,13.43-6.01,13.43-13.43v-32.15l42.78-46.82c9.07-9.9,14.1-22.84,14.1-36.26V192.9
	C402.89,187.4,400.65,182.13,396.68,178.31L396.68,178.31z M389.46,292.16c0,10.06-3.77,19.76-10.55,27.19l-44.57,48.74
	c-1.13,1.24-1.76,2.86-1.76,4.53v34.76h-50.56v-63.29c0-10.88,4.41-21.29,12.21-28.87l38.2-37.14c1.42-1.4,3.33-2.19,5.32-2.18h0.55
	c2.18,0.15,4.19,1.23,5.51,2.97l7.84,10.15l-34.81,33.85c-1.8,1.65-2.56,4.16-1.98,6.53s2.4,4.25,4.76,4.9
	c2.36,0.64,4.88-0.05,6.58-1.81l39.08-37.91l0.13-0.13l7.04-6.84c1.29-1.27,2.02-3,2.02-4.82V192.9c0-1.88,0.77-3.66,2.12-4.96
	c3.05-2.76,7.7-2.76,10.74,0c1.36,1.29,2.13,3.09,2.13,4.96V292.16z M389.46,292.16"/>


<path class="st1 support_bg" d="M254.05,266.37h37.23c13.42-0.01,24.29-10.89,24.3-24.31v-37.93l2.49,0.85c3.4,1.17,7.12-0.55,8.43-3.89
	c12.42-31.75,12.29-67.05-0.38-98.71c-1.32-3.33-5.02-5.04-8.41-3.89l-2.15,0.75V62.38c-0.01-13.42-10.89-24.29-24.3-24.31h-37.36
	l0.88-2.57c0.24-0.7,0.36-1.44,0.36-2.18v-0.05c0-2.76-1.68-5.23-4.25-6.25c-31.81-12.43-67.14-12.43-98.95,0
	c-2.57,1.04-4.24,3.52-4.24,6.29c0,0.74,0.13,1.48,0.36,2.18l0.87,2.57H111.6c-13.42,0.02-24.29,10.89-24.31,24.31v36.88l-2.15-0.75
	c-3.38-1.16-7.07,0.53-8.4,3.85c-12.66,31.66-12.8,66.95-0.37,98.71c1,2.57,3.46,4.27,6.22,4.29c0.74,0,1.47-0.12,2.17-0.36
	l2.53-0.84v37.92c0.01,13.42,10.89,24.29,24.3,24.31h37.23l-0.77,2.29c-1.16,3.38,0.54,7.08,3.87,8.41
	c31.8,12.61,67.22,12.61,99.03,0c3.33-1.32,5.02-5.02,3.87-8.41L254.05,266.37z M302.16,242.06c0,6-4.87,10.87-10.88,10.88h-32.17
	c17.84-10.21,32.68-24.93,43.05-42.68V242.06z M315.9,113.37c4.27,12.51,6.43,25.63,6.41,38.85c0.02,12.88-2.04,25.69-6.1,37.92
	l-4.7-1.58h-0.08l-61.84-20.92c3.41-10.34,3.41-21.5,0-31.83L315.9,113.37z M291.29,51.5c6,0.01,10.87,4.88,10.88,10.88v30.75
	c-10.01-17.15-24.21-31.47-41.27-41.63H291.29z M294.14,106.52l-50.61,17.14c-3.69-5.49-8.4-10.22-13.88-13.93l17.16-50.64
	C267.4,69.22,284.05,85.9,294.14,106.52L294.14,106.52z M234.67,168.56c-3.62,7-9.32,12.7-16.32,16.32
	c-10.64,5.31-23.16,5.31-33.8,0c-7-3.62-12.7-9.32-16.32-16.32c-5.41-10.62-5.41-23.18,0-33.8c3.51-6.75,8.96-12.29,15.66-15.91
	c0.18-0.07,0.38-0.05,0.54-0.14c10.72-5.33,23.32-5.32,34.03,0.02c0.16,0.08,0.35,0.05,0.51,0.12c6.71,3.61,12.17,9.15,15.69,15.91
	C240.08,145.38,240.08,157.94,234.67,168.56L234.67,168.56z M239.97,37.32l-3.18,9.4c-0.13,0.17-0.25,0.35-0.35,0.54
	c-0.11,0.37-0.18,0.75-0.21,1.13l-18.74,55.42c-10.43-3.4-21.66-3.4-32.09,0L166.7,48.56c-0.03-0.46-0.12-0.91-0.25-1.34
	c-0.12-0.21-0.26-0.42-0.41-0.62l-3.12-9.31C187.94,29.02,214.96,29.03,239.97,37.32L239.97,37.32z M156.11,59.08l17.13,50.64
	c-5.47,3.71-10.18,8.44-13.86,13.93l-50.6-17.14C118.87,85.9,135.52,69.22,156.11,59.08L156.11,59.08z M100.72,62.38
	c0.01-6.01,4.88-10.87,10.88-10.88h30.39c-17.06,10.16-31.26,24.48-41.27,41.63V62.38z M91.45,188.52h-0.07l-4.7,1.59
	c-8.23-24.95-8.13-51.91,0.31-76.79v0.03l66.31,22.43c-3.41,10.34-3.41,21.5,0,31.84L91.45,188.52z M111.6,252.94
	c-6-0.01-10.87-4.87-10.88-10.88v-31.81c10.36,17.75,25.21,32.47,43.05,42.68H111.6z M108.78,196.87l50.6-17.14
	c3.72,5.55,8.49,10.32,14.04,14.04l-17.13,50.62C135.62,234.26,118.9,217.54,108.78,196.87L108.78,196.87z M162.89,266.79
	l22.63-66.95c10.35,3.36,21.5,3.36,31.84,0L240,266.79C214.98,275.15,187.91,275.15,162.89,266.79L162.89,266.79z M246.61,244.41
	l-17.13-50.64c5.54-3.72,10.31-8.48,14.04-14.02l50.61,17.14C284.02,217.57,267.29,234.29,246.61,244.41L246.61,244.41z
	 M246.61,244.41"/>
</svg>
