<?xml version="1.0" encoding="utf-8"?>
<!-- Generator: Adobe Illustrator 23.0.2, SVG Export Plug-In . SVG Version: 6.00 Build 0)  -->
<svg version="1.1" id="Layer_1" xmlns="http://www.w3.org/2000/svg" xmlns:xlink="http://www.w3.org/1999/xlink" x="0px" y="0px"
	 viewBox="-49 141 512 512" style="enable-background:new -49 141 512 512;" xml:space="preserve">
	 <style xmlns="http://www.w3.org/2000/svg" type="text/css">


.backup_dots {
	animation-name: backupDots;
    animation-duration: 5s;
    animation-iteration-count: 1;
    transform-origin: 50% 50%;
}

@keyframes {
	0% {transform: translate(-10px, 30px);}
	50% {transform: translate(10px, -2px);}
	100% {transform: translate(-10px, 30px);}
}

.backup_dots_top {
	animation-name: backupDots-top;
    animation-duration: 5s;
    animation-iteration-count: 1;
    transform-origin: 50% 50%;
}

@keyframes {
	0% {transform: translate(30px, -10px);}
	50% {transform: translate(-2px, 10px);}
	100% {transform: translate(30px, -10px);}
}

.backup_bar {
	animation-name: backupBar;
    animation-duration: 6s;
    animation-iteration-count: infinite;
    fill: none;
    stroke: #076D4D;
    stroke-width: 8px;
    stroke-linecap: round;
    stroke-linejoin: round;
    stroke-dasharray: 350;
    stroke-dashoffset: 350;
}

@keyframes backupBar {
	0% {stroke-dashoffset: 350;}
	50% {stroke-dashoffset: 0;}
	100% {stroke-dashoffset: -350;}
}


	 </style>



<style type="text/css">
	.st0{fill:#E9DB00;}
	.st1{fill:#21BABD;}
	.st2{fill:#076D4D;}
</style>



<g>
	<path class="st0" d="M423,389H281.6h-93.19H159c-6.73,0-12.46,4.16-14.82,10.05c-0.74,1.84-1.18,3.84-1.18,5.95v48
		c0,1.25,0.18,2.45,0.44,3.61c0.07,0.32,0.2,0.62,0.29,0.93c0.26,0.85,0.55,1.68,0.94,2.46c0.14,0.28,0.29,0.54,0.44,0.81
		c0.46,0.82,0.99,1.59,1.58,2.31c0.14,0.17,0.26,0.34,0.41,0.5c0.77,0.86,1.62,1.66,2.55,2.33c2.64,1.9,5.85,3.06,9.34,3.06h264
		c8.84,0,16-7.16,16-16v-48C439,396.16,431.84,389,423,389z"/>
	<path class="st0" d="M423,469H281.6h-93.19H159c-6.73,0-12.46,4.16-14.82,10.05c-0.74,1.84-1.18,3.84-1.18,5.95v48
		c0,1.25,0.18,2.45,0.44,3.61c0.07,0.32,0.2,0.62,0.29,0.93c0.26,0.85,0.55,1.68,0.94,2.46c0.14,0.28,0.29,0.54,0.44,0.81
		c0.46,0.82,0.99,1.59,1.58,2.31c0.14,0.17,0.26,0.34,0.41,0.5c0.77,0.86,1.62,1.66,2.55,2.33c2.64,1.9,5.85,3.06,9.34,3.06h264
		c8.84,0,16-7.16,16-16v-48C439,476.16,431.84,469,423,469z"/>
	<path class="st0" d="M423,548.26H281.6h-93.19H159c-6.73,0-12.46,4.16-14.82,10.05c-0.74,1.84-1.18,3.84-1.18,5.95v48
		c0,1.25,0.18,2.45,0.44,3.61c0.07,0.32,0.2,0.62,0.29,0.93c0.26,0.85,0.55,1.68,0.94,2.46c0.14,0.28,0.29,0.54,0.44,0.81
		c0.46,0.82,0.99,1.59,1.58,2.31c0.14,0.17,0.26,0.34,0.41,0.5c0.77,0.86,1.62,1.66,2.55,2.33c2.64,1.9,5.85,3.06,9.34,3.06h264
		c8.84,0,16-7.16,16-16v-48C439,555.42,431.84,548.26,423,548.26z"/>
	<path class="st1" d="M147.91,473.5c0.69-0.66,1.42-1.27,2.21-1.8C149.33,472.22,148.6,472.84,147.91,473.5z M150.78,471.34
		c0.66-0.39,1.31-0.79,2.02-1.09C152.1,470.54,151.44,470.94,150.78,471.34z M154.35,469.77c0.48-0.14,0.94-0.34,1.43-0.44
		C155.3,469.42,154.83,469.62,154.35,469.77z"/>
	<g>
		<path class="st2" d="M423,381H293.16c6.41-18.02,9.84-36.77,9.84-56c0-92.63-75.36-168-168-168S-33,232.37-33,325
			s75.36,168,168,168v40c0,6.17,2.41,11.74,6.24,16c-3.84,4.26-6.24,9.83-6.24,16v48c0,13.23,10.77,24,24,24h264
			c13.23,0,24-10.77,24-24v-48c0-6.17-2.41-11.74-6.24-16c3.84-4.26,6.24-9.83,6.24-16v-48c0-6.17-2.41-11.74-6.24-16
			c3.84-4.26,6.24-9.83,6.24-16v-48C447,391.77,436.23,381,423,381z M431,405v48c0,4.42-3.59,8-8,8H159c-2.01,0-3.79-0.81-5.2-2.04
			c-0.22-0.19-0.45-0.38-0.65-0.59c-0.57-0.62-1.05-1.3-1.4-2.07c-0.08-0.17-0.13-0.34-0.19-0.51c-0.33-0.87-0.56-1.8-0.56-2.78v-48
			c0-4.42,3.59-8,8-8h29.41h93.19H423C427.41,397,431,400.58,431,405z M431,485v48c0,4.42-3.59,8-8,8H159c-4.41,0-8-3.58-8-8v-48
			c0-0.05,0.02-0.09,0.02-0.14c0.08-4.34,3.65-7.86,7.98-7.86h264C427.41,477,431,480.58,431,485z M135,177.67
			c8.66,11.2,25.08,34.5,37.9,64.75c-12.24,3.42-24.94,5.4-37.9,5.4s-25.66-1.98-37.9-5.4C109.92,212.17,126.34,188.87,135,177.67z
			 M81.8,237.2c-16.32-6.67-31.35-16.32-44.25-28.7c22.2-18.6,49.77-30.94,80.02-34.42C107.7,187.5,93.34,209.59,81.8,237.2z
			 M152.43,174.08c30.25,3.47,57.82,15.82,80.02,34.42c-12.9,12.38-27.93,22.03-44.25,28.7C176.66,209.59,162.3,187.5,152.43,174.08
			z M135,263.83c14.95,0,29.65-2.18,43.72-6.26c6.39,18.18,11.02,38.27,11.98,59.44H79.29c0.97-21.16,5.59-41.26,11.98-59.44
			C105.35,261.65,120.05,263.83,135,263.83z M190.69,333c-0.71,15.59-3.37,31.66-8.18,48H159c-7.95,0-14.96,3.93-19.34,9.9
			c-16.01-0.45-31.86,1.36-47.08,5.35C85.5,377.1,80.32,355.64,79.28,333H190.69L190.69,333z M135,407v46
			c0,1.38,0.15,2.73,0.38,4.07c0.03,0.2,0.05,0.41,0.09,0.61c0.08,0.39,0.22,0.75,0.32,1.14c0.18,0.7,0.37,1.39,0.6,2.06
			c0.14,0.39,0.25,0.78,0.4,1.17c0.14,0.33,0.3,0.63,0.45,0.95c0.22,0.48,0.48,0.95,0.74,1.42c0.3,0.54,0.57,1.09,0.9,1.6
			c0.14,0.22,0.27,0.43,0.42,0.64c-1.58,2.14-3.02,4.05-4.3,5.69c-8.3-10.73-23.7-32.61-36.26-61.03
			C110.53,408.4,122.69,407.01,135,407z M117.57,475.92c-29.94-3.44-57.29-15.54-79.38-33.83c13.42-11.28,28.61-20.07,44.92-26.03
			C94.4,442.18,108.07,463.02,117.57,475.92z M198.98,381c4.46-16.29,7.02-32.34,7.68-48h79.97c-0.86,16.48-4.22,32.59-10.35,48
			H198.98z M286.59,317h-79.94c-0.96-23.23-5.86-45.08-12.71-64.72c18.57-7.54,35.65-18.62,50.23-32.79
			C268.89,245.06,284.62,279.22,286.59,317z M25.82,219.5c14.58,14.16,31.66,25.25,50.23,32.79c-6.86,19.63-11.75,41.49-12.71,64.72
			h-79.94C-14.62,279.22,1.11,245.06,25.82,219.5z M-16.59,333h79.94c1.02,24.57,6.4,47.64,13.86,68.13
			c-18.51,6.82-35.76,16.93-50.87,29.95C1.32,405.46-14.6,371.06-16.59,333z M431,613c0,4.42-3.59,8-8,8H159c-4.41,0-8-3.58-8-8v-48
			c0-4.42,3.59-8,8-8h264c4.41,0,8,3.58,8,8V613z"/>


		<rect x="399" y="421" class="st2" width="16" height="16"/>
		<rect x="167" y="421" class="backup_bar" width="136" height="16"/>


		<rect x="399" y="501" class="st2" width="16" height="16"/>
		<rect x="167" y="501" class="backup_bar" width="136" height="16"/>


		<rect x="399" y="581" class="st2" width="16" height="16"/>
		<rect x="167" y="581" class="backup_bar" width="136" height="16"/>


		<rect x="303" y="253" class="st2 backup_dots_top" width="16" height="16"/>
		<rect x="335" y="253" class="st2 backup_dots_top" width="16" height="16"/>
		<rect x="367" y="253" class="st2 backup_dots_top" width="16" height="16"/>
		<rect x="399" y="253" class="st2 backup_dots_top" width="16" height="16"/>
		<rect x="399" y="285" class="st2 backup_dots_top" width="16" height="16"/>
		<rect x="399" y="317" class="st2 backup_dots_top" width="16" height="16"/>
		<rect x="399" y="349" class="st2 backup_dots_top" width="16" height="16"/>


		<rect x="103" y="581" class="st2 backup_dots" width="16" height="16"/>
		<rect x="71" y="581" class="st2 backup_dots" width="16" height="16"/>
		<rect x="39" y="581" class="st2 backup_dots" width="16" height="16"/>
		<rect x="39" y="549" class="st2 backup_dots" width="16" height="16"/>
		<rect x="39" y="517" class="st2 backup_dots" width="16" height="16"/>
		<rect x="39" y="485" class="st2 backup_dots" width="16" height="16"/>
	</g>
</g>
</svg>
