<?xml version="1.0" encoding="utf-8"?>
<!-- Generator: Adobe Illustrator 22.1.0, SVG Export Plug-In . SVG Version: 6.00 Build 0)  -->
<svg version="1.1" id="Layer_1" xmlns="http://www.w3.org/2000/svg" xmlns:xlink="http://www.w3.org/1999/xlink" x="0px" y="0px"
	 viewBox="0 0 409.6 409.7" style="enable-background:new 0 0 409.6 409.7;" xml:space="preserve">
	 <style xmlns="http://www.w3.org/2000/svg" type="text/css">


.cloud_technology {
    animation-name: cloudTechnology;
    animation-duration: 3.5s;
    animation-iteration-count: infinite;
    transform-origin: 50% 50%;
}

@keyframes cloudTechnology {
	0% {transform: translate(0, 0);}
	50% {transform: translate(0, 25px);}
}



	 </style>


<style type="text/css">
	.st0{fill:#E9DB00;}
	.st1{fill:#076D4D;}
</style>


<path class="st0" d="M158.4,323.6H84.5c-8.9,0-16.2-7.3-16.2-16.2V168.8c0-8.9,7.3-16.2,16.2-16.2h73.9c8.9,0,16.2,7.3,16.2,16.2
	v138.6C174.6,316.4,167.4,323.6,158.4,323.6z"/>
<path class="st0" d="M323.7,323.6h-73.9c-8.9,0-16.2-7.3-16.2-16.2V168.8c0-8.9,7.3-16.2,16.2-16.2h73.9c8.9,0,16.2,7.3,16.2,16.2
	v138.6C339.9,316.4,332.6,323.6,323.7,323.6z"/>
<path class="st1" d="M402.8,375.5h-20.5c-3.8,0-6.8,3.1-6.8,6.8s3.1,6.8,6.8,6.8h20.5c3.8,0,6.8-3,6.8-6.8
	C409.6,378.6,406.5,375.5,402.8,375.5L402.8,375.5z"/>
<path class="st1" d="M95.6,184.4h54.6c3.8,0,6.8-3.1,6.8-6.8s-3.1-6.8-6.8-6.8H95.6c-3.8,0-6.8,3.1-6.8,6.8C88.8,181.3,91.8,184.4,95.6,184.4
	L95.6,184.4z"/>
<path class="st1" d="M95.6,211.7h54.6c3.8,0,6.8-3.1,6.8-6.8s-3.1-6.8-6.8-6.8H95.6c-3.8,0-6.8,3.1-6.8,6.8C88.8,208.6,91.8,211.7,95.6,211.7
	L95.6,211.7z"/>
<path class="st1" d="M150.2,225.3H95.6c-3.8,0-6.8,3.1-6.8,6.8s3.1,6.8,6.8,6.8h54.6c3.8,0,6.8-3.1,6.8-6.8S154,225.3,150.2,225.3L150.2,225.3z"
	/>
<path class="st1" d="M122.9,252.6c-15.1,0-27.3,12.2-27.3,27.3s12.2,27.3,27.3,27.3s27.3-12.2,27.3-27.3S138,252.6,122.9,252.6L122.9,252.6z
	 M122.9,293.6c-7.5,0-13.7-6.1-13.7-13.6s6.1-13.7,13.7-13.7s13.7,6.1,13.7,13.7C136.5,287.5,130.4,293.6,122.9,293.6L122.9,293.6z"
	/>
<path class="st1" d="M314,170.7h-54.6c-3.8,0-6.8,3.1-6.8,6.8c0,3.8,3.1,6.8,6.8,6.8H314c3.8,0,6.8-3.1,6.8-6.8
	C320.9,173.8,317.8,170.7,314,170.7L314,170.7z"/>
<path class="st1" d="M314,198h-54.6c-3.8,0-6.8,3.1-6.8,6.8c0,3.8,3.1,6.8,6.8,6.8H314c3.8,0,6.8-3.1,6.8-6.8C320.9,201.1,317.8,198,314,198
	L314,198z"/>
<path class="st1" d="M314,225.3h-54.6c-3.8,0-6.8,3.1-6.8,6.8s3.1,6.8,6.8,6.8H314c3.8,0,6.8-3.1,6.8-6.8C320.9,228.4,317.8,225.3,314,225.3
	L314,225.3z"/>
<path class="st1" d="M286.7,252.6c-15.1,0-27.3,12.2-27.3,27.3s12.2,27.3,27.3,27.3S314,295,314,280S301.8,252.6,286.7,252.6L286.7,252.6z
	 M286.7,293.6c-7.5,0-13.6-6.1-13.6-13.6s6.1-13.7,13.6-13.7s13.6,6.1,13.6,13.7C300.4,287.5,294.3,293.6,286.7,293.6L286.7,293.6z"
	/>
<path class="st1 cloud_technology" d="M407.3,149.8c-10.4-46.3-53.2-78-100.5-74.3h-0.1c-18.8-50.2-69.4-81-122.6-74.6S89,49.3,82.7,102.5
	c-12.5,0.2-24.7,3.4-35.7,9.3c-28.9,13.8-47.2,42.9-47,74.9c0.8,27.4,15.2,51.9,37.2,66.3c4.6,3,10.6-0.3,10.6-5.7l0,0
	c0-2.3-1.2-4.5-3.1-5.7c-18.4-12-30.3-32.5-31-55.3c0-26.6,15.4-50.9,39.5-62.3c10.7-6.2,23-8.8,35.2-7.6c1.8,0.2,3.7-0.4,5.1-1.6
	s2.3-2.9,2.4-4.8c2.9-49.2,40.5-89.4,89.4-95.5c48.9-6.2,95.3,23.4,110.3,70.4c1,3.2,4.1,5.1,7.4,4.7c1.6-0.2,3.3-0.4,4.9-0.5
	c42.5-3.7,80.6,26.3,87.1,68.4c4.9,30-7.3,59.7-30.5,77.8c-1.7,1.3-2.6,3.3-2.6,5.4l0,0c0,5.7,6.6,8.9,11.1,5.4
	C401.3,223.8,415.6,186.6,407.3,149.8z"/>
<path class="st1" d="M355,375.5h-41.9c-2.5-9.5-10-17-19.5-19.5v-21.5h27.3c15.1,0,27.3-12.2,27.3-27.3V170.6
	c0-15.1-12.2-27.3-27.3-27.3h-68.3c-15.1,0-27.3,12.2-27.3,27.3v136.6c0,15.1,12.2,27.3,27.3,27.3h27.3V356
	c-9.6,2.5-17,10-19.5,19.5H149.2c-2.5-9.5-10-17-19.5-19.5v-21.5H157c15.1,0,27.3-12.2,27.3-27.3V170.6c0-15.1-12.2-27.3-27.3-27.3
	H88.8c-15.1,0-27.3,12.2-27.3,27.3v136.5c0,15.1,12.2,27.3,27.3,27.3h27.3V356c-9.5,2.5-17,10-19.5,19.5H6.8c-3.8,0-6.8,3-6.8,6.8
	s3,6.8,6.8,6.8h89.7c3.1,12,13.9,20.5,26.3,20.5s23.3-8.4,26.3-20.5h111.2c3.1,12,13.9,20.5,26.3,20.5s23.3-8.4,26.3-20.5H355
	c3.8,0,6.8-3,6.8-6.8C361.8,378.6,358.8,375.5,355,375.5z M88.8,320.9L88.8,320.9c-7.5,0-13.7-6.1-13.7-13.6V170.7
	c0-7.5,6.1-13.7,13.7-13.7H157c7.5,0,13.7,6.1,13.7,13.7v136.5c0,7.5-6.1,13.7-13.7,13.7L88.8,320.9L88.8,320.9z M122.9,396
	c-7.5,0-13.7-6.1-13.7-13.6s6.1-13.7,13.7-13.7s13.7,6.1,13.7,13.7C136.5,389.9,130.4,396,122.9,396z M252.6,320.9
	c-7.5,0-13.6-6.1-13.6-13.7V170.7c0-7.5,6.1-13.7,13.6-13.7h68.3c7.5,0,13.7,6.1,13.7,13.7v136.5c0,7.5-6.1,13.7-13.7,13.7
	L252.6,320.9L252.6,320.9z M286.7,396c-7.5,0-13.7-6.1-13.7-13.6s6.1-13.7,13.7-13.7c7.5,0,13.6,6.1,13.6,13.7
	C300.4,389.9,294.3,396,286.7,396z"/>
</svg>
