<?xml version="1.0" encoding="UTF-8"?>
<!DOCTYPE svg PUBLIC "-//W3C//DTD SVG 1.1//EN" "http://www.w3.org/Graphics/SVG/1.1/DTD/svg11.dtd">
<!-- Creator: CorelDRAW 2018 (64-Bit) -->
<svg xmlns="http://www.w3.org/2000/svg" xml:space="preserve" width="738px" height="294px" version="1.1" style="shape-rendering:geometricPrecision; text-rendering:geometricPrecision; image-rendering:optimizeQuality; fill-rule:evenodd; clip-rule:evenodd"
viewBox="0 0 737.998 294.029"
 xmlns:xlink="http://www.w3.org/1999/xlink">
 <defs>
  <style type="text/css">
   <![CDATA[
    .fil0 {fill:black}
    .fil1 {fill:#663333}
    .fil3 {fill:#CC9933}
    .fil4 {fill:black;fill-rule:nonzero}
    .fil2 {fill:#E6E6E6;fill-rule:nonzero}
   ]]>
  </style>
 </defs>
 <g id="Layer_x0020_1">
  <metadata id="CorelCorpID_0Corel-Layer"/>
  <g id="_2266153582768">
   <g>
    <g>
     <path class="fil0" d="M439.223 8.748c4.062,-0.326 7.874,0.975 11.15,3.357 1.856,1.349 3.39,3.056 4.503,5.063l11.395 20.514c1.21,2.179 1.857,4.579 2.022,7.06 0.009,0.141 0.015,0.267 0.018,0.399 0.479,-1.063 0.97,-2.121 1.47,-3.173 0.46,-1.086 0.853,-2.22 1.225,-3.338 0.651,-1.95 1.399,-3.868 2.242,-5.742 1.007,-2.237 2.278,-4.352 3.877,-6.216 2.107,-2.457 4.81,-4.213 7.957,-4.999 0.102,-0.026 0.191,-0.046 0.295,-0.068 4.507,-0.965 8.974,-0.194 12.838,2.327 2.202,1.435 4.015,3.335 5.293,5.634l11.394 20.515c0.987,1.776 1.61,3.713 1.895,5.723 0.023,0.156 0.039,0.289 0.053,0.447 0.303,3.321 -0.246,6.591 -1.742,9.581 -0.702,1.406 -1.432,2.796 -2.188,4.172 -1.658,4.068 -3.307,8.14 -4.95,12.213 3.266,-1.525 6.736,-2.576 10.399,-3.065 0.41,-0.055 0.763,-0.078 1.178,-0.078l1.674 0c2.797,0 5.618,0.291 8.313,1.062 2.052,0.586 4.079,1.346 5.947,2.386 0.988,0.508 1.928,1.092 2.808,1.754 2.756,0.617 5.278,1.939 7.292,4.107 1.017,1.095 1.896,2.31 2.621,3.617 2.691,4.846 5.383,9.692 8.075,14.538 0.897,-1.017 1.839,-1.992 2.83,-2.918 -0.869,-0.804 -1.649,-1.715 -2.324,-2.728 -0.253,-0.378 -0.489,-0.765 -0.709,-1.163l-11.368 -20.465c-0.019,-0.035 -0.036,-0.066 -0.026,-0.047 -0.001,-0.003 -0.003,-0.005 -0.005,-0.009 -1.306,-2.34 -1.982,-4.928 -1.982,-7.607 0,-2.64 0.558,-5.208 1.674,-7.6 1.397,-2.995 3.704,-5.329 6.628,-6.846 2.419,-1.331 5.122,-1.977 7.86,-2.215 2.166,-0.188 4.341,-0.273 6.515,-0.273 2.112,0 4.225,0.042 6.336,0.127 1.629,0.065 3.261,0.11 4.89,0.112 9.135,-0.289 18.268,-0.665 27.392,-1.181 8.869,-0.502 17.732,-1.139 26.587,-1.861 1.924,-0.346 3.891,-0.5 5.847,-0.537 0.34,-0.689 0.671,-1.382 0.989,-2.082 0.169,-0.37 0.365,-0.785 0.495,-1.163 1.105,-3.312 2.354,-6.613 3.581,-9.882 1.817,-4.85 3.828,-9.628 5.984,-14.338 2.137,-4.672 4.523,-9.259 7.264,-13.607 2.955,-4.687 7.003,-9.154 12.769,-10.041 4.128,-0.634 8.209,0.132 11.72,2.415 2.13,1.385 3.9,3.21 5.137,5.438l11.395 20.514c0.801,1.442 1.348,3.001 1.645,4.623 0.021,0.119 0.038,0.222 0.056,0.342 0.591,4.143 -0.112,8.243 -2.322,11.815 -0.164,0.265 -0.326,0.53 -0.486,0.798 2.331,-0.071 4.661,-0.106 6.991,-0.106 2.465,0 4.943,-0.048 7.404,-0.218 4.431,-0.306 8.678,0.866 12.054,3.812 1.393,1.183 2.553,2.6 3.441,4.199 3.799,6.838 7.597,13.677 11.395,20.515 0.532,0.958 0.96,1.968 1.286,3.013 0.826,2.647 1.003,5.404 0.491,8.13 -0.467,2.487 -1.427,4.822 -2.867,6.901 -1.902,2.746 -4.627,4.644 -7.834,5.524 -2.456,0.754 -5.025,0.83 -7.525,0.204 -0.298,-0.074 -0.642,-0.093 -0.947,-0.093 -0.182,0 -0.339,-0.004 -0.521,-0.015 -3.648,-0.214 -7.639,0.029 -11.286,0.241 -5.595,0.324 -11.188,0.722 -16.775,1.181 -5.254,0.431 -10.508,0.896 -15.754,1.42 -1.135,0.115 -2.27,0.227 -3.407,0.34 3.162,0.4 6.108,1.659 8.625,3.799 1.27,1.08 2.351,2.353 3.162,3.813 3.798,6.838 7.596,13.676 11.395,20.514 1.909,3.438 2.036,7.344 0.628,10.972 -0.831,2.42 -1.987,4.859 -3.101,7.152 -1.608,3.312 -3.345,6.568 -5.138,9.781 -2.066,3.7 -4.172,7.376 -6.306,11.036 -2.255,3.865 -4.658,7.65 -7.241,11.303 -2.257,3.191 -4.604,6.325 -7.08,9.35 -2.304,2.817 -5.03,5.605 -8.223,7.417 -4.2,2.603 -8.904,4.134 -13.89,3.857 -4.473,-0.25 -8.656,-1.651 -12.343,-4.195 -3.394,-2.341 -6.178,-5.343 -8.361,-8.833 -0.247,-0.395 -0.484,-0.797 -0.71,-1.203l-1.268 -2.283c-0.873,1.723 -1.882,3.379 -3.028,4.956 -2.67,3.674 -6.05,6.615 -10.097,8.682 -4.314,2.203 -9.004,3.128 -13.827,3.128 -5.771,0 -11.257,-1.393 -16.31,-4.178 -4.656,-2.567 -8.74,-5.95 -12.098,-10.073 -1.7,-2.086 -3.215,-4.314 -4.522,-6.665l-1.8 -3.243c-4.961,1.956 -10.214,2.964 -15.655,3.101 -0.079,0.002 -0.145,0.002 -0.224,0.002 -0.41,0 -0.821,-0.007 -1.231,-0.024 -1.177,1.5 -2.407,2.962 -3.662,4.396 -2.295,2.625 -4.969,4.881 -7.868,6.812 -4.056,2.704 -8.711,3.891 -13.559,3.891 -8.625,0 -16.437,-2.786 -21.967,-9.258 -3.734,3.988 -7.789,7.663 -12.165,10.945 -5.854,4.39 -12.556,7.166 -19.946,7.166 -5.661,0 -11.128,-1.6 -15.057,-5.871 -1.1,-1.196 -2.054,-2.516 -2.843,-3.936l-11.395 -20.515c-1.52,-2.737 -2.377,-5.741 -2.696,-8.847 -0.32,-3.118 -0.226,-6.279 0.144,-9.399 -0.68,0.109 -1.359,0.223 -2.038,0.34 -0.752,0.132 -1.822,0.307 -2.872,0.526 -0.519,1.915 -1.086,3.841 -1.762,5.701 -0.993,2.732 -2.005,5.456 -3.049,8.169 -1.205,3.135 -2.384,6.28 -3.537,9.434 -1.07,2.923 -2.054,5.879 -2.92,8.868 -0.507,1.755 -1.083,3.855 -1.235,5.681 -0.01,0.127 -0.021,0.234 -0.037,0.361 -0.076,0.605 -0.117,1.239 -0.073,1.848 0.125,1.756 0.075,3.532 -0.271,5.261 -0.441,2.201 -1.406,4.226 -2.783,5.996 -1.574,2.024 -3.658,3.481 -5.995,4.497 -5.389,2.344 -11.079,1.782 -15.916,-1.554 -2.391,-1.65 -4.429,-3.723 -5.845,-6.273l-11.395 -20.514c-0.735,-1.323 -1.276,-2.73 -1.601,-4.105 -0.022,0.024 -0.045,0.047 -0.067,0.069 -2.399,2.488 -4.974,4.808 -7.728,6.897 -2.716,2.06 -5.616,3.864 -8.685,5.349 -3.665,1.773 -7.59,2.685 -11.661,2.685 -6.579,0 -12.286,-2.757 -16.176,-8.087 -0.597,-0.818 -1.143,-1.671 -1.634,-2.556l-1.106 -1.99c-2.757,2.256 -5.699,4.276 -8.816,6.008 -4.075,2.264 -8.517,3.515 -13.185,3.515 -6.078,0 -11.42,-2.251 -15.552,-6.471 -2.032,1.728 -4.158,3.341 -6.388,4.79 -4.031,2.62 -8.595,4.552 -13.474,4.552 -7.572,0 -13.998,-3.328 -17.86,-9.907 -0.117,-0.201 -0.233,-0.402 -0.345,-0.606l-9.761 -17.572c-0.671,1.181 -1.316,2.379 -1.949,3.58 -1.066,2.025 -2.32,3.943 -3.724,5.748 -1.603,2.061 -3.471,3.894 -5.606,5.401 -2.833,1.999 -6.1,3.067 -9.568,3.067 -5.254,0 -10.158,-1.925 -13.098,-6.448 -0.232,-0.357 -0.452,-0.723 -0.66,-1.096l-1.384 -2.492c-0.502,0.869 -0.999,1.742 -1.491,2.617 -1.985,3.532 -4.069,7.013 -6.275,10.414 -3.374,5.2 -8.464,8.407 -14.692,8.719 -0.156,0.008 -0.289,0.011 -0.446,0.011 -4.247,0 -8.023,-1.61 -10.938,-4.487 -4.384,2.937 -9.314,4.726 -14.665,4.726 -6.776,0 -12.658,-2.848 -17.149,-7.893 -0.739,-0.831 -1.42,-1.707 -2.041,-2.626 -0.158,0.166 -0.317,0.332 -0.477,0.497 -2.744,2.842 -5.837,5.304 -9.263,7.277 -3.981,2.292 -8.351,3.463 -12.944,3.463 -7.582,0 -14.241,-2.901 -19.483,-8.373 -1.626,-1.699 -3.027,-3.59 -4.168,-5.647l-0.628 -1.13c-2.497,1.635 -5.05,3.183 -7.66,4.626 -4.677,2.583 -9.537,4.868 -14.565,6.684 -4.531,1.636 -9.431,2.883 -14.275,2.883 -5.643,0 -11.161,-1.065 -16.272,-3.497 -4.44,-2.112 -8.477,-4.854 -11.948,-8.348 -2.395,-2.41 -4.45,-5.124 -6.1,-8.095 -3.798,-6.838 -7.594,-13.676 -11.394,-20.513 -0.641,-1.154 -1.21,-2.347 -1.726,-3.563 -1.777,-4.19 -2.782,-8.612 -2.782,-13.173 0,-7.279 1.183,-14.432 3.699,-21.266 2.365,-6.424 5.619,-12.439 9.835,-17.84 4.012,-5.139 8.76,-9.611 14.25,-13.14 5.259,-3.381 11.03,-5.741 17.243,-6.597 0.424,-0.059 0.79,-0.084 1.218,-0.084 0.176,0 0.363,-0.005 0.537,-0.03 0.932,-0.133 1.872,-0.209 2.814,-0.209 7.914,0 15.457,2.01 21.802,6.854 2.857,2.182 5.267,4.839 7.017,7.989l5.643 10.16c1.412,-2.818 2.775,-5.661 4.08,-8.53 0.785,-1.727 1.611,-3.432 2.491,-5.112 1.045,-1.997 2.223,-3.923 3.542,-5.751 1.578,-2.184 3.472,-4.097 5.674,-5.652 2.834,-2 6.103,-3.069 9.571,-3.069 4.604,0 8.804,1.708 11.977,5.057 1.004,1.06 1.88,2.233 2.589,3.509l5.905 10.63c0.182,-0.272 0.365,-0.544 0.549,-0.814 2.278,-3.353 4.874,-6.538 7.848,-9.298 3.403,-3.161 7.524,-5.495 12.288,-5.495 4.474,0 8.55,1.691 11.628,4.948 0.959,1.015 1.793,2.14 2.472,3.361l4.226 7.609c0.263,-0.716 0.52,-1.433 0.77,-2.153 0.774,-2.224 1.704,-4.389 2.796,-6.474 1.34,-2.556 3.082,-4.856 5.257,-6.759 2.924,-2.559 6.534,-3.882 10.419,-3.882 4.205,0 8.003,1.678 10.97,4.644 1.041,1.04 1.934,2.215 2.649,3.502l0.628 1.132c0.239,-0.199 0.479,-0.396 0.72,-0.591 4.584,-3.711 9.94,-6.054 15.9,-6.054 5.052,0 9.645,1.845 13.145,5.505 0.163,0.171 0.323,0.344 0.479,0.522 0.369,-0.328 0.74,-0.654 1.114,-0.977 2.915,-2.527 6.108,-4.692 9.539,-6.456 4.141,-2.129 8.638,-3.141 13.291,-3.141 6.229,0 11.852,2.389 15.4,7.626 0.331,0.488 0.639,0.992 0.926,1.508l9.788 17.621c0.038,-0.047 0.077,-0.095 0.116,-0.144 4.678,-5.735 10.147,-10.71 16.442,-14.62 6.149,-3.82 12.961,-6.248 20.259,-6.248 4.304,0 8.51,0.814 12.453,2.554 1.885,0.831 3.632,1.863 5.229,3.086 0.768,-0.881 1.579,-1.724 2.435,-2.523 2.831,-2.644 6.396,-4.074 10.271,-4.074 4.018,0 7.714,1.459 10.645,4.206 1.097,1.028 2.024,2.217 2.754,3.531l9.028 16.256c4.329,0.353 8.261,2.165 10.812,5.732 2.21,-0.424 4.422,-0.836 6.637,-1.232 0.446,-0.138 0.898,-0.255 1.354,-0.351 0.501,-1.642 1.029,-3.289 1.628,-4.889 2.216,-5.905 4.391,-11.825 6.552,-17.75 2.545,-6.977 5.159,-13.929 7.836,-20.857 2.66,-6.882 5.337,-13.756 8.034,-20.624 2.375,-6.046 4.825,-12.07 7.429,-18.021 1.078,-2.465 2.179,-4.92 3.312,-7.36 2.505,-5.394 7.457,-8.359 13.308,-8.728zm16.717 68.083c-1.076,2.714 -2.128,5.437 -3.164,8.164 -1.735,4.562 -3.455,9.129 -5.163,13.702 0.048,-0.002 0.097,-0.002 0.149,-0.002 0.171,0 0.342,0.002 0.514,0.002 0.015,-0.062 0.032,-0.124 0.047,-0.187 0.236,-0.941 0.483,-1.894 0.791,-2.815 0.024,-0.072 0.045,-0.134 0.071,-0.205l4.666 -12.92c0.691,-1.914 1.387,-3.827 2.089,-5.739zm-395.474 55.179l-0.492 -0.884c-1.058,0.33 -2.116,0.881 -2.941,1.367 -2.555,1.511 -4.747,3.569 -6.629,5.852 -0.192,0.233 -0.379,0.468 -0.564,0.706 3.193,-1.765 6.256,-3.798 9.176,-5.952 0.487,-0.358 0.97,-0.722 1.45,-1.089z"/>
    </g>
    <path class="fil1" d="M46.245 87.991c0.638,0 1.237,-0.04 1.795,-0.119 0.558,-0.08 1.077,-0.12 1.556,-0.12 6.54,0 12.003,1.675 16.39,5.025 2.001,1.528 3.545,3.271 4.634,5.231l11.394 20.514c0.664,1.194 1.157,2.469 1.481,3.824 1.615,-1.955 3.084,-3.922 4.407,-5.904 0.924,-2.145 1.914,-4.251 2.969,-6.317 1.835,-3.589 3.63,-7.298 5.384,-11.126 0.638,-1.437 1.397,-2.992 2.273,-4.667 0.878,-1.675 1.835,-3.23 2.872,-4.665 1.037,-1.437 2.233,-2.633 3.589,-3.59 1.356,-0.957 2.832,-1.435 4.427,-1.435 2.233,0 4.068,0.757 5.503,2.273 0.515,0.543 0.938,1.112 1.268,1.706l11.395 20.514c0.591,1.064 0.886,2.21 0.886,3.439 0,1.755 -0.798,3.43 -2.393,5.025 -1.595,1.595 -2.632,2.791 -3.111,3.589 -1.594,2.552 -3.349,5.543 -5.264,8.973 -1.914,3.429 -3.708,7.099 -5.384,11.007 -0.04,0.094 -0.08,0.19 -0.121,0.284 0.309,-0.424 0.619,-0.856 0.93,-1.297 2.472,-3.509 4.826,-7.218 7.059,-11.127 2.233,-3.908 4.227,-7.298 5.982,-10.169 1.715,-3.031 3.549,-6.301 5.543,-9.811 1.954,-3.509 3.988,-6.819 6.102,-9.93 2.114,-3.111 4.307,-5.703 6.54,-7.776 2.233,-2.074 4.307,-3.112 6.221,-3.112 2.074,0 3.789,0.718 5.145,2.154 0.467,0.495 0.853,1.018 1.16,1.568l11.395 20.515c0.582,1.049 0.874,2.201 0.874,3.457 0,0.464 -0.026,0.923 -0.079,1.375 0.72,-1.01 1.422,-1.944 2.105,-2.803 1.595,-4.545 3.264,-8.993 5.004,-13.344 0.638,-1.595 1.276,-3.31 1.914,-5.145 0.638,-1.834 1.396,-3.589 2.273,-5.264 0.878,-1.675 1.954,-3.071 3.231,-4.187 1.276,-1.117 2.791,-1.675 4.546,-1.675 1.755,0 3.31,0.678 4.666,2.034 0.466,0.466 0.852,0.974 1.158,1.524l6.316 11.371c2.69,-3.11 5.503,-5.854 8.438,-8.23 3.35,-2.711 6.78,-4.067 10.289,-4.067 2.712,0 4.946,0.917 6.7,2.752 0.534,0.558 0.986,1.171 1.358,1.839l3.742 6.738c0.704,-0.699 1.437,-1.444 2.198,-2.237 1.994,-2.073 4.188,-4.147 6.581,-6.221 2.392,-2.074 4.984,-3.828 7.776,-5.264 2.792,-1.435 5.863,-2.153 9.213,-2.153 3.669,0 6.341,1.236 8.016,3.708 0.181,0.268 0.352,0.548 0.514,0.839l11.395 20.514c1.332,2.397 1.998,5.587 1.998,9.571 -0.182,2.178 -0.531,4.369 -1.048,6.573 2.04,-3.134 4.017,-5.996 5.932,-8.588 1.878,-3.316 3.989,-6.413 6.333,-9.287 4.227,-5.185 8.973,-9.412 14.238,-12.682 5.263,-3.271 10.448,-4.906 15.553,-4.906 3.19,0 6.141,0.599 8.853,1.795 2.712,1.196 4.945,2.991 6.7,5.384l0.524 0.943c0.126,0.216 0.27,0.46 0.433,0.731 0.479,0.799 0.798,1.197 0.957,1.197 0.957,0 1.835,-0.558 2.633,-1.675l2.751 -3.828c1.037,-1.436 2.154,-2.712 3.351,-3.829 1.196,-1.117 2.592,-1.675 4.187,-1.675 1.754,0 3.27,0.598 4.546,1.795 0.421,0.395 0.773,0.847 1.056,1.355l11.394 20.514c0.184,0.331 0.339,0.687 0.464,1.065 1.038,-0.533 2.158,-0.8 3.358,-0.8 2.703,0 4.525,0.847 5.466,2.541l2.436 4.387c1.457,-0.341 2.93,-0.656 4.42,-0.946 3.27,-0.638 6.262,-1.197 8.974,-1.676 0.797,-0.319 1.794,-0.478 2.991,-0.478 1.196,0 1.954,-0.16 2.273,-0.479 0.638,-0.478 1.316,-1.914 2.034,-4.307 0.717,-2.392 1.316,-4.227 1.794,-5.503 1.915,-5.105 4.108,-11.047 6.581,-17.826 2.472,-6.781 5.064,-13.68 7.776,-20.699 2.712,-7.019 5.384,-13.878 8.016,-20.578 2.632,-6.7 5.065,-12.602 7.298,-17.707 1.117,-2.552 2.193,-4.945 3.23,-7.179 1.037,-2.232 2.992,-3.429 5.863,-3.589 1.754,-0.159 3.51,0.399 5.264,1.675 0.828,0.603 1.479,1.329 1.952,2.181l11.395 20.514c0.529,0.952 0.835,2.06 0.92,3.323 0,1.755 -0.359,3.071 -1.077,3.949 -0.718,0.877 -1.316,1.794 -1.795,2.751 -1.276,2.393 -2.393,4.905 -3.35,7.538 -0.957,2.632 -1.994,5.304 -3.11,8.015 -1.595,3.829 -3.47,8.575 -5.624,14.238 -2.153,5.663 -4.386,11.605 -6.699,17.826 -1.145,3.079 -2.28,6.11 -3.405,9.091 1.128,-0.138 2.293,-0.275 3.495,-0.412 2.792,-0.32 6.102,-0.559 9.93,-0.719 1.276,0 2.553,0.04 3.829,0.12 1.276,0.08 2.153,-0.039 2.632,-0.359 0.159,-0.159 0.439,-0.598 0.838,-1.315 0.398,-0.719 0.757,-1.556 1.076,-2.513 0.319,-0.957 0.598,-1.914 0.838,-2.871 0.239,-0.958 0.438,-1.675 0.598,-2.154l4.666 -12.921c1.675,-4.627 3.39,-9.293 5.144,-13.998 1.755,-4.706 3.51,-9.293 5.265,-13.759 1.755,-4.467 3.509,-8.535 5.264,-12.204 0.479,-1.116 0.997,-2.512 1.555,-4.187 0.559,-1.675 1.197,-3.31 1.915,-4.905 0.718,-1.595 1.555,-2.952 2.512,-4.068 0.957,-1.117 2.073,-1.834 3.35,-2.154 2.233,-0.478 4.267,-0.119 6.102,1.077 1.026,0.669 1.815,1.501 2.367,2.495l11.395 20.514c0.434,0.782 0.722,1.666 0.863,2.65 0.159,1.755 -0.12,3.35 -0.838,4.786 -0.718,1.436 -1.475,2.871 -2.273,4.307 -1.754,4.307 -3.629,8.933 -5.623,13.878 -1.994,4.945 -3.988,10.01 -5.982,15.195 -1.994,5.184 -3.948,10.368 -5.862,15.553 -1.915,5.185 -3.669,10.09 -5.265,14.715 -0.478,1.437 -1.076,2.952 -1.794,4.547 -0.31,0.688 -0.552,1.346 -0.728,1.974 1.095,-1.553 2.166,-3.108 3.211,-4.662 1.559,-2.318 2.974,-4.335 4.244,-6.052 1.821,-5.608 4.314,-10.728 7.481,-15.364 3.27,-4.785 7.059,-8.813 11.366,-12.084 4.307,-3.27 8.854,-5.224 13.639,-5.862l1.675 0c2.233,0 4.187,0.239 5.862,0.718 1.675,0.479 3.072,1.037 4.188,1.675 1.276,0.638 2.313,1.436 3.111,2.393 2.073,0 3.628,0.558 4.666,1.675 0.524,0.565 0.977,1.19 1.358,1.877 3.798,6.839 7.597,13.677 11.395,20.515 0.373,0.671 0.678,1.401 0.915,2.19 0.479,1.595 0.717,3.151 0.717,4.666l0 1.585c1.32,-1.584 2.586,-3.168 3.8,-4.751l0.637 -0.827c0.69,-1.245 1.435,-2.444 2.235,-3.6 2.153,-3.111 4.506,-5.663 7.058,-7.657 2.553,-1.994 5.026,-2.991 7.418,-2.991 1.755,0 3.35,0.599 4.786,1.795 0.603,0.502 1.08,1.069 1.43,1.699l5.443 9.797c-0.443,-2.537 -0.652,-5.252 -0.652,-8.147 0,-3.709 0.479,-7.457 1.436,-11.285 0.12,-0.486 0.247,-0.967 0.381,-1.441 -4.3,0.067 -8.605,0.1 -12.914,0.1 -1.117,0 -2.233,0.16 -3.35,0.479 -1.117,0.319 -2.313,0.319 -3.589,0 -1.436,-0.479 -2.553,-1.316 -3.35,-2.512 -0.12,-0.18 -0.23,-0.361 -0.332,-0.544l-11.368 -20.465c-0.007,-0.012 -0.013,-0.024 -0.019,-0.036l-0.008 -0.013c-0.576,-1.038 -0.865,-2.133 -0.865,-3.285 0,-1.357 0.28,-2.632 0.838,-3.829 0.558,-1.196 1.475,-2.113 2.752,-2.752 1.116,-0.638 2.592,-1.036 4.427,-1.196 1.834,-0.16 3.748,-0.239 5.742,-0.239 1.994,0 3.988,0.04 5.982,0.119 1.994,0.08 3.789,0.12 5.384,0.12 10.05,-0.319 19.302,-0.718 27.757,-1.197 8.454,-0.478 17.547,-1.116 27.278,-1.914 1.595,-0.319 3.47,-0.478 5.623,-0.478 2.153,0 3.629,-0.24 4.427,-0.718 0.318,-0.16 0.678,-0.598 1.077,-1.317 0.398,-0.717 0.837,-1.555 1.315,-2.512 0.479,-0.957 0.918,-1.874 1.317,-2.752 0.398,-0.877 0.678,-1.555 0.837,-2.033 0.638,-1.915 1.795,-5.105 3.469,-9.572 1.676,-4.466 3.59,-9.052 5.744,-13.759 2.153,-4.705 4.386,-8.893 6.699,-12.562 2.313,-3.669 4.507,-5.663 6.581,-5.982 2.073,-0.318 3.908,0.04 5.503,1.077 0.971,0.631 1.705,1.395 2.203,2.291l11.395 20.515c0.321,0.577 0.544,1.209 0.668,1.896 0.32,2.233 -0.04,4.187 -1.076,5.862 -1.037,1.675 -1.954,3.31 -2.752,4.906 -1.918,3.531 -3.77,7.063 -5.56,10.595l0.027 -0.003c7.099,-0.798 14.557,-1.197 22.373,-1.197 3.031,0 5.704,-0.08 8.017,-0.239 2.312,-0.159 4.187,0.399 5.622,1.675 0.597,0.497 1.086,1.088 1.465,1.771 3.799,6.838 7.597,13.677 11.395,20.515 0.23,0.413 0.419,0.859 0.569,1.339 0.399,1.276 0.479,2.553 0.24,3.829 -0.24,1.276 -0.718,2.433 -1.436,3.469 -0.718,1.037 -1.715,1.715 -2.991,2.034 -0.958,0.319 -1.915,0.359 -2.872,0.12 -0.957,-0.24 -1.993,-0.359 -3.11,-0.359 -2.712,-0.16 -6.82,-0.08 -12.323,0.239 -5.504,0.319 -11.167,0.718 -16.99,1.197 -5.822,0.478 -11.126,0.957 -15.912,1.435 -4.785,0.479 -7.896,0.798 -9.332,0.957l-0.717 1.316c-0.479,0.878 -0.957,1.835 -1.436,2.872 -0.478,1.036 -0.957,2.114 -1.435,3.23 -0.479,1.117 -0.799,1.914 -0.958,2.393 -3.35,8.614 -6.142,16.79 -8.375,24.526 -0.92,3.188 -1.853,6.558 -2.8,10.11 0.167,-0.278 0.333,-0.555 0.498,-0.834 3.031,-5.104 6.142,-10.607 9.332,-16.51 1.117,-2.073 2.353,-4.227 3.709,-6.46 1.356,-2.234 3.39,-3.43 6.102,-3.589 2.233,-0.16 4.147,0.438 5.742,1.794 0.497,0.423 0.878,0.872 1.142,1.348 3.798,6.839 7.597,13.676 11.395,20.515 0.586,1.053 0.604,2.239 0.055,3.557 -0.479,1.436 -1.396,3.549 -2.752,6.341 -1.356,2.791 -2.991,5.902 -4.905,9.332 -1.915,3.43 -3.988,7.058 -6.222,10.887 -2.233,3.829 -4.506,7.378 -6.819,10.648 -2.313,3.27 -4.547,6.221 -6.7,8.853 -2.153,2.633 -4.108,4.427 -5.862,5.384 -3.031,1.914 -5.983,2.792 -8.854,2.632 -2.871,-0.159 -5.464,-1.036 -7.776,-2.632 -2.313,-1.595 -4.268,-3.669 -5.863,-6.221 -0.166,-0.265 -0.325,-0.534 -0.475,-0.805l-11.396 -20.514c-1.294,-2.331 -2.014,-4.855 -2.156,-7.57 -0.319,-4.148 -0.08,-8.096 0.718,-11.844 0.797,-3.749 1.595,-7.459 2.392,-11.127 1.57,-7.401 3.259,-14.427 5.065,-21.079 -1.663,0.474 -3.286,1.098 -4.796,1.872 -2.832,1.755 -5.025,4.427 -6.62,8.016 -1.556,3.59 -2.354,7.617 -2.354,12.084 0,2.712 0.28,5.423 0.838,8.136 0.559,2.711 1.197,5.463 1.914,8.254 0.718,2.792 1.356,5.544 1.915,8.256 0.558,2.712 0.837,5.503 0.837,8.375 0,3.669 -0.478,7.099 -1.435,10.289 -0.958,3.19 -2.353,6.062 -4.228,8.614 -1.834,2.553 -4.147,4.546 -6.939,5.982 -2.832,1.436 -6.062,2.154 -9.771,2.154 -4.307,0 -8.295,-1.037 -12.004,-3.071 -3.669,-2.034 -6.859,-4.666 -9.491,-7.896 -1.368,-1.679 -2.585,-3.465 -3.64,-5.364l-5.999 -10.8c-0.695,0.436 -1.403,0.866 -2.126,1.289 -5.185,3.03 -10.967,4.625 -17.348,4.785 -0.798,0 -1.555,-0.04 -2.273,-0.12 -0.718,-0.08 -1.317,-0.12 -1.795,-0.12 -0.957,0 -2.034,0.798 -3.231,2.393 -1.196,1.595 -2.631,3.351 -4.306,5.265 -1.675,1.914 -3.709,3.669 -6.102,5.264 -2.393,1.595 -5.264,2.393 -8.614,2.393 -7.339,0 -12.762,-2.513 -16.272,-7.538 -0.534,-0.765 -1.028,-1.556 -1.481,-2.371l-3.083 -5.551c-1.672,2.137 -3.42,4.26 -5.246,6.367 -4.148,4.785 -8.614,8.973 -13.399,12.562 -4.787,3.589 -9.652,5.384 -14.597,5.384 -3.828,0 -6.66,-0.997 -8.494,-2.991 -0.625,-0.679 -1.162,-1.422 -1.611,-2.23l-11.395 -20.515c-0.869,-1.565 -1.41,-3.375 -1.62,-5.426 -0.319,-3.111 -0.12,-6.621 0.598,-10.528 0.518,-2.817 1.159,-5.613 1.925,-8.388 -0.945,0.099 -1.896,0.201 -2.853,0.307 -4.307,0.479 -8.295,1.037 -11.964,1.675 -3.669,0.638 -6.221,1.276 -7.657,1.915 -0.798,0.638 -1.515,2.153 -2.154,4.546 -0.638,2.393 -1.196,4.227 -1.675,5.504 -0.797,2.232 -1.794,4.905 -2.99,8.016 -1.197,3.11 -2.393,6.3 -3.59,9.57 -1.196,3.271 -2.233,6.422 -3.11,9.453 -0.878,3.03 -1.396,5.503 -1.556,7.417 -0.159,1.276 -0.199,2.473 -0.119,3.589 0.08,1.117 0.04,2.074 -0.12,2.872 -0.16,0.798 -0.518,1.555 -1.077,2.273 -0.558,0.718 -1.395,1.316 -2.512,1.795 -2.553,1.116 -4.985,0.877 -7.299,-0.718 -1.405,-0.969 -2.442,-2.056 -3.112,-3.261l-11.395 -20.515c-0.432,-0.777 -0.71,-1.605 -0.836,-2.481 -0.478,-2.872 0,-6.301 1.436,-10.29 1.189,-3.302 2.268,-6.331 3.239,-9.087 -0.906,0.603 -1.696,1.378 -2.372,2.324 -0.798,1.116 -1.835,1.834 -3.111,2.153 -1.433,0.358 -2.753,0.359 -3.962,0.002l-4.174 4.784c-1.914,2.233 -3.948,4.467 -6.101,6.7 -2.154,2.233 -4.387,4.227 -6.7,5.982 -2.313,1.755 -4.706,3.23 -7.179,4.426 -2.473,1.197 -5.065,1.795 -7.777,1.795 -3.828,0 -6.819,-1.476 -8.973,-4.427 -0.381,-0.522 -0.728,-1.065 -1.041,-1.629l-6.65 -11.972c-2.145,2.3 -4.526,4.561 -7.144,6.782 -2.632,2.233 -5.384,4.147 -8.255,5.742 -2.871,1.596 -5.823,2.393 -8.854,2.393 -4.147,0 -7.537,-1.635 -10.169,-4.905 -0.588,-0.729 -1.109,-1.504 -1.565,-2.325l-2.323 -4.183c-1.009,1.081 -2.026,2.133 -3.051,3.158 -3.271,3.27 -6.501,5.942 -9.692,8.016 -3.189,2.074 -6.061,3.111 -8.613,3.111 -4.627,0 -8.016,-1.835 -10.17,-5.504 -0.082,-0.139 -0.162,-0.28 -0.241,-0.421l-11.395 -20.515c-1.993,-3.587 -2.989,-7.914 -2.989,-12.978 0,-0.594 0.009,-1.185 0.027,-1.773 -1.231,1.82 -2.427,3.666 -3.587,5.538 -2.473,3.988 -4.906,7.976 -7.298,11.964 -0.638,1.117 -1.357,2.433 -2.154,3.948 -0.798,1.516 -1.755,2.991 -2.871,4.427 -1.117,1.435 -2.353,2.632 -3.709,3.589 -1.357,0.957 -2.832,1.436 -4.427,1.436 -2.712,0 -4.587,-0.798 -5.623,-2.393 -0.12,-0.184 -0.233,-0.373 -0.339,-0.564l-8.725 -15.706c-3.32,4.885 -6.559,10.148 -9.72,15.791 -2.074,3.669 -4.068,6.979 -5.982,9.931 -1.914,2.95 -4.466,4.506 -7.657,4.666 -2.233,0 -4.067,-0.957 -5.504,-2.872 -0.259,-0.346 -0.496,-0.711 -0.708,-1.094l-2.707 -4.874c-2.012,2.015 -4.103,3.804 -6.275,5.37 -3.43,2.473 -6.899,3.709 -10.409,3.709 -4.068,0 -7.577,-1.635 -10.489,-4.905 -0.787,-0.885 -1.467,-1.842 -2.039,-2.872l-5.282 -9.51c-0.662,0.853 -1.346,1.75 -2.051,2.69 -1.914,2.553 -3.988,4.986 -6.22,7.299 -2.234,2.313 -4.667,4.227 -7.299,5.742 -2.632,1.516 -5.463,2.274 -8.494,2.274 -5.105,0 -9.452,-1.875 -13.041,-5.623 -1.11,-1.159 -2.048,-2.429 -2.815,-3.809l-5.46 -9.83c-0.466,0.359 -0.938,0.717 -1.417,1.076 -4.466,3.31 -8.973,6.262 -13.519,8.774 -4.547,2.512 -8.973,4.546 -13.28,6.102 -4.308,1.555 -8.056,2.353 -11.246,2.353 -4.626,0 -8.774,-0.878 -12.443,-2.632 -3.709,-1.755 -6.82,-3.949 -9.452,-6.581 -1.855,-1.883 -3.403,-3.93 -4.63,-6.139 -3.798,-6.839 -7.595,-13.678 -11.395,-20.515 -0.488,-0.879 -0.926,-1.783 -1.312,-2.714 -1.396,-3.27 -2.074,-6.5 -2.074,-9.691 0,-6.381 1.037,-12.443 3.151,-18.185 2.114,-5.743 4.945,-10.887 8.494,-15.434 3.549,-4.546 7.578,-8.255 12.044,-11.126 4.467,-2.872 9.013,-4.627 13.639,-5.265zm578.047 8.478l2.313 4.165c0.133,0.238 0.247,0.488 0.345,0.751l0.034 -0.114c0.509,-1.691 1.035,-3.383 1.577,-5.077 -1.419,0.095 -2.842,0.187 -4.269,0.275zm-46.109 59.958c0.237,-2.622 0.88,-5.076 1.931,-7.363 0.152,-0.333 0.309,-0.657 0.469,-0.974 0.849,-1.163 1.61,-2.315 2.283,-3.453l0.551 -0.945c0.51,-0.613 1.044,-1.175 1.602,-1.687 1.276,-1.117 2.911,-2.313 4.906,-3.589 0.187,-0.12 0.366,-0.247 0.537,-0.38 0.428,2.486 0.63,5.005 0.63,7.582 0,3.35 -0.559,6.182 -1.676,8.415 -1.156,2.234 -3.31,3.35 -6.54,3.35 -1.668,0 -3.224,-0.318 -4.693,-0.956zm-506.293 -22.276c-0.078,-0.098 -0.146,-0.2 -0.206,-0.309l-6.481 -11.667c-0.983,-0.18 -2.147,-0.269 -3.495,-0.269 -2.871,0 -5.942,0.957 -9.212,2.911 -3.271,1.914 -6.261,4.546 -8.973,7.856 -2.712,3.27 -4.945,7.099 -6.7,11.446 -0.974,2.412 -1.677,4.922 -2.11,7.536 1.368,0.309 2.819,0.464 4.354,0.464 2.871,0 6.58,-1.076 11.126,-3.23 4.547,-2.154 9.253,-5.025 14.118,-8.615 2.571,-1.896 5.097,-3.937 7.579,-6.123z"/>
    <g>
     <path class="fil2" d="M46.245 87.991c0.638,0 1.237,-0.04 1.795,-0.119 0.558,-0.08 1.077,-0.12 1.556,-0.12 6.54,0 12.003,1.675 16.39,5.025 4.387,3.35 6.58,7.737 6.58,13.16 0,2.553 -0.597,4.706 -1.794,6.461 -1.197,1.755 -3.071,2.632 -5.624,2.632 -2.871,0 -4.546,-0.678 -5.024,-2.074 -0.479,-1.355 -0.838,-2.911 -1.077,-4.625 -0.24,-1.716 -0.797,-3.271 -1.675,-4.746 -0.878,-1.476 -3.231,-2.194 -7.059,-2.194 -2.871,0 -5.942,0.958 -9.213,2.911 -3.27,1.915 -6.26,4.547 -8.972,7.857 -2.712,3.27 -4.945,7.099 -6.7,11.446 -1.755,4.347 -2.632,9.012 -2.632,14.037 0,4.028 1.555,7.418 4.666,10.25 3.11,2.831 6.979,4.227 11.605,4.227 2.871,0 6.58,-1.076 11.127,-3.23 4.546,-2.154 9.252,-5.025 14.117,-8.615 4.866,-3.589 9.572,-7.697 14.118,-12.322 4.546,-4.627 8.255,-9.332 11.126,-14.118 0.639,-1.276 1.755,-1.914 3.351,-1.914 1.754,0 3.429,0.837 5.024,2.512 1.596,1.675 2.393,3.55 2.393,5.623 0,2.393 -1.077,5.225 -3.23,8.495 -2.154,3.27 -4.945,6.58 -8.375,9.93 -3.429,3.35 -7.378,6.7 -11.844,10.05 -4.467,3.31 -8.974,6.261 -13.52,8.773 -4.547,2.513 -8.973,4.547 -13.28,6.102 -4.307,1.555 -8.056,2.353 -11.246,2.353 -4.626,0 -8.774,-0.877 -12.443,-2.632 -3.709,-1.754 -6.82,-3.948 -9.452,-6.58 -2.592,-2.632 -4.586,-5.584 -5.942,-8.854 -1.396,-3.27 -2.074,-6.5 -2.074,-9.691 0,-6.381 1.037,-12.443 3.151,-18.185 2.114,-5.743 4.945,-10.887 8.494,-15.434 3.549,-4.546 7.578,-8.255 12.044,-11.126 4.467,-2.872 9.013,-4.627 13.639,-5.265zm80.639 56.71c-1.595,1.915 -3.35,4.148 -5.265,6.7 -1.914,2.553 -3.988,4.985 -6.221,7.298 -2.233,2.313 -4.666,4.227 -7.298,5.743 -2.632,1.515 -5.463,2.273 -8.494,2.273 -5.105,0 -9.452,-1.874 -13.041,-5.623 -3.589,-3.749 -5.384,-8.654 -5.384,-14.716 0,-4.785 0.439,-9.212 1.316,-13.28 0.877,-4.068 2.034,-8.016 3.469,-11.844 1.436,-3.829 3.072,-7.538 4.905,-11.127 1.835,-3.589 3.63,-7.298 5.385,-11.126 0.637,-1.437 1.396,-2.992 2.272,-4.667 0.878,-1.675 1.835,-3.23 2.872,-4.665 1.037,-1.437 2.233,-2.633 3.589,-3.59 1.356,-0.957 2.832,-1.435 4.427,-1.435 2.233,0 4.068,0.757 5.503,2.273 1.437,1.515 2.154,3.23 2.154,5.144 0,1.755 -0.798,3.43 -2.392,5.025 -1.596,1.595 -2.633,2.792 -3.112,3.59 -1.595,2.552 -3.349,5.543 -5.264,8.972 -1.914,3.43 -3.708,7.099 -5.383,11.007 -1.676,3.909 -3.071,7.977 -4.188,12.204 -1.116,4.227 -1.675,8.415 -1.675,12.562 0,1.914 0.279,3.629 0.838,5.145 0.558,1.515 1.714,2.273 3.469,2.273 1.914,0 4.068,-1.236 6.461,-3.709 2.393,-2.472 4.825,-5.463 7.298,-8.973 2.472,-3.509 4.826,-7.218 7.059,-11.127 2.233,-3.908 4.227,-7.298 5.982,-10.169 1.715,-3.031 3.549,-6.301 5.544,-9.811 1.953,-3.509 3.987,-6.819 6.101,-9.93 2.114,-3.111 4.307,-5.703 6.541,-7.776 2.232,-2.074 4.306,-3.112 6.22,-3.112 2.074,0 3.789,0.718 5.145,2.154 1.356,1.436 2.034,3.111 2.034,5.025 0,2.074 -0.518,4.028 -1.555,5.862 -1.037,1.835 -2.114,3.869 -3.23,6.102 -3.829,7.657 -6.86,14.597 -9.093,20.818 -2.234,6.221 -3.35,12.682 -3.35,19.382 0,3.19 0.399,4.785 1.196,4.785 1.915,0 3.908,-1.037 5.982,-3.11 2.074,-2.074 4.188,-4.666 6.341,-7.777 2.154,-3.111 4.267,-6.5 6.341,-10.169 2.074,-3.67 4.108,-7.059 6.102,-10.17 1.994,-3.111 3.868,-5.703 5.623,-7.777 1.755,-2.074 3.43,-3.111 5.025,-3.111 2.074,0 3.789,0.519 5.144,1.556 1.357,1.037 2.035,2.433 2.035,4.187 0,1.755 -0.958,4.148 -2.872,7.179 -1.915,3.031 -3.51,5.583 -4.786,7.657 -1.914,3.191 -4.147,6.819 -6.699,10.888 -2.553,4.067 -5.344,7.895 -8.376,11.485 -3.03,3.589 -6.26,6.62 -9.69,9.093 -3.43,2.472 -6.9,3.708 -10.409,3.708 -4.068,0 -7.577,-1.635 -10.489,-4.905 -2.911,-3.27 -4.346,-7.537 -4.346,-12.801 0,-1.595 0.079,-2.792 0.239,-3.59zm127.776 5.504c4.308,-2.074 8.176,-5.344 11.605,-9.811 3.43,-4.467 6.581,-8.973 9.452,-13.519 2.872,-4.547 5.623,-8.575 8.255,-12.084 2.633,-3.51 5.305,-5.264 8.016,-5.264 1.755,0 3.231,0.479 4.427,1.436 1.197,0.957 1.795,2.313 1.795,4.067 0,1.276 -0.718,3.39 -2.154,6.341 -1.435,2.952 -3.39,6.261 -5.862,9.931 -2.473,3.669 -5.265,7.417 -8.375,11.246 -3.111,3.828 -6.301,7.378 -9.571,10.648 -3.27,3.27 -6.501,5.942 -9.691,8.016 -3.191,2.074 -6.062,3.11 -8.615,3.11 -4.625,0 -8.015,-1.834 -10.169,-5.503 -2.153,-3.669 -3.23,-8.136 -3.23,-13.4 0,-4.307 0.478,-8.455 1.435,-12.443 0.957,-3.987 2.074,-7.856 3.35,-11.605 1.277,-3.749 2.592,-7.457 3.948,-11.127 1.356,-3.668 2.433,-7.417 3.231,-11.245 -3.669,2.073 -7.059,4.665 -10.169,7.776 -3.112,3.111 -6.062,6.541 -8.854,10.289 -2.791,3.749 -5.424,7.618 -7.896,11.605 -2.473,3.988 -4.906,7.977 -7.298,11.965 -0.638,1.116 -1.356,2.432 -2.154,3.948 -0.798,1.515 -1.755,2.991 -2.871,4.426 -1.117,1.436 -2.353,2.633 -3.709,3.59 -1.357,0.957 -2.832,1.435 -4.427,1.435 -2.712,0 -4.586,-0.797 -5.623,-2.392 -1.037,-1.596 -1.555,-3.43 -1.555,-5.504 0,-3.031 0.637,-6.301 1.914,-9.811 1.276,-3.509 2.313,-6.301 3.11,-8.374 1.276,-3.51 2.593,-6.7 3.949,-9.572 1.356,-2.871 2.512,-5.663 3.469,-8.374 -5.743,6.54 -11.007,13.04 -15.793,19.501 -4.785,6.461 -9.411,13.679 -13.878,21.655 -2.073,3.669 -4.068,6.979 -5.982,9.93 -1.914,2.951 -4.466,4.507 -7.657,4.666 -2.233,0 -4.068,-0.957 -5.504,-2.871 -1.435,-1.914 -2.153,-4.387 -2.153,-7.418 0,-3.669 0.559,-7.099 1.675,-10.289 1.116,-3.191 2.154,-6.381 3.111,-9.572 1.754,-5.583 3.629,-11.325 5.623,-17.228 1.994,-5.902 4.108,-11.645 6.341,-17.228 0.638,-1.595 1.276,-3.31 1.914,-5.145 0.638,-1.834 1.396,-3.589 2.273,-5.264 0.878,-1.675 1.954,-3.071 3.231,-4.187 1.276,-1.117 2.791,-1.675 4.546,-1.675 1.755,0 3.31,0.678 4.666,2.034 1.356,1.355 2.034,3.07 2.034,5.144 0,1.276 -0.319,2.393 -0.957,3.35 -0.639,0.957 -1.197,1.914 -1.675,2.871 -1.755,3.351 -3.311,7.139 -4.666,11.366 -1.356,4.228 -2.672,7.937 -3.948,11.127 2.073,-1.914 4.426,-4.746 7.058,-8.495 2.632,-3.748 5.464,-7.457 8.495,-11.126 3.031,-3.669 6.221,-6.86 9.571,-9.572 3.35,-2.711 6.78,-4.067 10.289,-4.067 2.712,0 4.946,0.917 6.7,2.752 1.755,1.834 2.632,4.267 2.632,7.297 0,1.437 -0.239,2.872 -0.718,4.308 1.596,-1.436 3.39,-3.191 5.385,-5.265 1.993,-2.073 4.187,-4.147 6.58,-6.221 2.392,-2.074 4.984,-3.828 7.776,-5.264 2.792,-1.435 5.863,-2.153 9.213,-2.153 3.669,0 6.341,1.236 8.016,3.708 1.674,2.473 2.512,5.942 2.512,10.409 -0.319,3.828 -1.156,7.697 -2.512,11.605 -1.356,3.909 -2.792,7.897 -4.307,11.964 -1.516,4.069 -2.872,8.176 -4.068,12.323 -1.197,4.148 -1.795,8.375 -1.795,12.682 0,0.798 0,1.556 0,2.274 0,0.717 0.08,1.475 0.239,2.273zm77.289 -0.479c2.233,-1.435 4.625,-3.31 7.178,-5.623 2.552,-2.313 5.104,-4.865 7.657,-7.657 2.552,-2.791 5.065,-5.663 7.537,-8.614 2.473,-2.951 4.666,-5.862 6.581,-8.734 1.276,-1.755 2.711,-3.43 4.307,-5.025 1.595,-1.595 3.43,-2.392 5.504,-2.392 4.147,0 6.221,1.993 6.221,5.982 0,1.435 -0.758,3.469 -2.273,6.101 -1.516,2.632 -3.311,5.384 -5.384,8.255 -2.074,2.872 -4.188,5.543 -6.342,8.016 -2.153,2.473 -3.788,4.347 -4.905,5.623 -1.914,2.234 -3.948,4.467 -6.102,6.7 -2.153,2.234 -4.387,4.227 -6.699,5.982 -2.313,1.755 -4.707,3.231 -7.179,4.427 -2.473,1.197 -5.065,1.795 -7.776,1.795 -3.829,0 -6.82,-1.476 -8.974,-4.427 -2.153,-2.951 -3.23,-6.58 -3.23,-10.887 0,-2.712 0.479,-5.504 1.436,-8.375 -1.755,1.435 -3.709,3.31 -5.863,5.623 -2.153,2.313 -4.546,4.586 -7.178,6.819 -2.632,2.234 -5.384,4.148 -8.255,5.743 -2.871,1.595 -5.823,2.393 -8.854,2.393 -4.148,0 -7.537,-1.635 -10.17,-4.905 -2.632,-3.27 -3.947,-7.458 -3.947,-12.563 0,-6.699 1.355,-13.359 4.067,-19.98 2.712,-6.62 6.182,-12.522 10.409,-17.707 4.227,-5.184 8.973,-9.411 14.238,-12.681 5.263,-3.271 10.448,-4.906 15.553,-4.906 3.19,0 6.141,0.599 8.853,1.795 2.712,1.196 4.945,2.991 6.7,5.384 0.16,0.319 0.479,0.877 0.957,1.674 0.479,0.799 0.798,1.197 0.957,1.197 0.957,0 1.835,-0.558 2.633,-1.675 0.797,-1.117 1.715,-2.393 2.751,-3.828 1.037,-1.436 2.154,-2.712 3.351,-3.829 1.196,-1.117 2.592,-1.675 4.187,-1.675 1.754,0 3.27,0.598 4.546,1.795 1.276,1.196 1.914,2.911 1.914,5.144 0,1.914 -0.917,4.188 -2.752,6.82 -1.834,2.632 -3.389,4.825 -4.665,6.58 -3.829,5.902 -7.299,12.244 -10.409,19.023 -3.111,6.78 -5.304,14.317 -6.58,22.612zm-34.258 -30.468c-1.754,2.991 -3.629,6.859 -5.583,11.525 -1.994,4.706 -2.991,9.412 -2.991,14.158 0,1.435 0.319,2.153 0.957,2.153 1.595,0 3.629,-0.997 6.182,-2.991 2.512,-1.954 5.144,-4.307 7.856,-7.019 2.672,-2.672 5.304,-5.464 7.817,-8.335 2.552,-2.831 4.705,-5.144 6.42,-6.899 1.436,-1.396 3.151,-3.23 5.105,-5.464 1.994,-2.233 2.991,-4.108 2.991,-5.703 0,-2.233 -0.598,-4.187 -1.795,-5.822 -1.196,-1.676 -2.313,-2.512 -3.429,-2.512 -2.872,0 -5.464,0.518 -7.857,1.555 -2.353,1.037 -4.506,2.353 -6.42,4.028 -1.915,1.675 -3.63,3.509 -5.225,5.463 -1.595,1.995 -2.951,3.948 -4.028,5.863zm116.331 -7.338c3.351,-0.479 6.262,-0.957 8.735,-1.436 2.472,-0.478 4.905,-0.877 7.298,-1.196 2.392,-0.32 4.984,-0.638 7.776,-0.957 2.792,-0.32 6.102,-0.559 9.93,-0.719 1.276,0 2.553,0.04 3.829,0.12 1.276,0.08 2.153,-0.039 2.632,-0.359 0.159,-0.159 0.439,-0.598 0.838,-1.315 0.398,-0.719 0.757,-1.556 1.076,-2.513 0.319,-0.957 0.598,-1.914 0.838,-2.871 0.239,-0.958 0.438,-1.675 0.598,-2.154 1.436,-3.988 2.991,-8.295 4.666,-12.921 1.675,-4.627 3.39,-9.293 5.144,-13.998 1.755,-4.706 3.51,-9.293 5.265,-13.759 1.755,-4.467 3.509,-8.535 5.264,-12.204 0.479,-1.116 0.997,-2.512 1.555,-4.187 0.559,-1.675 1.197,-3.31 1.915,-4.905 0.718,-1.595 1.555,-2.952 2.512,-4.068 0.957,-1.117 2.074,-1.834 3.35,-2.154 2.233,-0.478 4.267,-0.119 6.102,1.077 1.834,1.197 2.911,2.911 3.23,5.145 0.16,1.755 -0.12,3.349 -0.838,4.785 -0.718,1.436 -1.475,2.872 -2.272,4.307 -1.755,4.307 -3.63,8.934 -5.624,13.879 -1.994,4.945 -3.988,10.01 -5.982,15.194 -1.994,5.185 -3.948,10.369 -5.862,15.554 -1.915,5.184 -3.669,10.089 -5.265,14.715 -0.478,1.436 -1.077,2.952 -1.794,4.547 -0.718,1.595 -1.077,3.031 -1.077,4.307 0,1.435 0.279,2.592 0.837,3.47 0.559,0.877 0.679,1.954 0.36,3.23 -0.319,1.276 -1.038,2.472 -2.154,3.589 -0.319,0.319 -0.798,0.638 -1.435,0.957 -0.639,0.319 -1.117,0.718 -1.437,1.196 -0.637,1.117 -1.475,3.111 -2.512,5.983 -1.037,2.871 -2.073,5.902 -3.11,9.092 -1.037,3.191 -1.955,6.262 -2.752,9.213 -0.798,2.951 -1.277,5.144 -1.436,6.58 2.712,0 5.743,-1.675 9.093,-5.025 3.35,-3.35 6.7,-7.218 10.049,-11.605 3.35,-4.387 6.501,-8.774 9.452,-13.161 2.952,-4.387 5.384,-7.697 7.298,-9.93 5.265,-5.902 9.332,-7.179 12.204,-3.828 1.116,1.276 1.675,2.671 1.675,4.187 0,1.516 -0.28,2.991 -0.838,4.427 -0.558,1.435 -1.276,2.831 -2.153,4.187 -0.878,1.356 -1.635,2.513 -2.274,3.47 -1.914,2.711 -4.546,6.54 -7.896,11.485 -3.35,4.945 -7.098,9.811 -11.246,14.597 -4.148,4.785 -8.614,8.973 -13.4,12.562 -4.786,3.589 -9.651,5.384 -14.596,5.384 -3.829,0 -6.66,-0.997 -8.494,-2.991 -1.835,-1.994 -2.912,-4.547 -3.231,-7.657 -0.319,-3.111 -0.12,-6.621 0.598,-10.528 0.718,-3.909 1.675,-7.777 2.871,-11.606 1.197,-3.828 2.433,-7.418 3.71,-10.768 1.276,-3.35 2.312,-6.061 3.11,-8.135 -2.233,0.159 -5.383,0.399 -9.452,0.718 -4.067,0.318 -8.255,0.717 -12.562,1.196 -4.307,0.478 -8.295,1.037 -11.964,1.675 -3.669,0.638 -6.221,1.276 -7.657,1.914 -0.798,0.638 -1.515,2.154 -2.154,4.547 -0.637,2.392 -1.196,4.227 -1.675,5.503 -0.797,2.233 -1.794,4.905 -2.991,8.016 -1.196,3.111 -2.392,6.301 -3.589,9.571 -1.196,3.271 -2.233,6.421 -3.11,9.452 -0.878,3.031 -1.396,5.504 -1.556,7.418 -0.159,1.276 -0.199,2.472 -0.119,3.589 0.08,1.116 0.04,2.074 -0.12,2.872 -0.16,0.797 -0.518,1.554 -1.077,2.273 -0.558,0.718 -1.396,1.316 -2.512,1.794 -2.553,1.117 -4.985,0.878 -7.298,-0.718 -2.314,-1.595 -3.629,-3.509 -3.949,-5.742 -0.478,-2.872 0,-6.301 1.436,-10.29 1.436,-3.987 2.712,-7.577 3.829,-10.768 0.159,-0.637 0.718,-2.193 1.675,-4.665 0.957,-2.473 1.914,-5.065 2.871,-7.777 0.957,-2.712 1.795,-5.225 2.512,-7.537 0.718,-2.313 0.998,-3.63 0.838,-3.948 -0.319,-0.32 -1.435,-0.32 -3.35,0 -1.914,0.318 -4.028,0.797 -6.341,1.435 -2.313,0.639 -4.427,1.317 -6.341,2.034 -1.914,0.718 -3.031,1.156 -3.35,1.316 -1.116,0.638 -2.073,1.516 -2.871,2.632 -0.798,1.117 -1.835,1.835 -3.111,2.154 -1.914,0.478 -3.629,0.319 -5.144,-0.479 -1.516,-0.797 -2.672,-1.914 -3.47,-3.35 -0.798,-1.436 -1.157,-3.071 -1.077,-4.905 0.08,-1.834 0.838,-3.549 2.273,-5.145 1.436,-1.595 3.47,-2.95 6.102,-4.067 2.632,-1.117 5.504,-2.114 8.614,-2.992 3.111,-0.877 6.301,-1.635 9.571,-2.272 3.271,-0.638 6.262,-1.197 8.974,-1.676 0.797,-0.319 1.794,-0.478 2.991,-0.478 1.196,0 1.954,-0.16 2.273,-0.479 0.638,-0.478 1.316,-1.914 2.034,-4.307 0.717,-2.392 1.316,-4.227 1.794,-5.503 1.915,-5.105 4.108,-11.047 6.581,-17.826 2.472,-6.781 5.064,-13.68 7.776,-20.699 2.712,-7.019 5.384,-13.878 8.016,-20.578 2.632,-6.7 5.065,-12.602 7.298,-17.707 1.117,-2.552 2.193,-4.945 3.231,-7.179 1.036,-2.232 2.991,-3.429 5.862,-3.589 1.755,-0.159 3.51,0.399 5.264,1.675 1.755,1.276 2.712,3.111 2.872,5.504 0,1.755 -0.359,3.071 -1.077,3.948 -0.718,0.877 -1.316,1.794 -1.795,2.751 -1.276,2.394 -2.393,4.906 -3.35,7.538 -0.957,2.632 -1.993,5.304 -3.11,8.016 -1.595,3.829 -3.47,8.575 -5.623,14.237 -2.154,5.663 -4.387,11.606 -6.7,17.827 -2.313,6.221 -4.587,12.243 -6.82,18.066 -2.233,5.822 -4.068,10.728 -5.504,14.716zm107.199 -23.929c2.233,0 4.187,0.239 5.862,0.718 1.675,0.479 3.072,1.037 4.188,1.675 1.276,0.638 2.313,1.436 3.111,2.393 2.073,0 3.628,0.558 4.666,1.675 1.036,1.117 1.794,2.473 2.272,4.068 0.479,1.595 0.719,3.151 0.719,4.665 0,1.516 0,2.752 0,3.709 0,2.872 -0.32,5.744 -0.957,8.615 -0.638,2.871 -1.397,5.623 -2.273,8.255 -0.878,2.632 -1.756,5.025 -2.632,7.178 -0.878,2.154 -1.556,3.789 -2.035,4.906 0.319,0.319 0.638,0.478 0.958,0.478 0.638,0 1.475,-0.159 2.512,-0.478 1.037,-0.319 2.033,-0.638 2.991,-0.957 0.957,-0.319 1.834,-0.679 2.632,-1.077 0.797,-0.399 1.276,-0.678 1.436,-0.838 2.392,-1.116 4.626,-2.871 6.7,-5.264 2.073,-2.393 4.028,-4.785 5.862,-7.178 1.835,-2.393 3.51,-4.507 5.025,-6.341 1.515,-1.835 2.991,-2.752 4.426,-2.752 2.074,0 3.909,0.558 5.504,1.675 1.596,1.117 2.393,2.552 2.393,4.307 0,0.957 -1.037,3.191 -3.111,6.7 -2.073,3.509 -4.985,7.139 -8.734,10.888 -3.748,3.748 -8.215,7.138 -13.399,10.169 -5.185,3.031 -10.967,4.626 -17.348,4.786 -0.798,0 -1.555,-0.04 -2.273,-0.12 -0.718,-0.08 -1.317,-0.12 -1.795,-0.12 -0.957,0 -2.034,0.798 -3.23,2.393 -1.197,1.595 -2.632,3.35 -4.307,5.264 -1.675,1.915 -3.709,3.669 -6.102,5.264 -2.393,1.596 -5.264,2.393 -8.614,2.393 -7.338,0 -12.762,-2.512 -16.272,-7.537 -3.509,-5.025 -5.263,-11.127 -5.263,-18.305 0,-5.743 0.916,-11.526 2.751,-17.348 1.834,-5.823 4.387,-11.127 7.657,-15.913 3.27,-4.785 7.059,-8.813 11.366,-12.084 4.307,-3.27 8.854,-5.224 13.639,-5.862l1.675 0zm-0.718 13.64c-1.754,0 -3.19,0.398 -4.307,1.196 -1.117,0.797 -2.034,1.755 -2.752,2.871 -0.717,1.117 -1.236,2.194 -1.555,3.231 -0.319,1.037 -0.479,1.874 -0.479,2.512 0,2.712 0.28,5.304 0.838,7.777 0.558,2.472 1.316,4.626 2.273,6.461 0.957,1.834 1.954,3.31 2.992,4.426 1.036,1.117 2.033,1.675 2.99,1.675 0.479,0 1.117,-0.917 1.915,-2.752 0.797,-1.834 1.595,-4.108 2.392,-6.819 0.798,-2.712 1.556,-5.583 2.273,-8.614 0.719,-3.031 1.077,-5.823 1.077,-8.375l-0.957 0c-1.595,0 -2.712,-0.519 -3.35,-1.556 -0.638,-1.036 -1.595,-1.715 -2.871,-2.033l-0.479 0zm-14.596 49.531c0.479,0 1.196,-0.239 2.153,-0.718 0.958,-0.478 1.835,-1.077 2.632,-1.795 0.799,-0.717 1.516,-1.475 2.154,-2.273 0.638,-0.797 0.958,-1.595 0.958,-2.393 -2.394,-1.754 -5.026,-4.227 -7.897,-7.418 -2.872,-3.189 -4.786,-6.46 -5.743,-9.81 -0.638,1.595 -1.156,3.51 -1.555,5.743 -0.399,2.233 -0.598,4.466 -0.598,6.7 0,3.19 0.518,5.982 1.555,8.375 1.037,2.393 2.911,3.589 5.623,3.589l0.718 0zm102.413 -74.417c2.074,0 3.868,0.558 5.384,1.675 1.515,1.117 2.273,2.792 2.273,5.025 0,3.19 -0.877,5.025 -2.592,5.503 -1.715,0.479 -3.39,1.117 -4.945,1.915 -2.832,1.754 -5.025,4.427 -6.62,8.016 -1.556,3.589 -2.353,7.617 -2.353,12.084 0,2.711 0.279,5.423 0.837,8.135 0.558,2.712 1.196,5.464 1.914,8.255 0.718,2.792 1.356,5.544 1.915,8.255 0.558,2.713 0.837,5.504 0.837,8.375 0,3.67 -0.478,7.099 -1.435,10.29 -0.958,3.19 -2.353,6.061 -4.228,8.614 -1.834,2.552 -4.147,4.546 -6.939,5.982 -2.832,1.436 -6.062,2.153 -9.771,2.153 -4.307,0 -8.295,-1.036 -12.004,-3.07 -3.669,-2.034 -6.86,-4.666 -9.491,-7.897 -2.632,-3.23 -4.706,-6.859 -6.142,-10.927 -1.435,-4.068 -2.154,-8.016 -2.154,-11.844 0,-3.51 0.679,-7.139 2.034,-10.888 1.356,-3.748 3.112,-7.178 5.265,-10.289 2.153,-3.111 4.506,-5.663 7.058,-7.657 2.553,-1.994 5.026,-2.991 7.418,-2.991 1.755,0 3.35,0.599 4.786,1.795 1.436,1.196 2.154,2.752 2.154,4.666 0,2.711 -0.998,4.706 -2.991,5.981 -1.995,1.277 -3.63,2.473 -4.906,3.59 -1.914,1.754 -3.549,4.107 -4.905,7.059 -1.356,2.951 -2.034,6.181 -2.034,9.691 0,1.754 0.359,3.708 1.077,5.862 0.718,2.154 1.834,4.228 3.27,6.221 1.436,1.995 3.19,3.669 5.185,5.025 2.034,1.356 4.227,2.034 6.659,2.034 3.23,0 5.384,-1.116 6.54,-3.35 1.117,-2.233 1.676,-5.065 1.676,-8.415 0,-3.031 -0.279,-5.981 -0.877,-8.893 -0.599,-2.871 -1.197,-5.663 -1.875,-8.375 -0.678,-2.712 -1.276,-5.543 -1.874,-8.415 -0.599,-2.871 -0.878,-5.982 -0.878,-9.332 0,-3.709 0.479,-7.457 1.436,-11.285 0.957,-3.869 2.353,-7.378 4.187,-10.569 1.835,-3.19 4.108,-5.902 6.82,-8.056 2.712,-2.153 5.822,-3.469 9.332,-3.948l0.957 0z"/>
     <path class="fil2" d="M657.851 57.842c7.179,-0.319 14.318,-0.878 21.416,-1.675 7.099,-0.798 14.557,-1.197 22.373,-1.197 3.031,0 5.704,-0.08 8.017,-0.239 2.312,-0.159 4.187,0.399 5.622,1.675 0.958,0.797 1.635,1.835 2.034,3.111 0.399,1.276 0.479,2.552 0.239,3.829 -0.239,1.275 -0.717,2.432 -1.435,3.469 -0.718,1.037 -1.715,1.715 -2.992,2.034 -0.957,0.319 -1.913,0.359 -2.871,0.12 -0.957,-0.24 -1.994,-0.36 -3.11,-0.36 -2.712,-0.159 -6.819,-0.079 -12.323,0.24 -5.504,0.319 -11.167,0.718 -16.989,1.196 -5.823,0.479 -11.127,0.957 -15.913,1.436 -4.785,0.478 -7.896,0.798 -9.332,0.957 0,0 -0.239,0.439 -0.717,1.316 -0.479,0.877 -0.957,1.834 -1.436,2.872 -0.478,1.036 -0.957,2.114 -1.436,3.23 -0.479,1.116 -0.798,1.914 -0.957,2.392 -3.35,8.615 -6.142,16.791 -8.375,24.527 -2.233,7.737 -4.546,16.55 -6.939,26.441 -0.638,3.031 -1.356,7.019 -2.153,11.964 0,0.638 -0.081,1.555 -0.24,2.752 -0.159,1.196 -0.239,2.432 -0.239,3.709 0,1.275 0.119,2.432 0.359,3.469 0.239,1.037 0.678,1.635 1.316,1.795 0.479,0.159 1.077,0 1.795,-0.479 0.717,-0.478 1.435,-0.997 2.153,-1.555 0.718,-0.558 1.356,-1.157 1.914,-1.795 0.558,-0.638 0.918,-1.036 1.077,-1.196 3.669,-5.105 7.019,-10.21 10.05,-15.315 3.031,-5.104 6.142,-10.607 9.332,-16.51 1.117,-2.073 2.353,-4.227 3.709,-6.46 1.356,-2.234 3.39,-3.43 6.102,-3.589 2.233,-0.16 4.147,0.438 5.742,1.794 1.595,1.356 1.994,2.991 1.196,4.905 -0.478,1.436 -1.395,3.55 -2.751,6.341 -1.356,2.792 -2.991,5.903 -4.906,9.333 -1.913,3.429 -3.987,7.058 -6.221,10.887 -2.233,3.828 -4.506,7.377 -6.819,10.648 -2.313,3.27 -4.547,6.221 -6.7,8.853 -2.154,2.632 -4.108,4.427 -5.862,5.384 -3.031,1.914 -5.983,2.791 -8.854,2.632 -2.871,-0.16 -5.464,-1.037 -7.777,-2.632 -2.312,-1.595 -4.267,-3.669 -5.862,-6.221 -1.595,-2.553 -2.473,-5.345 -2.632,-8.375 -0.319,-4.148 -0.08,-8.096 0.718,-11.844 0.797,-3.749 1.595,-7.459 2.392,-11.127 2.234,-10.529 4.707,-20.299 7.418,-29.313 2.712,-9.012 5.903,-18.065 9.571,-27.158 -11.804,1.116 -23.888,1.954 -36.251,2.513 -12.363,0.558 -24.765,0.837 -37.208,0.837 -1.117,0 -2.233,0.16 -3.35,0.478 -1.117,0.32 -2.313,0.32 -3.589,0 -1.436,-0.478 -2.553,-1.315 -3.351,-2.512 -0.797,-1.197 -1.196,-2.473 -1.196,-3.828 0,-1.357 0.28,-2.632 0.838,-3.829 0.558,-1.196 1.475,-2.113 2.752,-2.752 1.116,-0.638 2.592,-1.036 4.427,-1.196 1.834,-0.16 3.748,-0.239 5.742,-0.239 1.994,0 3.988,0.04 5.982,0.119 1.994,0.08 3.789,0.12 5.384,0.12 10.05,-0.319 19.302,-0.718 27.757,-1.197 8.454,-0.478 17.547,-1.116 27.278,-1.914 1.595,-0.319 3.47,-0.478 5.623,-0.478 2.153,0 3.629,-0.24 4.427,-0.718 0.318,-0.16 0.678,-0.598 1.077,-1.317 0.398,-0.717 0.837,-1.555 1.315,-2.512 0.479,-0.957 0.918,-1.874 1.317,-2.752 0.398,-0.877 0.678,-1.555 0.837,-2.033 0.638,-1.915 1.795,-5.105 3.469,-9.572 1.676,-4.466 3.59,-9.052 5.744,-13.759 2.153,-4.705 4.386,-8.893 6.699,-12.562 2.313,-3.669 4.507,-5.663 6.581,-5.982 2.073,-0.318 3.908,0.04 5.503,1.077 1.595,1.037 2.552,2.433 2.872,4.187 0.319,2.234 -0.04,4.188 -1.077,5.863 -1.037,1.675 -1.954,3.31 -2.752,4.905 -3.031,5.584 -5.902,11.166 -8.614,16.75 -2.712,5.583 -5.025,10.927 -6.94,16.032z"/>
    </g>
   </g>
   <g>
    <path class="fil3" d="M666.462 219.145c0.713,-0.437 1.549,-0.689 2.443,-0.689l33.953 0c2.585,0 4.693,2.109 4.693,4.694l0 13.753c0,2.585 -2.108,4.693 -4.693,4.693l-5.535 0 0 46.622c0,2.585 -2.109,4.694 -4.694,4.694l-13.495 0c-1.909,0 -3.559,-1.15 -4.29,-2.793 -0.2,0.443 -0.476,0.861 -0.825,1.248 -0.923,1.019 -2.106,1.545 -3.481,1.545l-13.925 0c-1.952,0 -3.636,-1.187 -4.341,-2.904 -0.704,1.715 -2.389,2.904 -4.341,2.904l-13.581 0c-0.681,0 -1.314,-0.129 -1.892,-0.383 -0.578,0.255 -1.209,0.383 -1.89,0.383l-12.377 0c-2.585,0 -4.693,-2.109 -4.693,-4.694l0 -3.419 -1.158 4.572c-0.535,2.109 -2.373,3.541 -4.55,3.541l-5.931 0c-2.173,0 -4.009,-1.426 -4.547,-3.531l-1.246 -4.878 0 3.715c0,2.585 -2.109,4.694 -4.694,4.694l-12.291 0c-2.585,0 -4.694,-2.109 -4.694,-4.694l0 -0.361c-0.736,1.029 -1.606,1.953 -2.611,2.734 -1.288,1.001 -2.764,1.717 -4.312,2.22 -1.632,0.531 -3.349,0.825 -5.056,0.984 -1.939,0.179 -3.901,0.234 -5.848,0.234 -3.493,0 -7.543,-0.173 -10.901,-1.189 -3.221,-0.976 -5.831,-2.928 -7.565,-5.817 -0.498,-0.832 -0.984,-1.67 -1.43,-2.531 -0.658,-1.266 -1.103,-2.657 -1.432,-4.042 -0.401,-1.688 -0.617,-3.449 -0.757,-5.177 -0.189,-2.346 -0.23,-4.729 -0.23,-7.083l0 -45.04c0,-2.585 2.109,-4.694 4.694,-4.694l13.839 0c1.628,0 3.068,0.838 3.911,2.105 0.842,-1.267 2.282,-2.105 3.911,-2.105l13.409 0c0.933,0 1.803,0.276 2.536,0.747 0.732,-0.471 1.603,-0.747 2.536,-0.747l19.082 0c2.24,0 4.124,1.526 4.59,3.717l1.959 9.206 2.207 -9.312c0.508,-2.142 2.365,-3.611 4.568,-3.611l18.995 0c2.583,0 4.69,2.105 4.693,4.688l0.017 13.089 1.454 -13.583c0.256,-2.395 2.257,-4.194 4.667,-4.194l22.693 0c0.898,0 1.74,0.251 2.456,0.689zm4.112 22.451l3.867 38.508 0 -38.508 -3.867 0zm-183.905 -22.311c0.76,-0.524 1.682,-0.829 2.672,-0.829l22.693 0c2.421,0 4.427,1.817 4.67,4.225l6.533 65.069c0.136,1.368 -0.268,2.598 -1.19,3.617 -0.922,1.019 -2.106,1.545 -3.48,1.545l-13.926 0c-1.952,0 -3.636,-1.187 -4.34,-2.904 -0.705,1.715 -2.389,2.904 -4.341,2.904l-13.582 0c-1.38,0 -2.568,-0.53 -3.49,-1.556 -0.345,-0.384 -0.617,-0.798 -0.815,-1.237 -0.731,1.643 -2.381,2.793 -4.29,2.793l-13.495 0c-2.585,0 -4.694,-2.109 -4.694,-4.694l0 -46.622 -4.281 0 0 26.594c0,0.036 0,0.066 0,0.101 -0.051,2.347 -0.139,4.718 -0.365,7.056 -0.161,1.67 -0.375,3.36 -0.727,5.001 -0.283,1.319 -0.654,2.654 -1.203,3.889 -0.436,0.982 -0.938,1.933 -1.504,2.846 -0.834,1.344 -1.876,2.536 -3.127,3.508 -1.288,1.001 -2.763,1.717 -4.312,2.22 -1.632,0.531 -3.348,0.825 -5.055,0.984 -1.94,0.179 -3.901,0.234 -5.849,0.234 -3.493,0 -7.543,-0.173 -10.901,-1.189 -3.221,-0.976 -5.83,-2.928 -7.564,-5.817 -0.499,-0.832 -0.985,-1.67 -1.431,-2.531 -0.081,-0.155 -0.159,-0.314 -0.234,-0.473 -0.336,0.843 -0.73,1.645 -1.183,2.369 -0.815,1.384 -1.832,2.628 -3.053,3.675 -1.299,1.113 -2.804,1.933 -4.407,2.52 -1.708,0.625 -3.528,0.972 -5.333,1.163 -2.029,0.213 -4.083,0.283 -6.122,0.283 -3.414,0 -7.099,-0.312 -10.328,-1.485 -2.052,-0.746 -3.909,-1.824 -5.47,-3.274 -0.48,2.082 -2.35,3.642 -4.574,3.642l-28.71 0c-2.584,0 -4.693,-2.109 -4.693,-4.694l0 -0.172c-1.971,2.365 -4.566,3.921 -7.502,4.798 -3.053,0.913 -6.376,1.185 -9.552,1.185 -5.079,0 -10.734,-0.803 -14.809,-4.092 -4.324,-3.489 -5.528,-9.058 -5.528,-14.354 0,-1.756 0.045,-3.513 0.135,-5.267 0.086,-1.693 0.268,-3.463 0.724,-5.1 0.571,-2.061 2.382,-3.438 4.522,-3.438l4.152 0c-0.164,-0.088 -0.328,-0.177 -0.491,-0.267 -1.394,-0.77 -2.692,-1.697 -3.735,-2.675 -2.771,-2.412 -4.291,-5.642 -4.791,-9.258 -0.503,-3.642 -0.602,-7.454 -0.602,-11.128 0,-2.905 0.192,-5.922 0.852,-8.758 0.626,-2.683 1.784,-5.182 3.676,-7.209 1.92,-2.057 4.383,-3.366 7.075,-4.114 2.927,-0.812 6.137,-1.03 9.164,-1.03 2.786,0 5.69,0.178 8.41,0.809 2.552,0.592 4.937,1.676 6.909,3.423 0.507,0.45 0.971,0.931 1.393,1.44 0.074,-2.521 2.153,-4.555 4.691,-4.555l28.796 0c2.585,0 4.693,2.109 4.693,4.694l0 13.753c0,2.585 -2.108,4.693 -4.693,4.693l-10.607 0 0 2.045 10.349 0c2.585,0 4.693,2.108 4.693,4.693l0 10.264 11.381 0c1.615,0 3.044,0.822 3.889,2.07 0.012,-1.876 0.014,-3.753 0.014,-5.629l0 -31.889c0,-2.585 2.108,-4.694 4.693,-4.694l13.839 0c0.843,0 1.636,0.225 2.321,0.617 0.685,-0.392 1.478,-0.617 2.321,-0.617l13.839 0c1.629,0 3.069,0.838 3.911,2.105 0.842,-1.267 2.282,-2.105 3.911,-2.105l13.409 0c0.606,0 1.186,0.116 1.719,0.327 0.533,-0.211 1.113,-0.327 1.72,-0.327l33.953 0c0.985,0 1.901,0.306 2.657,0.829zm-4.021 22.311l-4.172 0 0 38.982 4.172 -38.982zm-115.095 24.583l-9.503 0 0 2.906 9.438 0c0.001,-0.97 0.023,-1.938 0.065,-2.906zm-32.385 -14.921l0 -3.509c-0.518,0.192 -1.081,0.294 -1.668,0.294l-2.347 0c0.366,0.218 0.726,0.447 1.081,0.683 0.077,0.051 0.141,0.097 0.215,0.152 0.965,0.724 1.878,1.517 2.719,2.38zm-88.003 -27.82c1.669,-2.213 3.905,-3.808 6.595,-4.729 3.363,-1.15 7.443,-1.37 10.975,-1.37 4.205,0 9.085,0.419 12.883,2.364 3.673,1.88 6.088,5.036 7.386,8.924 0.01,0.034 0.02,0.064 0.03,0.099 1.065,3.442 1.328,7.341 1.328,10.927 0,0.617 0,1.232 0,1.849 0,0.655 -0.044,1.314 -0.11,1.966 -0.11,1.125 -0.608,2.123 -1.354,2.866 0.993,0.812 1.648,2.025 1.715,3.401 0.086,1.714 0.112,3.44 0.135,5.156 0.035,2.628 0.043,5.257 0.043,7.884 0,3.024 -0.03,6.063 -0.178,9.082 -0.103,2.124 -0.266,4.29 -0.616,6.389 -0.263,1.575 -0.62,3.192 -1.192,4.687 -0.463,1.21 -1.025,2.379 -1.614,3.354 -0.803,1.444 -1.817,2.753 -3.077,3.828 -1.264,1.076 -2.727,1.873 -4.276,2.455 -1.657,0.621 -3.415,0.978 -5.17,1.173 -1.964,0.218 -3.958,0.286 -5.933,0.286 -3.556,0 -7.718,-0.224 -11.088,-1.438 -2.662,-0.957 -4.844,-2.593 -6.482,-4.808l0 0.435c0,2.585 -2.109,4.694 -4.693,4.694l-7.049 0c-1.901,0 -3.527,-1.06 -4.294,-2.8l-6.915 -15.683 0 13.789c0,2.585 -2.108,4.694 -4.693,4.694l-12.292 0c-1.123,0 -2.156,-0.398 -2.966,-1.06 -0.809,0.662 -1.841,1.06 -2.965,1.06l-13.839 0c-2.585,0 -4.693,-2.109 -4.693,-4.694l0 -46.622 -5.054 0 0 46.622c0,2.585 -2.109,4.694 -4.694,4.694l-13.495 0c-2.585,0 -4.693,-2.109 -4.693,-4.694l0 -46.622 -4.057 0c-0.132,1.133 -0.371,2.254 -0.754,3.33 -0.68,1.904 -2.4,3.117 -4.421,3.117l-2.348 0c0.367,0.218 0.727,0.447 1.082,0.683 0.076,0.051 0.141,0.097 0.215,0.152 1.103,0.828 2.138,1.745 3.076,2.757 1.238,1.336 2.109,2.939 2.707,4.652 0.617,1.768 0.978,3.656 1.213,5.511 0.306,2.415 0.381,4.904 0.381,7.338 0,3.527 -0.187,7.225 -0.918,10.683 -0.629,2.98 -1.77,5.864 -3.737,8.223 -1.971,2.367 -4.568,3.924 -7.505,4.802 -3.053,0.913 -6.377,1.185 -9.553,1.185 -5.079,0 -10.734,-0.803 -14.809,-4.092 -1.393,-1.124 -2.461,-2.463 -3.271,-3.94 -0.055,0.098 -0.111,0.194 -0.166,0.29 -0.803,1.444 -1.818,2.753 -3.078,3.828 -1.263,1.076 -2.726,1.873 -4.276,2.455 -1.656,0.621 -3.414,0.978 -5.17,1.173 -1.964,0.218 -3.958,0.286 -5.933,0.286 -3.557,0 -7.719,-0.224 -11.088,-1.438 -2.662,-0.957 -4.845,-2.593 -6.482,-4.808l0 0.435c0,2.585 -2.108,4.694 -4.693,4.694l-13.839 0c-1.844,0 -3.445,-1.073 -4.212,-2.626 -0.767,1.553 -2.369,2.626 -4.212,2.626l-13.839 0c-2.585,0 -4.694,-2.109 -4.694,-4.694l0 -65.068c0,-2.585 2.109,-4.694 4.694,-4.694l13.839 0c1.843,0 3.445,1.073 4.212,2.626 0.767,-1.553 2.368,-2.626 4.212,-2.626l13.839 0c2.585,0 4.693,2.109 4.693,4.694l0 0.443c0.598,-0.81 1.274,-1.559 2.031,-2.232 1.272,-1.131 2.759,-1.966 4.349,-2.563 1.672,-0.626 3.452,-0.98 5.223,-1.174 1.976,-0.215 3.979,-0.285 5.967,-0.285 3.559,0 7.693,0.245 11.054,1.5 3.141,1.173 5.645,3.252 7.346,6.142 0.02,0.037 0.038,0.066 0.058,0.103 0.075,0.134 0.148,0.269 0.219,0.404 0.574,-1.08 1.278,-2.09 2.131,-3.005 1.921,-2.057 4.383,-3.366 7.075,-4.114 2.927,-0.812 6.138,-1.03 9.164,-1.03 2.786,0 5.69,0.178 8.41,0.809 2.244,0.521 4.358,1.421 6.177,2.818 0.788,-1.49 2.355,-2.51 4.152,-2.51l33.953 0c0.756,0 1.473,0.181 2.106,0.502 0.633,-0.321 1.35,-0.502 2.106,-0.502l13.839 0c1.124,0 2.156,0.398 2.965,1.06 0.81,-0.662 1.843,-1.06 2.966,-1.06l13.238 0c1.954,0 3.622,1.126 4.353,2.939l0.589 1.464c0.151,-2.451 2.197,-4.403 4.685,-4.403l12.378 0c2.584,0 4.693,2.109 4.693,4.694l0 0.288zm-131.437 35.886c-0.005,0.818 -0.012,1.636 -0.021,2.454l3.701 0c-0.165,-0.088 -0.329,-0.177 -0.491,-0.267 -1.161,-0.642 -2.254,-1.39 -3.189,-2.187zm149.377 8.402l-0.109 0c0.013,0.355 0.027,0.709 0.043,1.063 0.009,0.177 0.016,0.36 0.025,0.545 0.003,-0.081 0.006,-0.163 0.009,-0.244 0.017,-0.453 0.027,-0.908 0.032,-1.364z"/>
   </g>
   <path class="fil4" d="M57.406 288.218l0 -26.732 -8.424 0 0 26.732 -13.839 0 0 -65.068 13.839 0 0 25.184 8.424 0 0 -25.184 13.839 0 0 65.068 -13.839 0zm50.457 -4.212c-0.574,1.032 -1.247,1.877 -2.021,2.536 -0.773,0.66 -1.733,1.204 -2.879,1.634 -1.147,0.429 -2.493,0.73 -4.04,0.902 -1.547,0.172 -3.353,0.258 -5.415,0.258 -4.184,0 -7.35,-0.387 -9.499,-1.16 -2.148,-0.774 -3.796,-2.164 -4.942,-4.17 -0.574,-0.973 -1.06,-2.048 -1.461,-3.223 -0.402,-1.175 -0.731,-2.765 -0.989,-4.771 -0.258,-2.005 -0.444,-4.626 -0.559,-7.864 -0.114,-3.238 -0.172,-7.407 -0.172,-12.507 0,-5.1 0.058,-9.254 0.172,-12.463 0.115,-3.21 0.301,-5.817 0.559,-7.822 0.258,-2.007 0.587,-3.582 0.989,-4.728 0.401,-1.147 0.887,-2.235 1.461,-3.266 0.573,-0.975 1.246,-1.805 2.02,-2.493 0.774,-0.688 1.734,-1.246 2.88,-1.677 1.145,-0.429 2.507,-0.73 4.082,-0.902 1.576,-0.172 3.396,-0.258 5.459,-0.258 4.126,0 7.263,0.401 9.412,1.204 2.149,0.802 3.796,2.177 4.943,4.126 0.572,1.031 1.059,2.119 1.461,3.266 0.4,1.146 0.73,2.721 0.989,4.728 0.257,2.005 0.443,4.612 0.558,7.822 0.114,3.209 0.172,7.363 0.172,12.463 0,5.1 -0.058,9.269 -0.172,12.507 -0.115,3.238 -0.301,5.859 -0.558,7.864 -0.259,2.006 -0.589,3.596 -0.989,4.771 -0.402,1.175 -0.889,2.25 -1.461,3.223zm-11.003 -10.744c0.114,-0.401 0.229,-0.916 0.344,-1.547 0.114,-0.63 0.2,-1.576 0.258,-2.837 0.056,-1.26 0.1,-2.966 0.129,-5.114 0.028,-2.149 0.043,-4.971 0.043,-8.467 0,-3.61 -0.015,-6.504 -0.043,-8.682 -0.029,-2.177 -0.073,-3.91 -0.129,-5.2 -0.058,-1.289 -0.144,-2.249 -0.258,-2.879 -0.115,-0.631 -0.23,-1.147 -0.344,-1.547 -0.229,-0.573 -0.573,-0.989 -1.031,-1.247 -0.46,-0.257 -1.233,-0.386 -2.321,-0.386 -1.089,0 -1.878,0.129 -2.364,0.386 -0.488,0.258 -0.817,0.674 -0.989,1.247 -0.171,0.4 -0.301,0.916 -0.386,1.547 -0.086,0.63 -0.172,1.59 -0.258,2.879 -0.086,1.29 -0.144,3.023 -0.172,5.2 -0.029,2.178 -0.043,5.072 -0.043,8.682 0,3.496 0.014,6.318 0.043,8.467 0.028,2.148 0.086,3.854 0.172,5.114 0.086,1.261 0.172,2.207 0.258,2.837 0.085,0.631 0.215,1.146 0.386,1.547 0.172,0.573 0.501,0.974 0.989,1.203 0.486,0.23 1.275,0.344 2.364,0.344 1.088,0 1.861,-0.114 2.321,-0.344 0.458,-0.229 0.802,-0.63 1.031,-1.203zm37.563 -29.912c0.057,-0.459 0.086,-0.846 0.086,-1.161 0,-0.315 0,-0.874 0,-1.676 0,-2.006 -0.244,-3.395 -0.73,-4.169 -0.488,-0.774 -1.562,-1.16 -3.224,-1.16 -1.662,0 -2.722,0.386 -3.18,1.16 -0.458,0.774 -0.688,2.163 -0.688,4.169 0,1.891 0.243,3.223 0.731,3.997 0.486,0.773 1.275,1.475 2.364,2.105 1.26,0.745 2.449,1.375 3.567,1.891 1.117,0.516 2.149,0.989 3.094,1.419 0.946,0.429 1.849,0.846 2.708,1.246 0.859,0.401 1.719,0.889 2.579,1.461 0.916,0.688 1.733,1.418 2.45,2.192 0.716,0.774 1.289,1.777 1.719,3.009 0.429,1.232 0.759,2.75 0.988,4.555 0.229,1.805 0.344,4.055 0.344,6.748 0,3.897 -0.273,7.135 -0.816,9.713 -0.545,2.579 -1.462,4.642 -2.751,6.189 -1.289,1.547 -3.038,2.65 -5.244,3.309 -2.206,0.66 -4.942,0.989 -8.209,0.989 -5.387,0 -9.34,-1.017 -11.862,-3.052 -2.521,-2.034 -3.782,-5.601 -3.782,-10.701 0,-1.662 0.043,-3.338 0.129,-5.029 0.086,-1.69 0.273,-3.051 0.559,-4.083l11.26 0c-0.114,0.344 -0.172,0.717 -0.172,1.118 0,0.401 0,0.831 0,1.289 0,2.522 0.258,4.255 0.774,5.2 0.516,0.946 1.633,1.419 3.352,1.419 1.719,0 2.851,-0.415 3.396,-1.247 0.544,-0.83 0.816,-2.621 0.816,-5.372 0,-1.661 -0.258,-2.923 -0.773,-3.782 -0.516,-0.859 -1.347,-1.69 -2.493,-2.493 -1.032,-0.687 -2.135,-1.317 -3.31,-1.891 -1.175,-0.572 -2.349,-1.117 -3.524,-1.633 -1.175,-0.516 -2.306,-1.074 -3.395,-1.676 -1.089,-0.602 -2.063,-1.303 -2.922,-2.106 -1.777,-1.547 -2.852,-3.667 -3.224,-6.361 -0.372,-2.693 -0.559,-6.188 -0.559,-10.486 0,-3.038 0.243,-5.602 0.731,-7.693 0.487,-2.092 1.332,-3.782 2.536,-5.072 1.203,-1.289 2.836,-2.221 4.899,-2.793 2.063,-0.574 4.699,-0.86 7.908,-0.86 2.923,0 5.372,0.229 7.35,0.688 1.977,0.458 3.595,1.246 4.856,2.364 1.26,1.117 2.163,2.592 2.708,4.426 0.544,1.834 0.817,4.126 0.817,6.877 0,1.776 -0.043,3.181 -0.13,4.212 -0.085,1.031 -0.272,1.948 -0.558,2.751l-11.175 0zm25.1 44.868l0 -51.315 -10.229 0 0 -13.753 33.953 0 0 13.753 -10.229 0 0 51.315 -13.495 0zm27.936 0l0 -65.068 13.839 0 0 65.068 -13.839 0zm47.964 0l-15.386 -34.898 -0.516 0 0 34.898 -12.292 0 0 -65.068 13.238 0 9.111 22.605 0.516 0 0 -22.605 12.378 0 0 65.068 -7.049 0zm34.383 -25.185l-6.275 0 0 -13.066 18.395 0c0.057,1.147 0.1,2.809 0.129,4.986 0.028,2.178 0.043,4.785 0.043,7.822 0,3.554 -0.058,6.505 -0.172,8.854 -0.115,2.349 -0.301,4.298 -0.559,5.845 -0.258,1.547 -0.573,2.808 -0.945,3.782 -0.373,0.974 -0.817,1.891 -1.333,2.75 -0.573,1.032 -1.246,1.877 -2.019,2.536 -0.774,0.66 -1.734,1.204 -2.88,1.634 -1.147,0.429 -2.493,0.73 -4.04,0.902 -1.547,0.172 -3.352,0.258 -5.415,0.258 -4.184,0 -7.35,-0.387 -9.499,-1.16 -2.149,-0.774 -3.797,-2.164 -4.942,-4.17 -0.573,-0.973 -1.06,-2.048 -1.462,-3.223 -0.401,-1.175 -0.73,-2.794 -0.988,-4.856 -0.258,-2.063 -0.444,-4.728 -0.559,-7.994 -0.114,-3.267 -0.172,-7.535 -0.172,-12.808 0,-5.042 0.058,-9.14 0.172,-12.291 0.115,-3.152 0.301,-5.731 0.559,-7.736 0.258,-2.007 0.587,-3.582 0.988,-4.728 0.402,-1.147 0.889,-2.206 1.462,-3.18 1.145,-1.949 2.808,-3.296 4.985,-4.04 2.177,-0.746 5.33,-1.118 9.456,-1.118 4.755,0 8.337,0.616 10.744,1.848 2.407,1.232 4.097,3.31 5.072,6.232 0.744,2.407 1.117,5.587 1.117,9.541 0,0.802 0,1.419 0,1.849 0,0.429 -0.029,0.931 -0.086,1.504l-12.55 0c0.057,-0.172 0.087,-0.359 0.087,-0.559 0,-0.201 0,-0.387 0,-0.559 0,-1.433 -0.058,-2.492 -0.172,-3.18 -0.116,-0.688 -0.23,-1.261 -0.344,-1.719 -0.23,-1.089 -1.548,-1.633 -3.954,-1.633 -1.147,0 -1.992,0.129 -2.536,0.386 -0.545,0.258 -0.932,0.674 -1.16,1.247 -0.116,0.458 -0.23,0.988 -0.344,1.59 -0.116,0.602 -0.201,1.518 -0.258,2.751 -0.058,1.231 -0.101,2.936 -0.129,5.113 -0.03,2.178 -0.043,5.015 -0.043,8.51 0,3.725 0.013,6.691 0.043,8.897 0.028,2.206 0.071,3.925 0.129,5.157 0.057,1.233 0.129,2.121 0.215,2.665 0.086,0.545 0.185,1.017 0.301,1.418 0.458,1.261 1.833,1.891 4.125,1.891 1.146,0 1.991,-0.129 2.536,-0.387 0.544,-0.258 0.989,-0.673 1.332,-1.246 0.172,-0.286 0.33,-0.587 0.473,-0.903 0.143,-0.314 0.244,-0.73 0.301,-1.246 0.057,-0.516 0.1,-1.16 0.129,-1.934 0.028,-0.774 0.043,-1.819 0.043,-3.138l0 -3.094zm52.52 -19.683c0.057,-0.459 0.086,-0.846 0.086,-1.161 0,-0.315 0,-0.874 0,-1.676 0,-2.006 -0.244,-3.395 -0.73,-4.169 -0.488,-0.774 -1.563,-1.16 -3.224,-1.16 -1.662,0 -2.722,0.386 -3.181,1.16 -0.458,0.774 -0.687,2.163 -0.687,4.169 0,1.891 0.243,3.223 0.731,3.997 0.486,0.773 1.274,1.475 2.363,2.105 1.26,0.745 2.45,1.375 3.567,1.891 1.118,0.516 2.149,0.989 3.095,1.419 0.946,0.429 1.848,0.846 2.708,1.246 0.859,0.401 1.719,0.889 2.579,1.461 0.916,0.688 1.732,1.418 2.449,2.192 0.716,0.774 1.29,1.777 1.719,3.009 0.43,1.232 0.759,2.75 0.989,4.555 0.228,1.805 0.344,4.055 0.344,6.748 0,3.897 -0.273,7.135 -0.817,9.713 -0.545,2.579 -1.461,4.642 -2.751,6.189 -1.289,1.547 -3.037,2.65 -5.243,3.309 -2.206,0.66 -4.942,0.989 -8.209,0.989 -5.387,0 -9.341,-1.017 -11.862,-3.052 -2.521,-2.034 -3.782,-5.601 -3.782,-10.701 0,-1.662 0.043,-3.338 0.129,-5.029 0.086,-1.69 0.272,-3.051 0.559,-4.083l11.26 0c-0.114,0.344 -0.172,0.717 -0.172,1.118 0,0.401 0,0.831 0,1.289 0,2.522 0.258,4.255 0.774,5.2 0.515,0.946 1.633,1.419 3.352,1.419 1.719,0 2.85,-0.415 3.395,-1.247 0.545,-0.83 0.817,-2.621 0.817,-5.372 0,-1.661 -0.258,-2.923 -0.774,-3.782 -0.516,-0.859 -1.347,-1.69 -2.493,-2.493 -1.031,-0.687 -2.135,-1.317 -3.309,-1.891 -1.175,-0.572 -2.349,-1.117 -3.524,-1.633 -1.175,-0.516 -2.306,-1.074 -3.395,-1.676 -1.089,-0.602 -2.063,-1.303 -2.923,-2.106 -1.777,-1.547 -2.851,-3.667 -3.223,-6.361 -0.373,-2.693 -0.559,-6.188 -0.559,-10.486 0,-3.038 0.243,-5.602 0.731,-7.693 0.487,-2.092 1.332,-3.782 2.535,-5.072 1.204,-1.289 2.837,-2.221 4.9,-2.793 2.063,-0.574 4.698,-0.86 7.908,-0.86 2.923,0 5.372,0.229 7.349,0.688 1.977,0.458 3.596,1.246 4.857,2.364 1.26,1.117 2.163,2.592 2.708,4.426 0.544,1.834 0.816,4.126 0.816,6.877 0,1.776 -0.043,3.181 -0.129,4.212 -0.086,1.031 -0.272,1.948 -0.559,2.751l-11.174 0zm17.535 44.868l0 -65.068 28.796 0 0 13.753 -15.3 0 0 11.431 15.042 0 0 13.152 -15.042 0 0 12.292 15.214 0 0 14.44 -28.71 0zm53.208 -65.068l13.839 0 0 31.545c0,4.929 -0.058,9.055 -0.172,12.378 -0.115,3.324 -0.301,6.089 -0.559,8.295 -0.257,2.207 -0.573,3.969 -0.945,5.286 -0.373,1.318 -0.846,2.436 -1.418,3.352 -0.574,0.974 -1.261,1.806 -2.063,2.493 -0.803,0.688 -1.792,1.247 -2.966,1.677 -1.175,0.429 -2.578,0.73 -4.212,0.902 -1.633,0.172 -3.51,0.258 -5.63,0.258 -3.61,0 -6.518,-0.401 -8.725,-1.203 -2.206,-0.802 -3.911,-2.035 -5.114,-3.697 -1.203,-1.661 -1.992,-3.767 -2.364,-6.318 -0.372,-2.55 -0.559,-5.544 -0.559,-8.982 0,-1.833 0.086,-3.782 0.258,-5.845l12.034 0c0,1.319 0.015,2.479 0.043,3.481 0.028,1.003 0.072,1.891 0.129,2.665 0.058,0.773 0.144,1.476 0.258,2.106 0.114,0.631 0.258,1.232 0.43,1.805 0.4,0.974 1.432,1.461 3.094,1.461 1.318,0 2.235,-0.114 2.751,-0.344 0.516,-0.229 0.888,-0.63 1.117,-1.203 0.115,-0.458 0.229,-1.002 0.344,-1.633 0.115,-0.63 0.2,-1.576 0.258,-2.837 0.057,-1.26 0.1,-2.965 0.129,-5.114 0.028,-2.149 0.043,-5.029 0.043,-8.639l0 -31.889zm40.142 0l13.409 0 0 45.04c-0.057,2.694 -0.172,4.929 -0.344,6.705 -0.171,1.777 -0.386,3.266 -0.644,4.47 -0.258,1.203 -0.559,2.192 -0.903,2.965 -0.343,0.774 -0.745,1.533 -1.203,2.278 -0.574,0.917 -1.246,1.676 -2.02,2.278 -0.774,0.602 -1.734,1.089 -2.88,1.461 -1.146,0.373 -2.493,0.63 -4.04,0.774 -1.547,0.144 -3.352,0.215 -5.415,0.215 -4.183,0 -7.364,-0.329 -9.541,-0.989 -2.178,-0.659 -3.811,-1.905 -4.9,-3.739 -0.458,-0.745 -0.888,-1.504 -1.289,-2.278 -0.402,-0.773 -0.746,-1.762 -1.032,-2.965 -0.286,-1.204 -0.501,-2.693 -0.644,-4.47 -0.144,-1.776 -0.215,-4.011 -0.215,-6.705l0 -45.04 13.839 0 0 45.04c0,1.548 0.043,2.751 0.129,3.611 0.086,0.859 0.272,1.519 0.558,1.977 0.287,0.458 0.688,0.745 1.204,0.859 0.516,0.115 1.203,0.172 2.063,0.172 0.86,0 1.533,-0.057 2.02,-0.172 0.486,-0.114 0.873,-0.401 1.16,-0.859 0.287,-0.458 0.473,-1.118 0.559,-1.977 0.086,-0.86 0.129,-2.063 0.129,-3.611l0 -45.04zm27.077 65.068l0 -51.315 -10.229 0 0 -13.753 33.953 0 0 13.753 -10.229 0 0 51.315 -13.495 0zm44.353 0l-1.117 -15.042 -6.533 0 -1.031 15.042 -13.582 0 6.963 -65.068 22.693 0 6.533 65.068 -13.926 0zm-3.953 -51.487l-0.946 0 -2.149 23.294 5.329 0 -2.234 -23.294zm59.912 -13.581l13.409 0 0 45.04c-0.058,2.694 -0.172,4.929 -0.344,6.705 -0.172,1.777 -0.387,3.266 -0.645,4.47 -0.257,1.203 -0.558,2.192 -0.902,2.965 -0.344,0.774 -0.745,1.533 -1.203,2.278 -0.574,0.917 -1.247,1.676 -2.02,2.278 -0.774,0.602 -1.734,1.089 -2.88,1.461 -1.147,0.373 -2.493,0.63 -4.04,0.774 -1.547,0.144 -3.352,0.215 -5.415,0.215 -4.184,0 -7.364,-0.329 -9.542,-0.989 -2.177,-0.659 -3.81,-1.905 -4.899,-3.739 -0.458,-0.745 -0.888,-1.504 -1.289,-2.278 -0.402,-0.773 -0.746,-1.762 -1.032,-2.965 -0.286,-1.204 -0.501,-2.693 -0.645,-4.47 -0.143,-1.776 -0.214,-4.011 -0.214,-6.705l0 -45.04 13.839 0 0 45.04c0,1.548 0.042,2.751 0.129,3.611 0.085,0.859 0.271,1.519 0.558,1.977 0.286,0.458 0.688,0.745 1.204,0.859 0.516,0.115 1.203,0.172 2.062,0.172 0.86,0 1.533,-0.057 2.021,-0.172 0.486,-0.114 0.873,-0.401 1.16,-0.859 0.286,-0.458 0.473,-1.118 0.559,-1.977 0.086,-0.86 0.129,-2.063 0.129,-3.611l0 -45.04zm57.591 65.068l0 -39.024 -0.515 0 -9.886 39.024 -5.931 0 -9.971 -39.024 -0.516 0 0 39.024 -12.291 0 0 -65.068 19.082 0 6.017 28.279 0.602 0 6.705 -28.279 18.995 0 0.086 65.068 -12.377 0zm38.422 0l-1.117 -15.042 -6.533 0 -1.032 15.042 -13.581 0 6.963 -65.068 22.693 0 6.532 65.068 -13.925 0zm-3.954 -51.487l-0.945 0 -2.15 23.294 5.33 0 -2.235 -23.294zm26.475 51.487l0 -51.315 -10.229 0 0 -13.753 33.953 0 0 13.753 -10.229 0 0 51.315 -13.495 0z"/>
  </g>
 </g>
</svg>
