<?xml version="1.0" encoding="UTF-8"?>
<svg xmlns="http://www.w3.org/2000/svg" xmlns:xlink="http://www.w3.org/1999/xlink" width="1248px" height="1266px" viewBox="0 0 624 633" version="1.1">
<g id="surface1">
<path style=" stroke:none;fill-rule:evenodd;fill:rgb(87.843137%,92.54902%,97.254902%);fill-opacity:1;" d="M 323.464844 384.421875 L 345.636719 412.382812 C 348.8125 416.164062 347.707031 421.882812 347.707031 428.035156 L 347.707031 632.78125 L 272.476562 632.78125 L 249.132812 561.664062 C 240.746094 538.738281 233.265625 514.050781 223.152344 492.847656 C 220.457031 487.191406 217.953125 481.546875 214.640625 477.421875 C 202.214844 461.949219 164.402344 437.867188 146.636719 427.421875 C 141.859375 424.613281 136.542969 421.257812 131.539062 418.5 C 128.46875 416.808594 118.679688 411.824219 116.761719 409.878906 L 188.574219 362.597656 C 193.539062 359.421875 197.90625 356.390625 202.644531 353.328125 C 205.074219 351.761719 229.835938 336.558594 230.441406 334.039062 L 231.386719 333.894531 C 231.734375 337.457031 253.886719 359.785156 257.082031 362.960938 C 258.691406 364.5625 260.027344 366.105469 261.453125 367.894531 L 299.296875 408.75 C 300.566406 409.730469 298.804688 408.683594 300.667969 409.625 C 304.066406 407.023438 317.242188 392.953125 321.03125 387.726562 C 321.972656 386.429688 321.890625 385.738281 323.464844 384.421875 Z M 323.464844 384.421875 "/>
<path style=" stroke:none;fill-rule:evenodd;fill:rgb(87.843137%,92.54902%,97.254902%);fill-opacity:1;" d="M 517.628906 404.570312 L 516.460938 409.867188 C 515.183594 424.414062 502.953125 475.980469 499.761719 489.148438 C 495.886719 505.136719 494.597656 516.988281 492.996094 533.710938 C 492.234375 541.675781 488.40625 576.371094 489.613281 581.5 C 487.683594 584.296875 487.394531 601.753906 487.046875 606.648438 C 486.429688 615.328125 485.546875 623.996094 485.074219 632.785156 L 398.816406 632.785156 L 374.886719 434.515625 C 374.203125 428.953125 373.535156 423.402344 372.863281 417.839844 C 371.730469 408.453125 372.023438 411.039062 375.296875 403.328125 C 376.917969 399.507812 385.453125 379.773438 386.957031 378.011719 C 387.804688 377.132812 388.242188 378.339844 387.574219 376.976562 C 389.007812 379.792969 395.199219 384.445312 398.589844 386.78125 C 403.507812 390.167969 406.992188 391.175781 412.105469 393.808594 L 393.199219 341.226562 C 404.433594 345.484375 472.4375 379.480469 488.136719 387.234375 C 493.984375 390.125 515.316406 399.855469 517.628906 404.570312 Z M 517.628906 404.570312 "/>
<path style=" stroke:none;fill-rule:evenodd;fill:rgb(98.039216%,75.686275%,69.019608%);fill-opacity:1;" d="M 386.957031 250.414062 C 373.226562 249.585938 359.8125 249.054688 346.34375 246.332031 C 342.121094 245.476562 338.316406 243.929688 334.746094 243.335938 C 333.832031 258.816406 344.730469 268.507812 358.214844 270.265625 C 379.867188 273.09375 388.144531 256.507812 386.960938 250.414062 Z M 375.691406 226.917969 C 380 228.152344 387.035156 224.367188 389.65625 222.265625 C 398.507812 215.164062 387.308594 205.003906 383.550781 196.40625 C 381.804688 192.40625 379.851562 186.3125 378.011719 183.183594 C 376.019531 199.886719 388.296875 213.726562 383.941406 220.542969 C 382.59375 222.648438 378.976562 225.847656 375.691406 226.917969 Z M 401.359375 171.011719 C 395.890625 168.554688 391.988281 173.882812 391.160156 178.332031 C 390.125 183.84375 392.460938 189.082031 396.015625 190.605469 C 406.496094 195.09375 411.421875 175.535156 401.359375 171.011719 Z M 348.148438 178.832031 C 349.910156 170.582031 339.277344 164.980469 330.648438 163.929688 C 320.792969 162.734375 311.003906 169.394531 308.71875 174.730469 C 307.015625 178.703125 310.878906 182.316406 315.714844 176.996094 C 324.21875 167.636719 335.417969 169.519531 341.03125 176.230469 C 343.140625 178.746094 343.085938 180.980469 348.148438 178.832031 Z M 416.804688 145.570312 C 414.816406 144.433594 414.730469 143.683594 412.785156 142.460938 C 408.417969 139.71875 401.757812 138.632812 396.6875 138.339844 C 385.429688 137.691406 381.417969 139.199219 380.632812 150.167969 C 399.484375 147.695312 399 145.105469 415.335938 151.1875 C 416.542969 149.402344 416.789062 148.109375 416.804688 145.570312 Z M 344 130.597656 C 336.367188 128.113281 323.484375 131.996094 317.203125 135.109375 C 303.480469 141.914062 301.933594 146.269531 298.695312 148.324219 C 299.019531 151.238281 299.320312 152.046875 300.996094 154.28125 C 315.503906 145.769531 322.957031 137.984375 345.125 139.683594 C 345.238281 136.722656 345.214844 133.015625 344 130.601562 Z M 423.085938 113.34375 C 430.46875 175.183594 417.902344 166.230469 418.285156 186.648438 C 418.34375 189.910156 418.4375 190.054688 419.335938 191.183594 C 418.570312 195.496094 420.949219 206.046875 420.933594 211.949219 C 420.894531 232.023438 400.625 274.191406 391.425781 292.722656 C 377.867188 320.035156 378.191406 311.546875 372.078125 316.84375 C 362.652344 316.257812 351.617188 320.953125 337.265625 312.71875 C 322.964844 304.511719 302.804688 288.082031 289.609375 277.707031 C 286.210938 275.035156 269.332031 261.148438 267.683594 258.332031 C 268.6875 262.890625 290.476562 305.582031 294.363281 314.464844 C 289.160156 311.378906 283.003906 303.917969 279.503906 300.476562 L 268.269531 290.394531 C 266.164062 288.324219 262.578125 283.125 259.273438 283.019531 L 261.398438 217.855469 C 253.195312 221.6875 245.851562 212.796875 242.941406 208.066406 C 245.675781 208.992188 247.195312 211.097656 250.785156 212.507812 C 253.988281 213.761719 257.273438 214.105469 260.960938 213.773438 C 262.53125 218.957031 268.09375 227.234375 271.042969 231.570312 L 280.085938 243.875 C 290.152344 255.445312 283.847656 250.054688 297.089844 261.554688 C 300.921875 264.882812 308.539062 269.863281 314.128906 272.519531 C 320.296875 275.449219 326.625 278.660156 333.859375 280.8125 C 343.679688 283.738281 338.746094 287.863281 352.824219 289.785156 C 361.320312 290.945312 371.234375 285.65625 366.316406 277.679688 C 362.851562 272.0625 352.921875 270.878906 345.25 274.574219 C 340.664062 276.785156 340.210938 275.429688 335.386719 273.25 C 325.820312 268.933594 316.875 263.867188 308.644531 257.988281 C 297.617188 250.113281 288.441406 241.109375 279.855469 230.773438 C 276.394531 226.613281 271.65625 219.5 268.683594 213.890625 C 266.308594 209.40625 269.3125 209.273438 271.214844 205.144531 C 276.140625 194.449219 272.59375 180.5625 267.21875 171.390625 C 265.695312 168.78125 263.070312 164.980469 261.441406 163.148438 C 259.277344 160.710938 256.714844 159.695312 254.257812 157.234375 C 254.273438 154.089844 253.789062 152.886719 256.664062 153.125 L 262.445312 156.304688 C 264.535156 150.023438 265.679688 141.699219 267.664062 134.882812 C 269.664062 128.007812 271.945312 121.964844 274.222656 115.949219 C 279.558594 113.851562 287.269531 106.527344 305.761719 102.9375 C 341.9375 95.917969 398.308594 121.023438 423.082031 113.34375 Z M 423.085938 113.34375 "/>
<path style=" stroke:none;fill-rule:evenodd;fill:rgb(72.156863%,81.568627%,92.54902%);fill-opacity:1;" d="M 116.765625 409.878906 C 118.683594 411.828125 128.46875 416.8125 131.539062 418.503906 C 136.542969 421.261719 141.863281 424.617188 146.636719 427.421875 C 164.40625 437.867188 202.214844 461.949219 214.644531 477.425781 C 217.957031 481.546875 220.457031 487.191406 223.152344 492.847656 C 233.265625 514.054688 240.746094 538.738281 249.136719 561.664062 L 272.480469 632.785156 L 167.382812 632.785156 C 158.742188 611.605469 148.855469 590.757812 140.578125 568.828125 C 136.492188 558.011719 132.25 547.171875 128.351562 535.695312 L 117.878906 501.339844 L 116.746094 494.347656 C 114.28125 479.9375 111.980469 466.90625 110.757812 452.070312 C 109.941406 442.128906 112.28125 417.769531 116.765625 409.878906 Z M 116.765625 409.878906 "/>
<path style=" stroke:none;fill-rule:evenodd;fill:rgb(72.156863%,81.568627%,92.54902%);fill-opacity:1;" d="M 623.828125 632.785156 L 530.902344 632.785156 L 520.390625 619.730469 C 516.984375 615.636719 513.46875 611.164062 509.933594 606.824219 C 506.132812 602.160156 503.171875 598.261719 499.558594 593.863281 C 496.183594 589.757812 493.09375 585.074219 489.613281 581.5 C 488.402344 576.371094 492.234375 541.675781 492.996094 533.710938 C 494.597656 516.988281 495.882812 505.136719 499.757812 489.148438 C 502.953125 475.980469 515.179688 424.417969 516.460938 409.867188 L 517.625 404.570312 C 518.71875 409.289062 539.648438 453.59375 543.613281 462.453125 C 556.621094 491.496094 570.59375 520 583.164062 548.289062 C 587.339844 557.679688 592.144531 568.039062 596.539062 576.875 L 623.824219 632.78125 Z M 623.828125 632.785156 "/>
<path style=" stroke:none;fill-rule:evenodd;fill:rgb(20%,20%,20%);fill-opacity:1;" d="M 449.859375 60.085938 L 449.332031 58.359375 C 445.96875 61.480469 437.289062 65.195312 432.464844 67.015625 C 412.691406 74.472656 388.03125 77.527344 366.667969 77.324219 C 343.09375 77.09375 295.628906 74.960938 273.59375 69.964844 C 266.46875 96.871094 260.441406 122.832031 255.007812 151.261719 L 256.664062 153.128906 C 253.785156 152.890625 254.273438 154.09375 254.253906 157.238281 L 246.078125 154.359375 C 238.746094 126.226562 238.40625 100.753906 243.113281 71.746094 C 243.933594 66.6875 248.75 48.828125 248.339844 46.410156 C 249.238281 45.542969 252.320312 36.308594 253.453125 34 C 258.941406 22.773438 260.890625 21.0625 268.640625 13.179688 C 295.675781 -14.316406 364.976562 8.566406 397.753906 16.148438 C 408.757812 18.691406 418.015625 19.449219 429.773438 17.566406 C 446.183594 14.9375 447.597656 11.824219 456.757812 9.261719 L 451.71875 47.316406 C 451.472656 49.652344 451.242188 51.945312 451.050781 54.289062 C 450.902344 56.152344 450.78125 58.542969 449.855469 60.089844 Z M 449.859375 60.085938 "/>
<path style=" stroke:none;fill-rule:evenodd;fill:rgb(40%,20%,20%);fill-opacity:1;" d="M 117.878906 501.339844 L 128.347656 535.695312 C 132.246094 547.171875 136.488281 558.011719 140.574219 568.828125 C 148.851562 590.757812 158.738281 611.605469 167.378906 632.785156 L 74.449219 632.785156 L 58.328125 587.726562 C 52.792969 574.210938 47.417969 557.734375 42.234375 543.140625 L 11.730469 459.605469 C 10.003906 455.03125 9.980469 456.824219 9.828125 453.125 C 11.234375 452.203125 29.199219 440.863281 31.492188 442.113281 C 30.816406 443.039062 30.214844 442.28125 33.035156 448.308594 C 39.894531 462.972656 49.820312 473.527344 64.363281 481.6875 C 77.371094 488.980469 102.46875 500.285156 117.632812 501.871094 Z M 117.878906 501.339844 "/>
<path style=" stroke:none;fill-rule:evenodd;fill:rgb(40%,20%,20%);fill-opacity:1;" d="M 230.441406 334.039062 C 224.347656 359.417969 116.875 383.105469 110.757812 452.070312 C 111.976562 466.90625 114.277344 479.9375 116.746094 494.347656 C 90.0625 488.0625 67.3125 480.6875 49.292969 461.421875 C 46.519531 458.457031 43.996094 457.167969 42.304688 453.21875 C 45.890625 455.078125 49.207031 460.058594 52.667969 462.050781 C 60.085938 453.117188 65.574219 416.894531 64.554688 401.410156 C 63.875 391.160156 61.679688 380.625 58.644531 371.371094 C 56.324219 364.300781 50.960938 350.773438 47.496094 345.914062 C 53.539062 344.644531 60.746094 341.910156 67.699219 340.378906 C 75.058594 338.757812 82.089844 337.4375 89.566406 336.175781 C 129.011719 329.511719 169.15625 324.738281 209.132812 330.207031 C 216.378906 331.199219 223.714844 333.230469 230.441406 334.039062 Z M 230.441406 334.039062 "/>
<path style=" stroke:none;fill-rule:evenodd;fill:rgb(0%,0%,0%);fill-opacity:1;" d="M 386.953125 378.015625 C 385.453125 379.773438 376.917969 399.507812 375.296875 403.328125 C 372.023438 411.042969 371.730469 408.457031 372.863281 417.84375 C 373.535156 423.402344 374.203125 428.953125 374.882812 434.515625 L 398.8125 632.785156 L 347.707031 632.785156 L 347.707031 428.039062 C 347.707031 421.882812 348.8125 416.167969 345.632812 412.386719 L 323.464844 384.425781 C 324.191406 382.121094 333.523438 366.492188 335.5625 363.621094 L 344.710938 363.515625 L 376.269531 363.585938 C 378.363281 364.488281 380.613281 368.148438 382 370.007812 C 382.972656 371.308594 383.390625 371.945312 384.570312 373.425781 C 386.175781 375.441406 386.394531 375.148438 386.953125 378.015625 Z M 386.953125 378.015625 "/>
<path style=" stroke:none;fill-rule:evenodd;fill:rgb(16.078431%,0%,0%);fill-opacity:1;" d="M 74.449219 632.785156 L 0 632.785156 L 0 459.351562 C 3.496094 457.132812 4.390625 455.085938 9.828125 453.125 C 9.980469 456.820312 10.003906 455.03125 11.730469 459.601562 L 42.234375 543.136719 C 47.417969 557.734375 52.792969 574.210938 58.328125 587.726562 L 74.449219 632.78125 Z M 74.449219 632.785156 "/>
<path style=" stroke:none;fill-rule:evenodd;fill:rgb(72.156863%,81.568627%,92.54902%);fill-opacity:1;" d="M 294.359375 314.464844 C 297.371094 319.082031 303.890625 323.871094 307.054688 326.9375 L 344.710938 363.511719 L 335.5625 363.617188 C 333.523438 366.488281 324.191406 382.117188 323.464844 384.421875 C 321.890625 385.742188 321.96875 386.429688 321.027344 387.726562 C 317.242188 392.953125 304.0625 407.023438 300.667969 409.625 C 298.800781 408.683594 300.5625 409.730469 299.296875 408.75 L 261.453125 367.894531 C 260.023438 366.105469 258.6875 364.5625 257.078125 362.960938 C 253.886719 359.785156 231.734375 337.457031 231.386719 333.894531 L 242.496094 305.132812 C 246.484375 294.917969 254.789062 290.734375 259.269531 283.019531 C 262.574219 283.121094 266.160156 288.324219 268.265625 290.394531 L 279.5 300.476562 C 283 303.917969 289.15625 311.378906 294.359375 314.464844 Z M 294.359375 314.464844 "/>
<path style=" stroke:none;fill-rule:evenodd;fill:rgb(10.196078%,10.196078%,10.196078%);fill-opacity:1;" d="M 449.859375 60.085938 C 451.011719 65.988281 446.738281 76.738281 444.671875 81.882812 C 443.332031 85.214844 441.535156 88.089844 439.664062 90.878906 C 437.84375 93.589844 435.320312 95.488281 433.667969 97.90625 C 439.550781 110.375 439.882812 135.449219 437.085938 150.328125 C 435.058594 161.125 430.652344 173.3125 425.109375 182.359375 C 423.113281 185.613281 421.011719 188.398438 419.332031 191.1875 C 418.4375 190.058594 418.34375 189.914062 418.28125 186.652344 C 417.902344 166.238281 430.46875 175.1875 423.085938 113.347656 L 422.027344 103.621094 C 407.183594 105.941406 403.191406 104.890625 388.761719 102.371094 C 374.589844 99.898438 336.945312 96.730469 321.230469 95.484375 C 311.554688 94.714844 294.746094 92.34375 285.792969 92.992188 C 283.441406 98.246094 277.328125 104.996094 274.222656 115.953125 C 271.949219 121.96875 269.664062 128.011719 267.664062 134.890625 C 265.679688 141.707031 264.535156 150.027344 262.449219 156.308594 L 256.664062 153.128906 L 255.011719 151.261719 C 260.445312 122.832031 266.472656 96.871094 273.597656 69.964844 C 295.632812 74.960938 343.097656 77.097656 366.667969 77.324219 C 388.035156 77.527344 412.695312 74.472656 432.46875 67.015625 C 437.289062 65.195312 445.972656 61.480469 449.335938 58.359375 L 449.863281 60.085938 Z M 449.859375 60.085938 "/>
<path style=" stroke:none;fill-rule:evenodd;fill:rgb(7.843137%,7.058824%,16.862745%);fill-opacity:1;" d="M 254.253906 157.234375 C 256.714844 159.695312 259.273438 160.714844 261.441406 163.148438 C 263.070312 164.980469 265.691406 168.785156 267.21875 171.390625 C 272.589844 180.566406 276.136719 194.449219 271.210938 205.144531 C 269.308594 209.273438 266.304688 209.410156 268.683594 213.890625 C 271.65625 219.5 276.394531 226.613281 279.851562 230.777344 C 288.4375 241.109375 297.617188 250.113281 308.640625 257.992188 C 316.871094 263.871094 325.820312 268.933594 335.386719 273.253906 C 340.210938 275.429688 340.664062 276.785156 345.246094 274.578125 C 352.917969 270.878906 362.851562 272.066406 366.316406 277.683594 C 371.230469 285.65625 361.316406 290.945312 352.820312 289.785156 C 338.746094 287.867188 343.675781 283.738281 333.855469 280.8125 C 326.625 278.660156 320.292969 275.453125 314.128906 272.523438 C 308.535156 269.863281 300.921875 264.882812 297.089844 261.554688 C 283.847656 250.054688 290.152344 255.445312 280.085938 243.878906 L 271.042969 231.570312 C 268.09375 227.238281 262.527344 218.960938 260.957031 213.773438 C 257.269531 214.105469 253.988281 213.765625 250.78125 212.507812 C 247.195312 211.101562 245.671875 208.992188 242.9375 208.070312 C 240.90625 205.199219 238.113281 202.851562 235.425781 198.511719 C 233.21875 194.945312 231.378906 190.925781 230.050781 186.539062 C 226.273438 174.046875 228.460938 168.085938 233.15625 158.867188 L 235.355469 157.269531 C 236.648438 156.480469 236.25 156.6875 237.6875 156.277344 C 233.304688 133.453125 230.171875 129.671875 231 102.566406 C 231.925781 72.132812 236.40625 70.851562 239.550781 51.132812 C 241.5 48.394531 242.789062 45.808594 248.339844 46.410156 C 248.75 48.824219 243.933594 66.6875 243.113281 71.746094 C 238.40625 100.753906 238.746094 126.222656 246.078125 154.359375 L 254.253906 157.238281 Z M 254.253906 157.234375 "/>
<path style=" stroke:none;fill-rule:evenodd;fill:rgb(94.901961%,58.823529%,51.764706%);fill-opacity:1;" d="M 372.074219 316.84375 C 371.144531 323.328125 371.808594 334.953125 371.8125 342.003906 C 371.816406 353.15625 371.832031 354.777344 376.269531 363.585938 L 344.714844 363.511719 L 307.054688 326.9375 C 303.894531 323.871094 297.375 319.085938 294.363281 314.46875 C 290.472656 305.582031 268.6875 262.890625 267.679688 258.335938 C 269.332031 261.148438 286.207031 275.039062 289.605469 277.710938 C 302.800781 288.082031 322.960938 304.511719 337.265625 312.71875 C 351.617188 320.953125 362.652344 316.257812 372.074219 316.84375 Z M 372.074219 316.84375 "/>
<path style=" stroke:none;fill-rule:evenodd;fill:rgb(16.078431%,0%,0%);fill-opacity:1;" d="M 116.746094 494.347656 L 117.878906 501.339844 L 117.632812 501.871094 C 102.472656 500.285156 77.371094 488.980469 64.363281 481.6875 C 49.820312 473.527344 39.894531 462.972656 33.035156 448.308594 C 30.214844 442.28125 30.816406 443.042969 31.492188 442.113281 L 34.910156 443.507812 C 34.625 424.117188 34.222656 382.277344 37.277344 363.292969 C 38.378906 356.464844 40.09375 345.898438 47.492188 345.917969 C 50.957031 350.773438 56.324219 364.304688 58.640625 371.375 C 61.675781 380.628906 63.871094 391.164062 64.550781 401.410156 C 65.570312 416.898438 60.082031 453.117188 52.664062 462.054688 C 49.203125 460.0625 45.886719 455.078125 42.304688 453.222656 C 43.992188 457.167969 46.519531 458.460938 49.289062 461.425781 C 67.3125 480.691406 90.0625 488.066406 116.742188 494.351562 Z M 116.746094 494.347656 "/>
<path style=" stroke:none;fill-rule:evenodd;fill:rgb(94.901961%,58.823529%,51.764706%);fill-opacity:1;" d="M 423.085938 113.347656 C 398.308594 121.027344 341.9375 95.917969 305.761719 102.941406 C 287.269531 106.53125 279.558594 113.851562 274.222656 115.949219 C 277.328125 104.992188 283.445312 98.242188 285.792969 92.992188 C 294.746094 92.34375 311.554688 94.714844 321.230469 95.480469 C 336.941406 96.726562 374.589844 99.898438 388.761719 102.371094 C 403.191406 104.890625 407.183594 105.9375 422.027344 103.617188 Z M 423.085938 113.347656 "/>
<path style=" stroke:none;fill-rule:evenodd;fill:rgb(72.156863%,81.568627%,92.54902%);fill-opacity:1;" d="M 393.195312 341.226562 L 412.105469 393.808594 C 406.988281 391.175781 403.503906 390.167969 398.589844 386.78125 C 395.195312 384.445312 389.003906 379.789062 387.574219 376.976562 C 388.242188 378.339844 387.804688 377.132812 386.953125 378.011719 C 386.398438 375.144531 386.175781 375.4375 384.574219 373.421875 C 383.394531 371.941406 382.976562 371.308594 382.003906 370.007812 C 380.613281 368.144531 378.367188 364.484375 376.269531 363.585938 C 371.835938 354.777344 371.816406 353.15625 371.8125 342.003906 C 371.8125 334.953125 371.144531 323.328125 372.074219 316.84375 C 374.855469 317.726562 392.105469 339.636719 393.199219 341.226562 Z M 393.195312 341.226562 "/>
<path style=" stroke:none;fill-rule:evenodd;fill:rgb(20%,20%,20%);fill-opacity:1;" d="M 233.15625 158.863281 C 227.285156 141.136719 220.863281 122.480469 219.601562 101.847656 C 218.875 89.941406 219.863281 81.257812 224.035156 71.28125 C 227.242188 63.613281 233.507812 53.402344 239.550781 51.128906 C 236.40625 70.851562 231.925781 72.132812 231 102.5625 C 230.175781 129.667969 233.308594 133.453125 237.6875 156.277344 C 236.25 156.683594 236.648438 156.480469 235.355469 157.265625 Z M 233.15625 158.863281 "/>
<path style=" stroke:none;fill-rule:evenodd;fill:rgb(99.215686%,99.215686%,99.215686%);fill-opacity:1;" d="M 386.957031 250.414062 C 388.144531 256.507812 379.863281 273.09375 358.210938 270.265625 C 344.730469 268.507812 333.828125 258.816406 334.742188 243.335938 C 338.3125 243.929688 342.117188 245.476562 346.339844 246.332031 C 359.8125 249.054688 373.222656 249.582031 386.957031 250.414062 Z M 386.957031 250.414062 "/>
<path style=" stroke:none;fill-rule:evenodd;fill:rgb(10.196078%,10.196078%,10.196078%);fill-opacity:1;" d="M 344 130.601562 C 345.214844 133.015625 345.238281 136.722656 345.125 139.683594 C 322.957031 137.984375 315.503906 145.769531 300.996094 154.28125 C 299.320312 152.046875 299.019531 151.238281 298.695312 148.324219 C 301.933594 146.269531 303.480469 141.914062 317.203125 135.109375 C 323.484375 131.996094 336.367188 128.113281 344 130.597656 Z M 344 130.601562 "/>
<path style=" stroke:none;fill-rule:evenodd;fill:rgb(10.196078%,10.196078%,10.196078%);fill-opacity:1;" d="M 416.800781 145.570312 C 416.789062 148.109375 416.542969 149.40625 415.332031 151.1875 C 399 145.105469 399.484375 147.695312 380.628906 150.167969 C 381.417969 139.199219 385.425781 137.691406 396.683594 138.339844 C 401.753906 138.632812 408.417969 139.71875 412.785156 142.464844 C 414.726562 143.683594 414.8125 144.4375 416.800781 145.570312 Z M 416.800781 145.570312 "/>
<path style=" stroke:none;fill-rule:evenodd;fill:rgb(7.843137%,7.058824%,16.862745%);fill-opacity:1;" d="M 348.148438 178.832031 C 343.085938 180.980469 343.136719 178.746094 341.03125 176.230469 C 335.417969 169.519531 324.21875 167.636719 315.710938 176.996094 C 310.878906 182.316406 307.011719 178.703125 308.71875 174.730469 C 311.003906 169.394531 320.792969 162.734375 330.644531 163.929688 C 339.273438 164.976562 349.910156 170.578125 348.148438 178.832031 Z M 348.148438 178.832031 "/>
<path style=" stroke:none;fill-rule:evenodd;fill:rgb(7.843137%,7.058824%,16.862745%);fill-opacity:1;" d="M 401.359375 171.011719 C 411.421875 175.535156 406.496094 195.09375 396.015625 190.605469 C 392.460938 189.082031 390.125 183.84375 391.160156 178.332031 C 391.992188 173.882812 395.890625 168.554688 401.359375 171.011719 Z M 401.359375 171.011719 "/>
<path style=" stroke:none;fill-rule:evenodd;fill:rgb(94.901961%,58.823529%,51.764706%);fill-opacity:1;" d="M 375.691406 226.917969 C 378.976562 225.847656 382.597656 222.644531 383.941406 220.542969 C 388.296875 213.726562 376.019531 199.886719 378.015625 183.183594 C 379.851562 186.3125 381.804688 192.40625 383.550781 196.40625 C 387.308594 205.003906 398.507812 215.164062 389.660156 222.265625 C 387.035156 224.367188 380 228.15625 375.695312 226.917969 Z M 375.691406 226.917969 "/>
<path style=" stroke:none;fill-rule:evenodd;fill:rgb(0%,0%,0%);fill-opacity:1;" d="M 446.484375 459.078125 C 446.933594 459.042969 447.355469 459.183594 447.722656 459.445312 C 447.925781 459.59375 448.097656 459.78125 448.222656 460.003906 L 449.488281 462.261719 C 449.621094 462.5 449.695312 462.765625 449.710938 463.039062 C 449.714844 463.050781 449.714844 463.066406 449.714844 463.082031 C 449.765625 462.964844 449.820312 462.847656 449.875 462.734375 C 449.925781 462.613281 449.972656 462.488281 450.011719 462.367188 C 450.085938 462.152344 450.167969 461.941406 450.261719 461.734375 C 450.375 461.488281 450.515625 461.253906 450.691406 461.050781 C 450.925781 460.78125 451.226562 460.585938 451.578125 460.5 C 451.589844 460.496094 451.597656 460.496094 451.609375 460.492188 C 452.109375 460.390625 452.605469 460.472656 453.035156 460.75 C 453.28125 460.90625 453.480469 461.117188 453.625 461.367188 L 454.890625 463.625 C 455 463.820312 455.070312 464.035156 455.101562 464.253906 C 455.101562 464.269531 455.105469 464.285156 455.105469 464.304688 C 455.140625 464.667969 455.078125 465.027344 454.914062 465.355469 C 454.835938 465.511719 454.753906 465.664062 454.667969 465.816406 C 454.484375 466.265625 454.300781 466.710938 454.117188 467.160156 C 454.480469 466.992188 454.867188 466.875 455.273438 466.820312 C 455.320312 466.816406 455.359375 466.8125 455.40625 466.8125 L 455.59375 466.8125 C 455.902344 466.8125 456.214844 466.84375 456.515625 466.929688 C 456.742188 466.996094 456.96875 467.078125 457.175781 467.191406 C 457.285156 467.25 457.390625 467.3125 457.488281 467.386719 C 457.792969 467.453125 458.074219 467.597656 458.296875 467.835938 C 458.410156 467.957031 458.507812 468.089844 458.589844 468.234375 C 458.890625 468.769531 459.1875 469.300781 459.488281 469.832031 C 459.585938 469.722656 459.691406 469.613281 459.800781 469.511719 C 459.703125 469.421875 459.617188 469.324219 459.542969 469.210938 C 459.515625 469.171875 459.488281 469.128906 459.464844 469.085938 L 458.199219 466.832031 C 458.199219 466.832031 458.199219 466.828125 458.199219 466.828125 C 458.050781 466.570312 457.976562 466.285156 457.976562 465.992188 C 457.976562 465.699219 458.039062 465.417969 458.164062 465.15625 C 458.316406 464.824219 458.574219 464.570312 458.898438 464.402344 C 459.167969 464.253906 459.46875 464.183594 459.769531 464.15625 C 460.011719 464.136719 460.253906 464.128906 460.496094 464.128906 C 460.730469 464.128906 460.964844 464.132812 461.199219 464.140625 C 461.382812 464.148438 461.5625 464.152344 461.742188 464.152344 C 462.757812 464.121094 463.773438 464.078125 464.785156 464.023438 C 465.769531 463.964844 466.753906 463.898438 467.738281 463.816406 C 467.953125 463.78125 468.171875 463.761719 468.386719 463.757812 C 468.425781 463.683594 468.460938 463.605469 468.5 463.53125 C 468.515625 463.488281 468.539062 463.445312 468.554688 463.402344 C 468.675781 463.039062 468.816406 462.671875 468.953125 462.316406 C 469.152344 461.78125 469.375 461.257812 469.617188 460.738281 C 469.855469 460.222656 470.117188 459.71875 470.421875 459.242188 C 470.75 458.726562 471.199219 458.234375 471.84375 458.136719 C 472.300781 458.066406 472.753906 458.152344 473.144531 458.402344 C 473.382812 458.554688 473.578125 458.753906 473.714844 459 L 474.984375 461.257812 C 475.070312 461.414062 475.132812 461.585938 475.164062 461.765625 C 475.167969 461.777344 475.171875 461.789062 475.171875 461.804688 C 475.238281 462.257812 475.160156 462.710938 474.914062 463.101562 C 474.894531 463.132812 474.878906 463.160156 474.859375 463.1875 C 475.117188 463.179688 475.375 463.175781 475.636719 463.175781 C 475.910156 463.175781 476.1875 463.171875 476.460938 463.152344 C 476.953125 463.121094 477.421875 463.25 477.796875 463.574219 C 477.953125 463.703125 478.082031 463.859375 478.179688 464.035156 C 478.601562 464.789062 479.023438 465.539062 479.445312 466.292969 C 479.503906 466.398438 479.554688 466.507812 479.589844 466.625 C 479.679688 466.914062 479.699219 467.21875 479.644531 467.515625 C 479.589844 467.789062 479.484375 468.046875 479.324219 468.277344 C 479.113281 468.578125 478.808594 468.785156 478.453125 468.882812 C 478.179688 468.964844 477.894531 468.972656 477.617188 468.90625 C 477.582031 468.898438 477.546875 468.898438 477.511719 468.898438 C 477.492188 468.898438 477.472656 468.898438 477.453125 468.894531 C 477.046875 468.871094 476.605469 468.898438 476.199219 468.921875 C 475.578125 468.957031 474.957031 469 474.335938 469.050781 C 473.753906 469.097656 473.167969 469.148438 472.585938 469.207031 C 472.460938 469.222656 472.335938 469.230469 472.207031 469.246094 C 472.558594 469.289062 472.886719 469.429688 473.167969 469.664062 C 473.308594 469.78125 473.429688 469.921875 473.515625 470.082031 C 473.9375 470.835938 474.363281 471.589844 474.785156 472.339844 C 474.996094 472.71875 475.007812 473.148438 474.851562 473.546875 C 474.761719 473.8125 474.632812 474.082031 474.507812 474.335938 C 474.328125 474.699219 474.136719 475.058594 473.9375 475.410156 C 473.707031 475.816406 473.472656 476.222656 473.238281 476.625 C 472.988281 477.046875 472.71875 477.464844 472.433594 477.867188 C 472.183594 478.21875 471.921875 478.5625 471.644531 478.894531 C 471.390625 479.207031 471.085938 479.511719 470.730469 479.710938 C 470.265625 480 469.742188 480.167969 469.1875 480.136719 C 468.691406 480.109375 468.226562 479.957031 467.816406 479.675781 C 467.441406 479.417969 467.128906 479.089844 466.890625 478.703125 C 466.859375 478.660156 466.835938 478.617188 466.808594 478.574219 L 466.667969 478.320312 C 466.570312 478.511719 466.460938 478.691406 466.332031 478.867188 C 466.035156 479.269531 465.660156 479.59375 465.210938 479.820312 C 464.730469 480.0625 464.210938 480.164062 463.675781 480.164062 C 463.035156 480.164062 462.425781 480.011719 461.863281 479.707031 C 461.347656 479.425781 460.890625 479.050781 460.519531 478.597656 C 460.332031 478.367188 460.164062 478.125 460.019531 477.867188 L 459.816406 477.507812 C 459.265625 477.722656 458.683594 477.835938 458.078125 477.847656 C 458.070312 477.847656 458.0625 477.847656 458.054688 477.847656 C 458.007812 477.847656 457.964844 477.847656 457.917969 477.84375 C 457.789062 478.011719 457.652344 478.171875 457.511719 478.328125 C 457.253906 478.617188 456.960938 478.867188 456.636719 479.078125 C 456.183594 479.375 455.667969 479.507812 455.128906 479.507812 C 454.171875 479.507812 453.304688 479.199219 452.691406 478.488281 C 452.273438 478.925781 451.824219 479.332031 451.339844 479.691406 C 450.6875 480.171875 449.945312 480.480469 449.121094 480.480469 C 448.492188 480.480469 447.886719 480.304688 447.449219 479.835938 C 447.328125 479.703125 447.21875 479.558594 447.132812 479.402344 L 445.867188 477.144531 C 445.699219 476.84375 445.605469 476.511719 445.566406 476.171875 C 445.53125 475.828125 445.542969 475.480469 445.585938 475.136719 C 445.507812 475.148438 445.433594 475.164062 445.355469 475.175781 C 445.273438 475.191406 445.15625 475.207031 445.039062 475.234375 C 444.980469 475.445312 444.917969 475.65625 444.839844 475.859375 C 444.730469 476.160156 444.621094 476.460938 444.503906 476.757812 C 444.367188 477.101562 444.238281 477.449219 444.109375 477.796875 C 443.992188 478.117188 443.878906 478.441406 443.785156 478.769531 C 443.730469 478.964844 443.664062 479.195312 443.648438 479.394531 C 443.644531 479.410156 443.644531 479.421875 443.644531 479.4375 C 443.632812 479.5 443.628906 479.574219 443.632812 479.640625 C 443.648438 479.832031 443.644531 480.027344 443.605469 480.21875 C 443.554688 480.460938 443.449219 480.683594 443.296875 480.878906 C 443.121094 481.101562 442.890625 481.261719 442.628906 481.371094 C 442.03125 481.628906 441.398438 481.566406 440.863281 481.199219 C 440.597656 481.019531 440.371094 480.789062 440.214844 480.511719 L 438.949219 478.253906 C 438.863281 478.109375 438.804688 477.953125 438.769531 477.800781 C 438.769531 477.804688 438.765625 477.808594 438.761719 477.8125 C 438.496094 478.085938 438.210938 478.339844 437.90625 478.570312 C 437.605469 478.796875 437.28125 478.996094 436.941406 479.15625 C 436.535156 479.351562 436.097656 479.453125 435.644531 479.453125 C 434.914062 479.453125 434.28125 479.148438 433.847656 478.5625 C 433.78125 478.472656 433.722656 478.378906 433.667969 478.28125 L 433.542969 478.0625 C 433.238281 478.3125 432.910156 478.535156 432.5625 478.722656 C 432.113281 478.972656 431.617188 479.109375 431.097656 479.109375 C 430.421875 479.109375 429.828125 478.863281 429.371094 478.398438 C 429.144531 478.589844 428.910156 478.765625 428.664062 478.925781 C 428.214844 479.214844 427.707031 479.425781 427.164062 479.425781 C 426.324219 479.425781 425.609375 479.058594 425.179688 478.335938 C 425.167969 478.316406 425.15625 478.292969 425.144531 478.269531 L 424.058594 476.335938 C 423.984375 476.464844 423.914062 476.597656 423.84375 476.730469 C 423.722656 476.953125 423.585938 477.164062 423.429688 477.363281 C 423.253906 477.589844 423.042969 477.789062 422.808594 477.957031 C 422.492188 478.175781 422.128906 478.292969 421.742188 478.292969 C 421.160156 478.292969 420.617188 478.082031 420.289062 477.582031 C 420.261719 477.542969 420.238281 477.503906 420.214844 477.464844 L 420.0625 477.1875 C 420.003906 477.285156 419.949219 477.378906 419.894531 477.476562 C 419.675781 477.867188 419.441406 478.25 419.199219 478.621094 C 418.824219 479.195312 418.257812 479.546875 417.566406 479.582031 C 417.546875 479.582031 417.535156 479.582031 417.515625 479.582031 C 417.046875 479.582031 416.625 479.40625 416.300781 479.089844 C 415.816406 479.414062 415.269531 479.609375 414.675781 479.609375 C 413.921875 479.609375 413.269531 479.296875 412.769531 478.742188 C 412.6875 478.652344 412.609375 478.554688 412.542969 478.453125 C 412.523438 478.472656 412.507812 478.492188 412.488281 478.507812 C 412.183594 478.820312 411.839844 479.089844 411.460938 479.308594 C 411.015625 479.5625 410.535156 479.6875 410.023438 479.6875 C 409.179688 479.6875 408.441406 479.371094 407.859375 478.769531 C 407.679688 478.582031 407.523438 478.375 407.398438 478.148438 L 407.328125 478.023438 C 407.050781 478.203125 406.765625 478.375 406.476562 478.53125 C 405.957031 478.816406 405.417969 479.066406 404.859375 479.269531 C 404.355469 479.449219 403.8125 479.585938 403.273438 479.585938 C 402.644531 479.585938 402.03125 479.46875 401.464844 479.199219 C 400.972656 478.96875 400.523438 478.667969 400.136719 478.28125 C 399.871094 478.015625 399.644531 477.71875 399.460938 477.390625 C 399.039062 476.640625 398.617188 475.886719 398.195312 475.132812 C 398.121094 475.007812 398.058594 474.875 398.003906 474.742188 C 397.804688 474.28125 397.691406 473.796875 397.691406 473.292969 C 397.691406 472.492188 397.824219 471.707031 398.105469 470.953125 C 398.367188 470.25 398.730469 469.585938 399.199219 468.992188 C 399.644531 468.425781 400.171875 467.933594 400.78125 467.546875 C 401.363281 467.175781 402.003906 466.914062 402.695312 466.820312 C 402.742188 466.8125 402.78125 466.8125 402.828125 466.8125 C 402.847656 466.8125 402.871094 466.8125 402.890625 466.808594 C 402.992188 466.792969 403.097656 466.785156 403.203125 466.785156 C 404.082031 466.785156 404.917969 467.003906 405.625 467.539062 C 405.941406 467.777344 406.207031 468.070312 406.402344 468.417969 L 407.03125 469.535156 C 407.1875 469.226562 407.335938 468.914062 407.484375 468.597656 C 407.570312 468.40625 407.660156 468.21875 407.757812 468.035156 C 407.875 467.816406 408.007812 467.601562 408.152344 467.402344 C 408.328125 467.160156 408.539062 466.949219 408.785156 466.78125 C 409.097656 466.558594 409.460938 466.441406 409.847656 466.441406 C 410.359375 466.441406 410.824219 466.628906 411.175781 467 C 411.289062 467.117188 411.386719 467.242188 411.464844 467.382812 L 412.121094 468.550781 C 412.140625 468.523438 412.160156 468.492188 412.179688 468.464844 C 412.433594 468.09375 412.722656 467.746094 413.054688 467.441406 C 413.433594 467.09375 413.890625 466.835938 414.417969 466.835938 C 414.917969 466.835938 415.367188 467.023438 415.710938 467.382812 C 415.820312 467.492188 415.910156 467.617188 415.988281 467.753906 L 416.457031 468.589844 C 416.484375 468.507812 416.511719 468.429688 416.542969 468.351562 C 416.625 468.105469 416.730469 467.871094 416.851562 467.640625 C 417 467.355469 417.195312 467.105469 417.4375 466.894531 C 417.761719 466.613281 418.164062 466.46875 418.59375 466.46875 C 419.0625 466.46875 419.484375 466.652344 419.8125 466.980469 C 419.929688 467.09375 420.027344 467.222656 420.105469 467.363281 L 420.175781 467.488281 C 420.203125 467.46875 420.230469 467.445312 420.257812 467.425781 C 420.765625 467.015625 421.363281 466.757812 422.023438 466.757812 C 422.585938 466.757812 423.09375 466.960938 423.484375 467.367188 C 423.503906 467.382812 423.519531 467.402344 423.535156 467.421875 C 423.578125 467.386719 423.617188 467.351562 423.660156 467.316406 C 423.984375 467.039062 424.339844 466.800781 424.71875 466.605469 C 425.179688 466.371094 425.679688 466.261719 426.199219 466.261719 C 426.890625 466.261719 427.515625 466.523438 427.90625 467.101562 C 427.945312 467.15625 427.980469 467.210938 428.011719 467.265625 L 429.097656 469.203125 C 429.101562 469.199219 429.105469 469.195312 429.113281 469.1875 C 429.632812 468.558594 430.238281 468.007812 430.9375 467.578125 C 431.621094 467.160156 432.378906 466.894531 433.1875 466.894531 C 433.664062 466.894531 434.132812 466.980469 434.570312 467.175781 C 434.78125 467.265625 434.972656 467.378906 435.152344 467.515625 C 435.238281 467.417969 435.328125 467.324219 435.421875 467.238281 C 435.738281 466.945312 436.132812 466.789062 436.5625 466.789062 C 437.007812 466.789062 437.417969 466.949219 437.746094 467.25 C 437.867188 467.367188 437.972656 467.496094 438.050781 467.640625 L 439.054688 469.429688 C 439.535156 469.46875 439.972656 469.667969 440.257812 470.058594 C 440.5 470.011719 440.746094 469.964844 440.992188 469.921875 C 441.042969 469.910156 441.09375 469.894531 441.144531 469.886719 C 441.199219 469.703125 441.257812 469.523438 441.324219 469.347656 C 441.570312 468.699219 441.8125 468.046875 442.050781 467.394531 C 442.335938 466.628906 442.625 465.863281 442.921875 465.101562 C 443.21875 464.34375 443.515625 463.585938 443.816406 462.832031 C 444.078125 462.167969 444.351562 461.503906 444.640625 460.851562 C 444.761719 460.578125 444.882812 460.308594 445.007812 460.039062 C 445.285156 459.445312 445.835938 459.121094 446.484375 459.078125 Z M 448.339844 466.566406 C 448.21875 466.863281 448.101562 467.164062 447.988281 467.464844 C 447.796875 467.964844 447.605469 468.46875 447.417969 468.96875 C 447.421875 468.96875 447.429688 468.96875 447.433594 468.96875 C 447.453125 468.96875 447.472656 468.96875 447.492188 468.96875 C 447.492188 468.964844 447.492188 468.957031 447.496094 468.949219 C 447.523438 468.84375 447.550781 468.738281 447.582031 468.640625 C 447.585938 468.632812 447.585938 468.625 447.589844 468.617188 L 448.109375 467.195312 C 448.1875 466.984375 448.265625 466.773438 448.339844 466.566406 Z M 404.410156 472.636719 L 404.355469 472.539062 C 404.238281 472.574219 404.117188 472.636719 404.027344 472.691406 C 403.746094 472.855469 403.5 473.082031 403.292969 473.332031 C 403.269531 473.359375 403.25 473.382812 403.230469 473.410156 C 403.582031 473.214844 403.925781 472.992188 404.25 472.753906 C 404.304688 472.714844 404.355469 472.675781 404.410156 472.636719 Z M 404.410156 472.636719 "/>
<path style=" stroke:none;fill-rule:evenodd;fill:rgb(40%,20%,20%);fill-opacity:1;" d="M 402.828125 467.796875 C 402.902344 467.796875 402.964844 467.789062 403.027344 467.78125 C 403.089844 467.773438 403.148438 467.769531 403.203125 467.769531 C 403.929688 467.769531 404.535156 467.953125 405.023438 468.320312 C 405.246094 468.488281 405.417969 468.683594 405.539062 468.898438 L 406.804688 471.15625 C 406.878906 471.285156 406.933594 471.425781 406.96875 471.574219 C 407.148438 471.359375 407.3125 471.144531 407.457031 470.925781 C 407.558594 470.691406 407.671875 470.457031 407.789062 470.230469 C 407.992188 469.835938 408.191406 469.429688 408.386719 469.007812 C 408.457031 468.851562 408.539062 468.679688 408.636719 468.496094 C 408.734375 468.308594 408.839844 468.140625 408.957031 467.980469 C 409.070312 467.824219 409.203125 467.691406 409.355469 467.585938 C 409.503906 467.480469 409.667969 467.429688 409.847656 467.429688 C 410.09375 467.429688 410.296875 467.511719 410.457031 467.679688 C 410.515625 467.738281 410.5625 467.800781 410.597656 467.867188 L 411.867188 470.121094 C 411.929688 470.238281 411.964844 470.367188 411.964844 470.5 C 411.964844 470.695312 411.875 470.878906 411.699219 471.054688 C 411.519531 471.230469 411.40625 471.363281 411.351562 471.449219 C 411.175781 471.730469 410.980469 472.058594 410.769531 472.4375 C 410.554688 472.816406 410.355469 473.21875 410.171875 473.648438 C 410.167969 473.65625 410.164062 473.667969 410.15625 473.679688 C 410.191406 473.632812 410.226562 473.585938 410.261719 473.535156 C 410.535156 473.152344 410.796875 472.742188 411.046875 472.3125 C 411.292969 471.882812 411.515625 471.507812 411.710938 471.195312 C 411.902344 470.863281 412.105469 470.5 412.328125 470.117188 C 412.542969 469.730469 412.769531 469.367188 413.003906 469.023438 C 413.238281 468.679688 413.484375 468.394531 413.730469 468.167969 C 413.980469 467.9375 414.210938 467.824219 414.421875 467.824219 C 414.652344 467.824219 414.84375 467.902344 414.992188 468.0625 C 415.042969 468.117188 415.089844 468.171875 415.121094 468.234375 L 416.386719 470.492188 C 416.453125 470.605469 416.484375 470.734375 416.484375 470.871094 C 416.484375 470.921875 416.480469 470.972656 416.476562 471.023438 C 416.558594 470.914062 416.636719 470.808594 416.710938 470.714844 C 416.886719 470.214844 417.074219 469.726562 417.265625 469.246094 C 417.339844 469.070312 417.410156 468.882812 417.480469 468.679688 C 417.550781 468.476562 417.632812 468.285156 417.730469 468.101562 C 417.828125 467.917969 417.949219 467.765625 418.089844 467.640625 C 418.230469 467.515625 418.398438 467.457031 418.597656 467.457031 C 418.789062 467.457031 418.964844 467.53125 419.113281 467.679688 C 419.164062 467.730469 419.210938 467.785156 419.242188 467.847656 L 419.945312 469.097656 C 420.242188 468.757812 420.554688 468.457031 420.882812 468.195312 C 421.253906 467.894531 421.632812 467.746094 422.023438 467.746094 C 422.324219 467.746094 422.574219 467.847656 422.769531 468.046875 C 422.828125 468.109375 422.878906 468.175781 422.917969 468.25 L 423.335938 468.992188 C 423.414062 468.914062 423.496094 468.832031 423.578125 468.746094 C 423.800781 468.519531 424.042969 468.289062 424.3125 468.0625 C 424.574219 467.832031 424.863281 467.640625 425.175781 467.480469 C 425.484375 467.324219 425.828125 467.246094 426.199219 467.246094 C 426.605469 467.246094 426.902344 467.382812 427.089844 467.652344 C 427.109375 467.683594 427.128906 467.714844 427.148438 467.746094 L 428.414062 470.003906 C 428.5625 470.265625 428.636719 470.617188 428.636719 471.054688 C 428.617188 471.296875 428.578125 471.535156 428.519531 471.777344 C 428.746094 471.433594 428.964844 471.117188 429.175781 470.832031 C 429.386719 470.46875 429.621094 470.128906 429.878906 469.808594 C 430.351562 469.242188 430.875 468.773438 431.460938 468.414062 C 432.046875 468.058594 432.625 467.875 433.191406 467.875 C 433.542969 467.875 433.871094 467.941406 434.171875 468.074219 C 434.472656 468.207031 434.722656 468.402344 434.917969 468.667969 L 434.972656 468.769531 C 434.988281 468.792969 435.003906 468.820312 435.023438 468.851562 C 435.074219 468.9375 435.109375 468.980469 435.128906 468.980469 C 435.234375 468.980469 435.332031 468.921875 435.421875 468.796875 L 435.730469 468.375 C 435.84375 468.21875 435.96875 468.078125 436.101562 467.953125 C 436.234375 467.832031 436.390625 467.769531 436.566406 467.769531 C 436.757812 467.769531 436.929688 467.835938 437.070312 467.96875 C 437.117188 468.011719 437.15625 468.0625 437.1875 468.117188 L 438.453125 470.375 C 438.476562 470.410156 438.492188 470.449219 438.503906 470.492188 C 438.621094 470.433594 438.746094 470.40625 438.875 470.40625 C 439.175781 470.40625 439.378906 470.5 439.484375 470.683594 L 439.753906 471.167969 C 439.914062 471.128906 440.078125 471.09375 440.246094 471.0625 C 440.609375 470.992188 440.941406 470.929688 441.242188 470.878906 C 441.328125 470.84375 441.441406 470.824219 441.574219 470.824219 C 441.707031 470.824219 441.789062 470.808594 441.824219 470.773438 C 441.894531 470.71875 441.972656 470.5625 442.050781 470.300781 C 442.128906 470.035156 442.199219 469.835938 442.25 469.691406 C 442.460938 469.132812 442.707031 468.476562 442.980469 467.734375 C 443.257812 466.988281 443.542969 466.226562 443.84375 465.457031 C 444.148438 464.683594 444.441406 463.929688 444.734375 463.191406 C 445.027344 462.453125 445.300781 461.804688 445.546875 461.246094 C 445.667969 460.964844 445.789062 460.703125 445.90625 460.453125 C 446.019531 460.210938 446.238281 460.078125 446.558594 460.058594 C 446.75 460.042969 446.949219 460.105469 447.140625 460.242188 C 447.234375 460.308594 447.304688 460.390625 447.359375 460.484375 L 448.625 462.742188 C 448.683594 462.847656 448.71875 462.96875 448.726562 463.105469 C 448.726562 463.300781 448.6875 463.445312 448.605469 463.542969 C 448.527344 463.636719 448.460938 463.738281 448.40625 463.84375 C 448.265625 464.109375 448.140625 464.382812 448.035156 464.675781 C 447.929688 464.964844 447.8125 465.257812 447.691406 465.554688 C 447.511719 465.976562 447.304688 466.5 447.066406 467.121094 C 446.828125 467.746094 446.578125 468.398438 446.320312 469.082031 C 446.195312 469.421875 446.066406 469.753906 445.941406 470.082031 C 446.066406 470.066406 446.199219 470.050781 446.332031 470.035156 C 446.640625 470 447.011719 469.976562 447.433594 469.957031 C 447.578125 469.957031 447.71875 469.960938 447.859375 469.96875 C 448 469.976562 448.097656 469.964844 448.152344 469.929688 C 448.171875 469.914062 448.203125 469.863281 448.246094 469.785156 C 448.289062 469.707031 448.328125 469.613281 448.363281 469.507812 C 448.402344 469.402344 448.429688 469.296875 448.457031 469.191406 C 448.484375 469.085938 448.507812 469.007812 448.523438 468.957031 L 449.042969 467.535156 C 449.230469 467.027344 449.421875 466.511719 449.613281 465.996094 C 449.808594 465.480469 450.003906 464.972656 450.199219 464.484375 C 450.394531 463.992188 450.589844 463.542969 450.785156 463.140625 C 450.835938 463.019531 450.894531 462.863281 450.957031 462.679688 C 451.019531 462.496094 451.089844 462.316406 451.167969 462.140625 C 451.246094 461.964844 451.339844 461.816406 451.449219 461.691406 C 451.554688 461.570312 451.679688 461.488281 451.820312 461.457031 C 452.070312 461.402344 452.292969 461.441406 452.5 461.574219 C 452.613281 461.648438 452.699219 461.738281 452.761719 461.847656 L 454.027344 464.105469 C 454.078125 464.191406 454.109375 464.289062 454.125 464.398438 C 454.140625 464.589844 454.109375 464.765625 454.03125 464.925781 C 453.949219 465.082031 453.867188 465.238281 453.777344 465.398438 C 453.585938 465.871094 453.375 466.382812 453.152344 466.925781 C 452.933594 467.46875 452.710938 468.027344 452.488281 468.59375 C 452.265625 469.164062 452.050781 469.734375 451.835938 470.304688 C 451.625 470.875 451.429688 471.414062 451.253906 471.925781 C 451.199219 472.082031 451.132812 472.25 451.054688 472.425781 C 451.019531 472.5 450.992188 472.574219 450.972656 472.640625 C 451.09375 472.46875 451.214844 472.300781 451.328125 472.128906 C 451.503906 471.871094 451.660156 471.652344 451.800781 471.464844 C 452.003906 470.84375 452.28125 470.28125 452.632812 469.773438 C 452.996094 469.246094 453.417969 468.800781 453.894531 468.445312 C 454.375 468.082031 454.878906 467.871094 455.410156 467.796875 L 455.597656 467.796875 C 455.84375 467.796875 456.058594 467.824219 456.246094 467.878906 C 456.433594 467.929688 456.589844 467.992188 456.714844 468.0625 C 456.855469 468.132812 456.96875 468.21875 457.058594 468.324219 C 457.289062 468.324219 457.464844 468.386719 457.578125 468.507812 C 457.636719 468.570312 457.6875 468.640625 457.730469 468.714844 C 458.152344 469.46875 458.574219 470.21875 458.996094 470.972656 C 459.035156 471.046875 459.070312 471.128906 459.097656 471.210938 C 459.152344 471.390625 459.175781 471.558594 459.175781 471.726562 L 459.175781 471.902344 C 459.324219 471.726562 459.464844 471.550781 459.597656 471.378906 L 459.667969 471.289062 C 459.746094 471.152344 459.828125 471.019531 459.917969 470.894531 C 460.15625 470.550781 460.417969 470.269531 460.703125 470.050781 C 460.984375 469.832031 461.257812 469.722656 461.527344 469.722656 C 461.71875 469.722656 461.898438 469.789062 462.058594 469.917969 C 462.125 469.976562 462.179688 470.035156 462.21875 470.105469 L 462.820312 471.183594 C 462.773438 470.90625 462.75 470.605469 462.75 470.289062 C 462.75 469.882812 462.800781 469.46875 462.910156 469.046875 C 462.921875 468.996094 462.9375 468.941406 462.953125 468.890625 C 462.476562 468.898438 461.996094 468.902344 461.519531 468.902344 C 461.394531 468.902344 461.269531 468.917969 461.144531 468.953125 C 461.023438 468.988281 460.890625 468.988281 460.746094 468.953125 C 460.585938 468.902344 460.464844 468.808594 460.375 468.675781 C 460.363281 468.65625 460.351562 468.636719 460.339844 468.617188 L 459.078125 466.367188 C 459.078125 466.367188 459.074219 466.367188 459.074219 466.363281 C 459.011719 466.25 458.980469 466.128906 458.980469 466.003906 C 458.980469 465.851562 459.011719 465.710938 459.070312 465.582031 C 459.132812 465.449219 459.234375 465.347656 459.378906 465.277344 C 459.5 465.207031 459.664062 465.164062 459.871094 465.144531 C 460.074219 465.128906 460.285156 465.121094 460.507812 465.121094 C 460.730469 465.121094 460.949219 465.125 461.171875 465.132812 C 461.394531 465.140625 461.59375 465.144531 461.769531 465.144531 C 462.886719 465.113281 463.914062 465.066406 464.855469 465.015625 C 465.792969 464.960938 466.804688 464.890625 467.882812 464.804688 C 468.0625 464.769531 468.269531 464.75 468.507812 464.75 C 468.746094 464.75 468.910156 464.726562 469 464.671875 C 469.035156 464.652344 469.074219 464.605469 469.121094 464.527344 C 469.164062 464.449219 469.210938 464.355469 469.265625 464.25 C 469.320312 464.144531 469.367188 464.046875 469.414062 463.949219 C 469.457031 463.851562 469.488281 463.777344 469.503906 463.722656 C 469.574219 463.511719 469.703125 463.164062 469.890625 462.671875 C 470.078125 462.179688 470.289062 461.675781 470.527344 461.15625 C 470.765625 460.640625 471.015625 460.179688 471.273438 459.777344 C 471.527344 459.371094 471.773438 459.152344 472.003906 459.117188 C 472.234375 459.082031 472.4375 459.121094 472.613281 459.238281 C 472.722656 459.304688 472.800781 459.390625 472.859375 459.488281 L 474.125 461.746094 C 474.160156 461.808594 474.1875 461.878906 474.199219 461.953125 C 474.234375 462.199219 474.195312 462.414062 474.078125 462.601562 C 473.964844 462.785156 473.859375 462.964844 473.773438 463.140625 C 473.558594 463.527344 473.355469 463.917969 473.15625 464.304688 L 473.160156 464.304688 C 473.945312 464.21875 474.773438 464.171875 475.644531 464.171875 C 475.980469 464.171875 476.277344 464.164062 476.535156 464.148438 C 476.789062 464.128906 477 464.191406 477.15625 464.332031 C 477.222656 464.386719 477.277344 464.453125 477.320312 464.527344 C 477.742188 465.277344 478.164062 466.03125 478.585938 466.78125 C 478.609375 466.828125 478.632812 466.875 478.648438 466.929688 C 478.695312 467.070312 478.703125 467.210938 478.675781 467.351562 C 478.648438 467.492188 478.597656 467.617188 478.515625 467.734375 C 478.4375 467.847656 478.324219 467.921875 478.183594 467.957031 C 478.074219 467.992188 477.972656 467.996094 477.863281 467.96875 C 477.757812 467.941406 477.640625 467.929688 477.519531 467.929688 C 477.214844 467.910156 476.761719 467.921875 476.148438 467.957031 C 475.539062 467.992188 474.910156 468.035156 474.261719 468.089844 C 473.617188 468.140625 473.027344 468.195312 472.496094 468.246094 C 471.964844 468.300781 471.617188 468.332031 471.457031 468.351562 L 471.378906 468.496094 C 471.324219 468.59375 471.273438 468.699219 471.21875 468.8125 C 471.167969 468.925781 471.113281 469.042969 471.058594 469.167969 C 471.007812 469.292969 470.96875 469.378906 470.953125 469.429688 C 470.578125 470.378906 470.269531 471.277344 470.023438 472.128906 C 469.917969 472.480469 469.816406 472.851562 469.710938 473.242188 C 469.730469 473.210938 469.746094 473.179688 469.765625 473.148438 C 470.101562 472.585938 470.449219 471.980469 470.804688 471.332031 C 470.925781 471.105469 471.066406 470.867188 471.214844 470.621094 C 471.367188 470.375 471.59375 470.246094 471.894531 470.226562 C 472.140625 470.207031 472.355469 470.273438 472.53125 470.425781 C 472.585938 470.46875 472.628906 470.519531 472.65625 470.574219 C 473.078125 471.324219 473.5 472.078125 473.925781 472.828125 C 473.988281 472.945312 473.992188 473.078125 473.929688 473.222656 C 473.878906 473.378906 473.777344 473.613281 473.625 473.917969 C 473.472656 474.226562 473.292969 474.566406 473.078125 474.945312 C 472.867188 475.320312 472.636719 475.722656 472.386719 476.140625 C 472.140625 476.5625 471.886719 476.953125 471.628906 477.3125 C 471.375 477.671875 471.125 478 470.886719 478.285156 C 470.648438 478.578125 470.429688 478.773438 470.234375 478.878906 C 469.898438 479.089844 469.570312 479.1875 469.25 479.167969 C 468.933594 479.152344 468.644531 479.054688 468.386719 478.878906 C 468.128906 478.703125 467.914062 478.476562 467.734375 478.195312 C 467.71875 478.164062 467.699219 478.136719 467.683594 478.105469 L 466.417969 475.847656 C 466.273438 475.59375 466.191406 475.316406 466.175781 475.015625 C 466.140625 474.558594 466.167969 474.125 466.253906 473.714844 C 466.34375 473.300781 466.433594 472.894531 466.519531 472.492188 C 466.695312 471.675781 466.882812 470.902344 467.082031 470.171875 C 466.898438 470.226562 466.71875 470.292969 466.550781 470.378906 C 466.234375 470.570312 465.992188 470.867188 465.8125 471.261719 C 465.640625 471.65625 465.550781 472.097656 465.550781 472.589844 C 465.550781 472.886719 465.582031 473.183594 465.644531 473.484375 C 465.707031 473.78125 465.777344 474.085938 465.855469 474.394531 C 465.933594 474.703125 466.007812 475.003906 466.070312 475.300781 C 466.132812 475.601562 466.164062 475.90625 466.164062 476.222656 C 466.164062 476.628906 466.109375 477.003906 466.003906 477.355469 C 465.894531 477.707031 465.742188 478.023438 465.535156 478.304688 C 465.328125 478.585938 465.074219 478.804688 464.761719 478.960938 C 464.449219 479.121094 464.089844 479.199219 463.679688 479.199219 C 463.199219 479.199219 462.757812 479.085938 462.34375 478.859375 C 461.9375 478.636719 461.582031 478.347656 461.289062 477.992188 C 461.140625 477.808594 461.003906 477.609375 460.886719 477.402344 L 460.21875 476.214844 C 460.140625 476.261719 460.0625 476.308594 459.984375 476.355469 C 459.40625 476.6875 458.765625 476.863281 458.054688 476.882812 C 457.964844 476.882812 457.882812 476.878906 457.804688 476.871094 C 457.726562 476.859375 457.65625 476.855469 457.605469 476.855469 C 457.496094 476.855469 457.378906 476.945312 457.246094 477.121094 C 457.113281 477.296875 456.953125 477.488281 456.765625 477.699219 C 456.582031 477.910156 456.355469 478.101562 456.089844 478.277344 C 455.824219 478.453125 455.503906 478.542969 455.132812 478.542969 C 454.316406 478.542969 453.714844 478.265625 453.324219 477.710938 C 453.265625 477.628906 453.210938 477.539062 453.160156 477.453125 L 452.816406 476.839844 C 452.628906 477.078125 452.4375 477.308594 452.234375 477.539062 C 451.773438 478.066406 451.277344 478.527344 450.746094 478.921875 C 450.214844 479.316406 449.671875 479.515625 449.125 479.515625 C 448.699219 479.515625 448.382812 479.40625 448.179688 479.1875 C 448.109375 479.113281 448.050781 479.027344 448 478.941406 L 446.734375 476.683594 C 446.636719 476.511719 446.578125 476.3125 446.554688 476.085938 C 446.519531 475.742188 446.542969 475.359375 446.621094 474.929688 C 446.679688 474.617188 446.75 474.3125 446.835938 474.007812 C 446.730469 474.019531 446.625 474.027344 446.519531 474.042969 C 446.039062 474.09375 445.597656 474.15625 445.191406 474.226562 C 444.78125 474.296875 444.5 474.367188 444.339844 474.4375 C 444.25 474.507812 444.171875 474.671875 444.101562 474.9375 C 444.03125 475.199219 443.96875 475.402344 443.914062 475.542969 C 443.824219 475.789062 443.714844 476.082031 443.582031 476.425781 C 443.449219 476.765625 443.316406 477.117188 443.183594 477.476562 C 443.050781 477.835938 442.933594 478.183594 442.835938 478.515625 C 442.742188 478.851562 442.683594 479.121094 442.664062 479.332031 C 442.648438 479.472656 442.644531 479.605469 442.652344 479.730469 C 442.660156 479.851562 442.65625 479.957031 442.636719 480.042969 C 442.621094 480.132812 442.582031 480.214844 442.519531 480.296875 C 442.457031 480.375 442.363281 480.441406 442.238281 480.492188 C 441.957031 480.617188 441.683594 480.589844 441.425781 480.414062 C 441.269531 480.308594 441.15625 480.1875 441.082031 480.054688 L 439.816406 477.796875 C 439.765625 477.710938 439.734375 477.621094 439.722656 477.523438 C 439.671875 477.207031 439.722656 476.832031 439.882812 476.394531 C 440.015625 476.03125 440.132812 475.695312 440.242188 475.394531 C 440.144531 475.460938 440.054688 475.546875 439.980469 475.648438 C 439.890625 475.769531 439.777344 475.851562 439.632812 475.886719 C 439.472656 475.925781 439.328125 475.925781 439.195312 475.886719 L 438.730469 476.414062 C 438.519531 476.660156 438.292969 476.902344 438.050781 477.152344 C 437.8125 477.394531 437.5625 477.613281 437.308594 477.808594 C 437.050781 478 436.785156 478.164062 436.511719 478.296875 C 436.234375 478.429688 435.949219 478.496094 435.644531 478.496094 C 435.222656 478.496094 434.890625 478.332031 434.648438 478.007812 C 434.605469 477.949219 434.570312 477.890625 434.535156 477.828125 L 433.796875 476.511719 C 433.558594 476.765625 433.292969 477.011719 433.003906 477.257812 C 432.710938 477.5 432.40625 477.710938 432.085938 477.886719 C 431.765625 478.066406 431.4375 478.152344 431.101562 478.152344 C 430.640625 478.152344 430.265625 477.972656 429.972656 477.613281 C 429.90625 477.53125 429.847656 477.445312 429.796875 477.355469 L 429.539062 476.898438 C 429.425781 477.015625 429.3125 477.132812 429.199219 477.246094 C 428.835938 477.605469 428.476562 477.898438 428.125 478.128906 C 427.769531 478.355469 427.449219 478.46875 427.167969 478.46875 C 426.652344 478.46875 426.277344 478.265625 426.039062 477.863281 C 426.027344 477.847656 426.019531 477.832031 426.011719 477.816406 L 424.746094 475.558594 C 424.523438 475.164062 424.414062 474.691406 424.414062 474.132812 C 424.414062 474.066406 424.414062 474.003906 424.414062 473.9375 C 424.28125 474.140625 424.144531 474.34375 424.015625 474.546875 C 423.742188 474.988281 423.472656 475.425781 423.207031 475.863281 C 423.136719 475.988281 423.058594 476.132812 422.96875 476.296875 C 422.878906 476.464844 422.773438 476.628906 422.648438 476.785156 C 422.527344 476.945312 422.386719 477.074219 422.238281 477.179688 C 422.089844 477.285156 421.921875 477.339844 421.746094 477.339844 C 421.445312 477.339844 421.238281 477.25 421.121094 477.074219 C 421.109375 477.054688 421.09375 477.035156 421.082031 477.011719 L 420.113281 475.285156 C 419.746094 475.824219 419.382812 476.402344 419.035156 477.023438 C 418.804688 477.425781 418.582031 477.789062 418.367188 478.113281 C 418.15625 478.4375 417.875 478.609375 417.515625 478.628906 C 417.269531 478.628906 417.066406 478.523438 416.90625 478.3125 C 416.878906 478.273438 416.851562 478.230469 416.828125 478.191406 L 416.527344 477.65625 C 416.300781 477.875 416.070312 478.074219 415.828125 478.246094 C 415.449219 478.515625 415.0625 478.652344 414.675781 478.652344 C 414.222656 478.652344 413.832031 478.472656 413.507812 478.113281 C 413.421875 478.015625 413.34375 477.910156 413.28125 477.796875 L 412.695312 476.753906 C 412.621094 476.847656 412.546875 476.945312 412.46875 477.046875 C 412.253906 477.332031 412.023438 477.597656 411.777344 477.851562 C 411.527344 478.105469 411.257812 478.316406 410.964844 478.484375 C 410.671875 478.652344 410.359375 478.734375 410.023438 478.734375 C 409.457031 478.734375 408.972656 478.527344 408.574219 478.117188 C 408.449219 477.988281 408.347656 477.847656 408.261719 477.699219 L 407.65625 476.617188 C 407.605469 476.65625 407.550781 476.695312 407.496094 476.734375 C 407 477.097656 406.5 477.421875 405.996094 477.699219 C 405.492188 477.976562 405 478.199219 404.519531 478.371094 C 404.042969 478.542969 403.625 478.628906 403.269531 478.628906 C 402.757812 478.628906 402.296875 478.53125 401.886719 478.339844 C 401.476562 478.148438 401.128906 477.90625 400.835938 477.613281 C 400.632812 477.40625 400.457031 477.183594 400.324219 476.941406 C 399.902344 476.1875 399.480469 475.433594 399.058594 474.683594 C 399.003906 474.585938 398.957031 474.488281 398.914062 474.386719 C 398.757812 474.027344 398.683594 473.671875 398.683594 473.320312 C 398.683594 472.617188 398.796875 471.953125 399.03125 471.320312 C 399.269531 470.6875 399.582031 470.121094 399.976562 469.621094 C 400.371094 469.121094 400.816406 468.714844 401.316406 468.398438 C 401.8125 468.082031 402.316406 467.890625 402.828125 467.816406 Z M 467.042969 468.726562 L 467.296875 469.183594 C 467.3125 469.210938 467.328125 469.238281 467.335938 469.265625 L 467.339844 469.253906 C 467.394531 469.066406 467.457031 468.882812 467.515625 468.695312 C 467.355469 468.707031 467.199219 468.71875 467.039062 468.726562 Z M 461.917969 475.320312 C 461.945312 475.035156 462.015625 474.765625 462.132812 474.511719 C 462.148438 474.476562 462.167969 474.4375 462.1875 474.40625 C 462.28125 474.277344 462.367188 474.148438 462.441406 474.023438 L 462.5 473.921875 C 462.558594 473.851562 462.617188 473.789062 462.679688 473.734375 C 462.820312 473.613281 463.003906 473.480469 463.222656 473.339844 C 463.246094 473.328125 463.265625 473.3125 463.28125 473.296875 C 463.332031 473.570312 463.351562 473.847656 463.351562 474.132812 C 463.351562 474.503906 463.289062 474.8125 463.167969 475.058594 C 463.039062 475.304688 462.800781 475.425781 462.441406 475.425781 C 462.253906 475.425781 462.082031 475.394531 461.917969 475.320312 Z M 405.679688 472.871094 C 405.667969 472.859375 405.660156 472.851562 405.65625 472.835938 L 404.9375 471.554688 C 404.828125 471.535156 404.695312 471.523438 404.546875 471.523438 C 404.226562 471.523438 403.886719 471.628906 403.523438 471.84375 C 403.160156 472.054688 402.828125 472.34375 402.527344 472.710938 C 402.226562 473.070312 401.976562 473.488281 401.78125 473.96875 C 401.675781 474.234375 401.597656 474.511719 401.550781 474.796875 C 401.699219 474.832031 401.863281 474.847656 402.03125 474.847656 C 402.351562 474.847656 402.765625 474.730469 403.269531 474.492188 C 403.773438 474.257812 404.296875 473.941406 404.839844 473.546875 C 405.125 473.335938 405.40625 473.113281 405.679688 472.871094 Z M 405.679688 472.871094 "/>
<path style=" stroke:none;fill-rule:nonzero;fill:rgb(90.196078%,90.196078%,90.196078%);fill-opacity:1;" d="M 402.828125 467.796875 C 402.902344 467.796875 402.964844 467.789062 403.027344 467.78125 C 403.089844 467.773438 403.148438 467.769531 403.203125 467.769531 C 403.929688 467.769531 404.535156 467.953125 405.023438 468.320312 C 405.511719 468.691406 405.753906 469.171875 405.753906 469.769531 C 405.753906 470.050781 405.6875 470.285156 405.554688 470.480469 C 405.421875 470.671875 405.214844 470.769531 404.929688 470.769531 C 404.609375 470.769531 404.425781 470.695312 404.371094 470.542969 C 404.320312 470.390625 404.277344 470.21875 404.253906 470.03125 C 404.226562 469.84375 404.164062 469.671875 404.066406 469.511719 C 403.96875 469.347656 403.707031 469.269531 403.28125 469.269531 C 402.964844 469.269531 402.621094 469.375 402.257812 469.589844 C 401.894531 469.800781 401.5625 470.089844 401.261719 470.453125 C 400.960938 470.8125 400.710938 471.234375 400.519531 471.714844 C 400.324219 472.191406 400.226562 472.703125 400.226562 473.257812 C 400.226562 473.699219 400.398438 474.074219 400.742188 474.386719 C 401.089844 474.695312 401.519531 474.847656 402.03125 474.847656 C 402.351562 474.847656 402.765625 474.730469 403.269531 474.492188 C 403.773438 474.257812 404.296875 473.941406 404.839844 473.546875 C 405.378906 473.152344 405.902344 472.699219 406.40625 472.191406 C 406.914062 471.683594 407.324219 471.164062 407.644531 470.636719 C 407.714844 470.5 407.839844 470.425781 408.015625 470.425781 C 408.210938 470.425781 408.394531 470.519531 408.574219 470.703125 C 408.753906 470.886719 408.839844 471.09375 408.839844 471.324219 C 408.839844 471.585938 408.71875 471.898438 408.480469 472.257812 C 408.242188 472.617188 407.929688 472.984375 407.550781 473.351562 C 407.167969 473.71875 406.730469 474.085938 406.234375 474.457031 C 405.738281 474.820312 405.238281 475.144531 404.734375 475.421875 C 404.226562 475.695312 403.738281 475.921875 403.257812 476.09375 C 402.777344 476.261719 402.363281 476.351562 402.007812 476.351562 C 401.496094 476.351562 401.035156 476.253906 400.625 476.0625 C 400.214844 475.867188 399.867188 475.625 399.574219 475.335938 C 399.285156 475.046875 399.066406 474.722656 398.914062 474.363281 C 398.761719 474 398.683594 473.648438 398.683594 473.296875 C 398.683594 472.59375 398.800781 471.929688 399.035156 471.296875 C 399.269531 470.664062 399.585938 470.101562 399.976562 469.597656 C 400.375 469.097656 400.820312 468.691406 401.316406 468.375 C 401.8125 468.058594 402.316406 467.867188 402.832031 467.796875 Z M 411.789062 474.03125 C 411.609375 474.242188 411.414062 474.488281 411.203125 474.769531 C 410.992188 475.050781 410.761719 475.320312 410.511719 475.574219 C 410.261719 475.828125 409.992188 476.039062 409.703125 476.207031 C 409.410156 476.371094 409.09375 476.457031 408.757812 476.457031 C 408.191406 476.457031 407.707031 476.25 407.308594 475.835938 C 406.910156 475.425781 406.710938 474.886719 406.710938 474.21875 C 406.710938 473.691406 406.761719 473.203125 406.859375 472.757812 C 406.957031 472.3125 407.085938 471.875 407.242188 471.457031 C 407.402344 471.035156 407.585938 470.625 407.789062 470.230469 C 407.992188 469.835938 408.191406 469.429688 408.386719 469.007812 C 408.457031 468.851562 408.542969 468.679688 408.636719 468.496094 C 408.734375 468.308594 408.84375 468.140625 408.957031 467.980469 C 409.074219 467.824219 409.207031 467.691406 409.355469 467.585938 C 409.507812 467.480469 409.671875 467.429688 409.847656 467.429688 C 410.097656 467.429688 410.300781 467.511719 410.460938 467.679688 C 410.617188 467.84375 410.699219 468.035156 410.699219 468.246094 C 410.699219 468.4375 410.609375 468.621094 410.433594 468.796875 C 410.253906 468.972656 410.140625 469.105469 410.085938 469.191406 C 409.910156 469.472656 409.714844 469.800781 409.503906 470.179688 C 409.289062 470.554688 409.089844 470.960938 408.90625 471.390625 C 408.71875 471.820312 408.5625 472.265625 408.441406 472.730469 C 408.316406 473.195312 408.253906 473.65625 408.253906 474.113281 C 408.253906 474.324219 408.285156 474.511719 408.347656 474.679688 C 408.410156 474.84375 408.539062 474.929688 408.730469 474.929688 C 408.945312 474.929688 409.183594 474.792969 409.449219 474.519531 C 409.714844 474.25 409.988281 473.917969 410.261719 473.53125 C 410.535156 473.148438 410.796875 472.738281 411.042969 472.308594 C 411.292969 471.878906 411.511719 471.503906 411.707031 471.191406 C 411.898438 470.859375 412.105469 470.5 412.324219 470.113281 C 412.542969 469.726562 412.765625 469.363281 413.003906 469.019531 C 413.238281 468.675781 413.480469 468.394531 413.730469 468.164062 C 413.976562 467.933594 414.207031 467.820312 414.421875 467.820312 C 414.652344 467.820312 414.84375 467.902344 414.992188 468.058594 C 415.140625 468.214844 415.21875 468.402344 415.21875 468.613281 C 415.21875 468.839844 415.160156 469.054688 415.042969 469.257812 C 414.929688 469.460938 414.808594 469.683594 414.6875 469.929688 C 414.261719 470.773438 413.921875 471.535156 413.675781 472.21875 C 413.429688 472.902344 413.304688 473.613281 413.304688 474.351562 C 413.304688 474.703125 413.347656 474.878906 413.4375 474.878906 C 413.648438 474.878906 413.871094 474.765625 414.101562 474.535156 C 414.332031 474.304688 414.570312 474.019531 414.808594 473.679688 C 415.046875 473.335938 415.28125 472.964844 415.511719 472.5625 C 415.742188 472.15625 415.96875 471.785156 416.191406 471.441406 C 416.414062 471.101562 416.621094 470.816406 416.816406 470.585938 C 417.007812 470.359375 417.195312 470.246094 417.371094 470.246094 C 417.601562 470.246094 417.792969 470.300781 417.945312 470.414062 C 418.09375 470.53125 418.167969 470.683594 418.167969 470.878906 C 418.167969 471.070312 418.0625 471.332031 417.851562 471.667969 C 417.636719 472 417.460938 472.28125 417.316406 472.511719 C 417.105469 472.859375 416.855469 473.261719 416.574219 473.707031 C 416.289062 474.15625 415.980469 474.574219 415.644531 474.96875 C 415.304688 475.363281 414.949219 475.695312 414.566406 475.96875 C 414.1875 476.242188 413.800781 476.378906 413.410156 476.378906 C 412.960938 476.378906 412.570312 476.199219 412.246094 475.839844 C 411.921875 475.476562 411.761719 475.007812 411.761719 474.429688 C 411.761719 474.253906 411.773438 474.125 411.789062 474.035156 Z M 425.980469 474.636719 C 426.460938 474.410156 426.890625 474.050781 427.269531 473.558594 C 427.652344 473.066406 428 472.570312 428.320312 472.070312 C 428.640625 471.570312 428.945312 471.128906 429.238281 470.742188 C 429.53125 470.359375 429.828125 470.164062 430.128906 470.164062 C 430.324219 470.164062 430.488281 470.21875 430.621094 470.320312 C 430.753906 470.425781 430.820312 470.574219 430.820312 470.769531 C 430.820312 470.910156 430.742188 471.140625 430.582031 471.46875 C 430.421875 471.792969 430.203125 472.15625 429.929688 472.5625 C 429.65625 472.964844 429.34375 473.378906 429 473.796875 C 428.652344 474.21875 428.300781 474.609375 427.9375 474.96875 C 427.570312 475.328125 427.214844 475.625 426.859375 475.851562 C 426.503906 476.082031 426.1875 476.195312 425.902344 476.195312 C 425.390625 476.195312 425.011719 475.992188 424.773438 475.589844 C 424.535156 475.183594 424.414062 474.691406 424.414062 474.113281 C 424.414062 473.640625 424.46875 473.183594 424.574219 472.746094 C 424.679688 472.308594 424.804688 471.882812 424.945312 471.472656 C 425.085938 471.058594 425.234375 470.652344 425.382812 470.25 C 425.535156 469.84375 425.652344 469.429688 425.742188 469.011719 C 425.335938 469.242188 424.960938 469.527344 424.613281 469.867188 C 424.269531 470.210938 423.941406 470.585938 423.628906 471 C 423.320312 471.410156 423.027344 471.839844 422.753906 472.277344 C 422.476562 472.714844 422.207031 473.152344 421.941406 473.589844 C 421.871094 473.714844 421.792969 473.859375 421.703125 474.027344 C 421.613281 474.191406 421.507812 474.355469 421.382812 474.511719 C 421.261719 474.671875 421.121094 474.804688 420.972656 474.910156 C 420.820312 475.015625 420.65625 475.066406 420.480469 475.066406 C 420.179688 475.066406 419.96875 474.980469 419.855469 474.804688 C 419.738281 474.628906 419.683594 474.425781 419.683594 474.199219 C 419.683594 473.863281 419.753906 473.503906 419.894531 473.117188 C 420.035156 472.730469 420.152344 472.425781 420.242188 472.195312 C 420.382812 471.808594 420.527344 471.457031 420.679688 471.140625 C 420.828125 470.824219 420.957031 470.519531 421.0625 470.21875 C 420.425781 470.941406 419.839844 471.652344 419.308594 472.363281 C 418.777344 473.078125 418.261719 473.871094 417.769531 474.746094 C 417.539062 475.152344 417.316406 475.515625 417.101562 475.839844 C 416.890625 476.164062 416.605469 476.335938 416.25 476.355469 C 416.003906 476.355469 415.800781 476.25 415.640625 476.039062 C 415.480469 475.828125 415.402344 475.554688 415.402344 475.222656 C 415.402344 474.816406 415.464844 474.441406 415.589844 474.089844 C 415.710938 473.738281 415.828125 473.390625 415.933594 473.035156 C 416.128906 472.421875 416.335938 471.789062 416.558594 471.140625 C 416.78125 470.492188 417.015625 469.859375 417.261719 469.246094 C 417.332031 469.070312 417.402344 468.882812 417.476562 468.679688 C 417.546875 468.476562 417.628906 468.285156 417.726562 468.101562 C 417.824219 467.917969 417.945312 467.765625 418.085938 467.640625 C 418.226562 467.515625 418.394531 467.457031 418.589844 467.457031 C 418.785156 467.457031 418.957031 467.53125 419.109375 467.679688 C 419.257812 467.828125 419.335938 468.015625 419.335938 468.246094 C 419.335938 468.386719 419.300781 468.507812 419.226562 468.613281 C 419.15625 468.71875 419.09375 468.824219 419.042969 468.929688 C 418.847656 469.300781 418.675781 469.714844 418.523438 470.179688 C 418.375 470.644531 418.226562 471.054688 418.085938 471.402344 C 418.316406 471.191406 418.578125 470.882812 418.871094 470.46875 C 419.164062 470.058594 419.476562 469.648438 419.8125 469.246094 C 420.148438 468.84375 420.503906 468.492188 420.875 468.191406 C 421.25 467.894531 421.628906 467.746094 422.019531 467.746094 C 422.320312 467.746094 422.570312 467.84375 422.761719 468.046875 C 422.957031 468.25 423.054688 468.515625 423.054688 468.851562 C 423.054688 469.007812 423.03125 469.167969 422.976562 469.324219 C 423.15625 469.167969 423.355469 468.972656 423.574219 468.746094 C 423.796875 468.515625 424.039062 468.289062 424.304688 468.058594 C 424.570312 467.832031 424.859375 467.640625 425.171875 467.480469 C 425.480469 467.324219 425.820312 467.242188 426.195312 467.242188 C 426.601562 467.242188 426.898438 467.378906 427.085938 467.652344 C 427.269531 467.921875 427.363281 468.304688 427.363281 468.796875 C 427.328125 469.21875 427.234375 469.640625 427.085938 470.070312 C 426.933594 470.5 426.773438 470.941406 426.605469 471.386719 C 426.4375 471.835938 426.285156 472.285156 426.15625 472.742188 C 426.019531 473.199219 425.957031 473.664062 425.957031 474.136719 C 425.957031 474.222656 425.957031 474.308594 425.957031 474.386719 C 425.957031 474.464844 425.964844 474.546875 425.980469 474.636719 Z M 434.566406 474.585938 C 434.816406 474.429688 435.082031 474.222656 435.363281 473.96875 C 435.648438 473.710938 435.929688 473.433594 436.214844 473.125 C 436.5 472.816406 436.777344 472.5 437.050781 472.175781 C 437.328125 471.851562 437.570312 471.53125 437.785156 471.214844 C 437.925781 471.023438 438.085938 470.835938 438.261719 470.660156 C 438.441406 470.484375 438.644531 470.398438 438.875 470.398438 C 439.335938 470.398438 439.566406 470.617188 439.566406 471.054688 C 439.566406 471.214844 439.480469 471.4375 439.3125 471.726562 C 439.144531 472.019531 438.945312 472.320312 438.714844 472.636719 C 438.484375 472.953125 438.25 473.246094 438.011719 473.519531 C 437.773438 473.789062 437.589844 473.996094 437.464844 474.136719 C 437.253906 474.382812 437.027344 474.628906 436.789062 474.875 C 436.546875 475.121094 436.300781 475.339844 436.042969 475.535156 C 435.785156 475.726562 435.519531 475.890625 435.246094 476.019531 C 434.972656 476.152344 434.683594 476.21875 434.382812 476.21875 C 433.957031 476.21875 433.625 476.054688 433.386719 475.730469 C 433.148438 475.40625 433.027344 475.007812 433.027344 474.535156 C 433.027344 474.238281 433.078125 473.929688 433.1875 473.613281 C 432.992188 473.769531 432.773438 473.976562 432.535156 474.230469 C 432.296875 474.484375 432.027344 474.734375 431.738281 474.984375 C 431.445312 475.226562 431.140625 475.4375 430.820312 475.613281 C 430.5 475.789062 430.171875 475.878906 429.835938 475.878906 C 429.375 475.878906 429 475.699219 428.707031 475.339844 C 428.414062 474.976562 428.269531 474.519531 428.269531 473.957031 C 428.269531 473.21875 428.421875 472.488281 428.722656 471.757812 C 429.023438 471.03125 429.40625 470.382812 429.878906 469.8125 C 430.347656 469.242188 430.875 468.777344 431.460938 468.417969 C 432.042969 468.058594 432.621094 467.878906 433.1875 467.878906 C 433.539062 467.878906 433.867188 467.941406 434.167969 468.074219 C 434.46875 468.207031 434.71875 468.402344 434.914062 468.667969 C 434.933594 468.703125 434.964844 468.765625 435.019531 468.851562 C 435.074219 468.9375 435.109375 468.984375 435.128906 468.984375 C 435.234375 468.984375 435.332031 468.921875 435.421875 468.800781 C 435.507812 468.675781 435.613281 468.535156 435.726562 468.378906 C 435.84375 468.21875 435.964844 468.078125 436.097656 467.957031 C 436.230469 467.832031 436.386719 467.773438 436.5625 467.773438 C 436.757812 467.773438 436.925781 467.839844 437.070312 467.96875 C 437.210938 468.101562 437.28125 468.289062 437.28125 468.535156 C 437.28125 468.746094 437.179688 468.996094 436.976562 469.285156 C 436.769531 469.578125 436.597656 469.816406 436.457031 470.011719 C 436.03125 470.660156 435.644531 471.359375 435.300781 472.101562 C 434.953125 472.847656 434.710938 473.679688 434.570312 474.589844 Z M 430.761719 471.234375 C 430.570312 471.5625 430.359375 471.988281 430.140625 472.5 C 429.921875 473.019531 429.808594 473.539062 429.808594 474.058594 C 429.808594 474.21875 429.847656 474.296875 429.917969 474.296875 C 430.09375 474.296875 430.320312 474.1875 430.601562 473.96875 C 430.882812 473.75 431.175781 473.492188 431.476562 473.195312 C 431.773438 472.902344 432.066406 472.59375 432.34375 472.277344 C 432.625 471.964844 432.867188 471.710938 433.054688 471.519531 C 433.214844 471.367188 433.40625 471.164062 433.621094 470.917969 C 433.84375 470.671875 433.957031 470.46875 433.957031 470.289062 C 433.957031 470.046875 433.890625 469.828125 433.757812 469.652344 C 433.621094 469.464844 433.5 469.375 433.375 469.375 C 433.054688 469.375 432.769531 469.429688 432.503906 469.546875 C 432.242188 469.660156 432.003906 469.804688 431.789062 469.988281 C 431.578125 470.171875 431.386719 470.375 431.210938 470.589844 C 431.03125 470.808594 430.882812 471.023438 430.761719 471.234375 Z M 443.6875 470.425781 C 444.058594 470.375 444.382812 470.320312 444.65625 470.269531 C 444.929688 470.21875 445.199219 470.171875 445.46875 470.136719 C 445.730469 470.101562 446.019531 470.066406 446.332031 470.03125 C 446.640625 469.996094 447.011719 469.972656 447.433594 469.953125 C 447.578125 469.953125 447.71875 469.957031 447.859375 469.964844 C 448 469.976562 448.097656 469.960938 448.152344 469.925781 C 448.171875 469.910156 448.203125 469.859375 448.246094 469.78125 C 448.289062 469.703125 448.328125 469.609375 448.363281 469.503906 C 448.402344 469.398438 448.429688 469.292969 448.457031 469.191406 C 448.484375 469.085938 448.507812 469.003906 448.523438 468.953125 C 448.683594 468.511719 448.855469 468.039062 449.042969 467.53125 C 449.230469 467.023438 449.421875 466.507812 449.613281 465.992188 C 449.808594 465.476562 450.003906 464.96875 450.199219 464.480469 C 450.394531 463.988281 450.589844 463.542969 450.785156 463.136719 C 450.835938 463.015625 450.894531 462.863281 450.957031 462.675781 C 451.019531 462.492188 451.089844 462.3125 451.167969 462.136719 C 451.246094 461.960938 451.339844 461.8125 451.449219 461.6875 C 451.554688 461.566406 451.679688 461.488281 451.820312 461.453125 C 452.070312 461.398438 452.292969 461.4375 452.5 461.570312 C 452.703125 461.703125 452.820312 461.890625 452.859375 462.136719 C 452.875 462.328125 452.84375 462.503906 452.765625 462.664062 C 452.6875 462.820312 452.601562 462.980469 452.515625 463.136719 C 452.320312 463.613281 452.109375 464.121094 451.890625 464.664062 C 451.667969 465.207031 451.445312 465.765625 451.226562 466.335938 C 451.003906 466.90625 450.785156 467.476562 450.574219 468.046875 C 450.359375 468.613281 450.164062 469.15625 449.988281 469.664062 C 449.933594 469.820312 449.867188 469.988281 449.789062 470.164062 C 449.710938 470.339844 449.667969 470.5 449.667969 470.636719 C 449.667969 470.796875 449.699219 470.921875 449.761719 471.019531 C 449.824219 471.117188 449.839844 471.234375 449.800781 471.375 C 449.765625 471.515625 449.6875 471.648438 449.5625 471.769531 C 449.527344 471.804688 449.472656 471.839844 449.402344 471.875 C 449.332031 471.910156 449.28125 471.957031 449.242188 472.007812 C 449.171875 472.132812 449.078125 472.351562 448.964844 472.667969 C 448.847656 472.984375 448.734375 473.316406 448.617188 473.667969 C 448.503906 474.019531 448.402344 474.355469 448.3125 474.679688 C 448.222656 475.003906 448.171875 475.246094 448.152344 475.40625 C 448.453125 475.40625 448.789062 475.222656 449.160156 474.851562 C 449.535156 474.484375 449.90625 474.058594 450.277344 473.578125 C 450.648438 473.09375 451 472.613281 451.328125 472.128906 C 451.65625 471.648438 451.925781 471.285156 452.136719 471.039062 C 452.722656 470.390625 453.175781 470.25 453.492188 470.617188 C 453.617188 470.757812 453.679688 470.910156 453.679688 471.078125 C 453.679688 471.242188 453.648438 471.40625 453.585938 471.566406 C 453.523438 471.722656 453.445312 471.875 453.347656 472.027344 C 453.25 472.175781 453.164062 472.300781 453.09375 472.40625 C 452.882812 472.707031 452.589844 473.128906 452.21875 473.671875 C 451.84375 474.214844 451.429688 474.75 450.96875 475.277344 C 450.507812 475.800781 450.011719 476.261719 449.480469 476.65625 C 448.949219 477.050781 448.40625 477.25 447.859375 477.25 C 447.433594 477.25 447.117188 477.140625 446.914062 476.921875 C 446.710938 476.703125 446.589844 476.417969 446.554688 476.078125 C 446.519531 475.734375 446.542969 475.351562 446.621094 474.921875 C 446.699219 474.492188 446.808594 474.0625 446.941406 473.644531 C 447.074219 473.222656 447.210938 472.828125 447.351562 472.460938 C 447.492188 472.09375 447.609375 471.792969 447.699219 471.566406 C 447.449219 471.582031 447.101562 471.609375 446.648438 471.644531 C 446.195312 471.679688 445.730469 471.722656 445.25 471.777344 C 444.773438 471.828125 444.328125 471.890625 443.921875 471.960938 C 443.515625 472.03125 443.230469 472.101562 443.070312 472.171875 C 442.984375 472.242188 442.902344 472.40625 442.832031 472.671875 C 442.761719 472.933594 442.699219 473.136719 442.648438 473.277344 C 442.558594 473.523438 442.449219 473.816406 442.3125 474.160156 C 442.179688 474.503906 442.050781 474.851562 441.914062 475.210938 C 441.78125 475.570312 441.667969 475.917969 441.570312 476.253906 C 441.472656 476.585938 441.414062 476.859375 441.398438 477.070312 C 441.378906 477.207031 441.375 477.339844 441.382812 477.464844 C 441.394531 477.585938 441.390625 477.691406 441.371094 477.78125 C 441.351562 477.867188 441.3125 477.949219 441.25 478.03125 C 441.1875 478.109375 441.097656 478.175781 440.972656 478.226562 C 440.6875 478.351562 440.417969 478.324219 440.160156 478.148438 C 439.902344 477.972656 439.757812 477.761719 439.722656 477.515625 C 439.671875 477.199219 439.722656 476.824219 439.882812 476.386719 C 440.042969 475.945312 440.183594 475.550781 440.308594 475.203125 C 440.324219 475.132812 440.386719 474.960938 440.492188 474.6875 C 440.601562 474.417969 440.707031 474.132812 440.8125 473.832031 C 440.917969 473.535156 441.011719 473.257812 441.09375 473.003906 C 441.171875 472.75 441.203125 472.601562 441.1875 472.566406 C 441.148438 472.53125 441.027344 472.53125 440.8125 472.566406 C 440.601562 472.601562 440.367188 472.65625 440.109375 472.726562 C 439.851562 472.796875 439.617188 472.871094 439.40625 472.949219 C 439.191406 473.027344 439.066406 473.078125 439.03125 473.09375 C 438.910156 473.164062 438.800781 473.261719 438.714844 473.382812 C 438.625 473.507812 438.507812 473.585938 438.367188 473.621094 C 438.15625 473.675781 437.964844 473.65625 437.796875 473.570312 C 437.628906 473.480469 437.5 473.359375 437.410156 473.199219 C 437.324219 473.042969 437.28125 472.863281 437.289062 472.660156 C 437.300781 472.457031 437.386719 472.269531 437.542969 472.09375 C 437.703125 471.917969 437.929688 471.769531 438.222656 471.644531 C 438.515625 471.523438 438.832031 471.414062 439.179688 471.316406 C 439.523438 471.21875 439.878906 471.136719 440.242188 471.066406 C 440.605469 470.996094 440.9375 470.933594 441.238281 470.882812 C 441.328125 470.847656 441.4375 470.828125 441.570312 470.828125 C 441.703125 470.828125 441.789062 470.8125 441.820312 470.777344 C 441.894531 470.722656 441.96875 470.566406 442.046875 470.300781 C 442.125 470.039062 442.195312 469.839844 442.246094 469.695312 C 442.460938 469.136719 442.703125 468.480469 442.976562 467.734375 C 443.253906 466.988281 443.539062 466.230469 443.84375 465.460938 C 444.144531 464.6875 444.441406 463.933594 444.734375 463.195312 C 445.023438 462.457031 445.296875 461.808594 445.542969 461.25 C 445.667969 460.96875 445.785156 460.703125 445.902344 460.457031 C 446.015625 460.210938 446.234375 460.082031 446.554688 460.0625 C 446.75 460.042969 446.945312 460.105469 447.136719 460.246094 C 447.332031 460.386719 447.441406 460.589844 447.457031 460.851562 C 447.457031 461.046875 447.417969 461.191406 447.335938 461.289062 C 447.257812 461.382812 447.191406 461.484375 447.136719 461.589844 C 446.996094 461.855469 446.875 462.128906 446.765625 462.421875 C 446.660156 462.710938 446.542969 463.003906 446.421875 463.300781 C 446.242188 463.722656 446.035156 464.246094 445.796875 464.867188 C 445.558594 465.492188 445.308594 466.144531 445.050781 466.828125 C 444.796875 467.515625 444.542969 468.175781 444.292969 468.816406 C 444.046875 469.457031 443.84375 469.996094 443.683594 470.433594 Z M 455.59375 467.796875 C 455.84375 467.796875 456.058594 467.820312 456.246094 467.875 C 456.433594 467.925781 456.585938 467.988281 456.710938 468.058594 C 456.855469 468.128906 456.96875 468.214844 457.058594 468.320312 C 457.289062 468.320312 457.460938 468.382812 457.578125 468.507812 C 457.691406 468.628906 457.777344 468.777344 457.828125 468.953125 C 457.882812 469.128906 457.90625 469.300781 457.90625 469.46875 C 457.90625 469.632812 457.90625 469.769531 457.90625 469.875 C 457.90625 470.191406 457.871094 470.507812 457.800781 470.824219 C 457.730469 471.140625 457.644531 471.441406 457.546875 471.734375 C 457.453125 472.023438 457.355469 472.285156 457.253906 472.523438 C 457.160156 472.761719 457.082031 472.941406 457.03125 473.0625 C 457.066406 473.097656 457.101562 473.117188 457.136719 473.117188 C 457.207031 473.117188 457.300781 473.097656 457.417969 473.0625 C 457.53125 473.027344 457.640625 472.992188 457.75 472.957031 C 457.855469 472.921875 457.953125 472.882812 458.042969 472.839844 C 458.132812 472.792969 458.183594 472.765625 458.203125 472.746094 C 458.46875 472.625 458.714844 472.429688 458.945312 472.167969 C 459.175781 471.902344 459.394531 471.640625 459.597656 471.378906 C 459.800781 471.113281 459.988281 470.882812 460.15625 470.679688 C 460.324219 470.480469 460.488281 470.375 460.648438 470.375 C 460.878906 470.375 461.082031 470.4375 461.257812 470.5625 C 461.4375 470.683594 461.523438 470.84375 461.523438 471.035156 C 461.523438 471.140625 461.410156 471.386719 461.179688 471.773438 C 460.949219 472.15625 460.625 472.558594 460.210938 472.96875 C 459.792969 473.382812 459.296875 473.753906 458.722656 474.085938 C 458.144531 474.417969 457.503906 474.597656 456.792969 474.613281 C 456.707031 474.613281 456.621094 474.609375 456.542969 474.601562 C 456.464844 474.59375 456.394531 474.585938 456.34375 474.585938 C 456.238281 474.585938 456.117188 474.675781 455.984375 474.851562 C 455.851562 475.027344 455.691406 475.21875 455.503906 475.429688 C 455.320312 475.640625 455.09375 475.832031 454.828125 476.011719 C 454.5625 476.1875 454.242188 476.273438 453.871094 476.273438 C 453.054688 476.273438 452.453125 475.996094 452.0625 475.445312 C 451.671875 474.890625 451.476562 474.21875 451.476562 473.429688 C 451.476562 472.796875 451.582031 472.164062 451.785156 471.523438 C 451.988281 470.882812 452.273438 470.300781 452.636719 469.773438 C 453 469.246094 453.417969 468.800781 453.898438 468.445312 C 454.378906 468.082031 454.882812 467.871094 455.414062 467.796875 L 455.597656 467.796875 Z M 455.515625 469.292969 C 455.320312 469.292969 455.160156 469.339844 455.035156 469.425781 C 454.914062 469.515625 454.8125 469.621094 454.730469 469.742188 C 454.652344 469.867188 454.59375 469.984375 454.558594 470.097656 C 454.519531 470.210938 454.503906 470.304688 454.503906 470.375 C 454.503906 470.671875 454.535156 470.957031 454.597656 471.230469 C 454.660156 471.503906 454.742188 471.738281 454.847656 471.941406 C 454.957031 472.144531 455.066406 472.304688 455.179688 472.429688 C 455.296875 472.554688 455.40625 472.613281 455.511719 472.613281 C 455.566406 472.613281 455.636719 472.511719 455.726562 472.3125 C 455.816406 472.109375 455.902344 471.859375 455.992188 471.558594 C 456.078125 471.261719 456.164062 470.945312 456.242188 470.613281 C 456.320312 470.28125 456.363281 469.972656 456.363281 469.691406 L 456.257812 469.691406 C 456.078125 469.691406 455.953125 469.632812 455.882812 469.519531 C 455.8125 469.40625 455.707031 469.328125 455.566406 469.292969 L 455.511719 469.292969 Z M 453.894531 474.742188 C 453.945312 474.742188 454.027344 474.714844 454.132812 474.664062 C 454.238281 474.609375 454.335938 474.542969 454.425781 474.464844 C 454.515625 474.386719 454.59375 474.304688 454.664062 474.214844 C 454.734375 474.128906 454.769531 474.039062 454.769531 473.953125 C 454.507812 473.757812 454.214844 473.488281 453.894531 473.136719 C 453.574219 472.785156 453.363281 472.425781 453.257812 472.054688 C 453.1875 472.230469 453.128906 472.441406 453.082031 472.6875 C 453.039062 472.933594 453.019531 473.179688 453.019531 473.425781 C 453.019531 473.777344 453.074219 474.082031 453.191406 474.347656 C 453.304688 474.609375 453.515625 474.742188 453.816406 474.742188 Z M 465.269531 466.558594 C 465.5 466.558594 465.699219 466.617188 465.867188 466.742188 C 466.035156 466.863281 466.121094 467.050781 466.121094 467.292969 C 466.121094 467.644531 466.023438 467.847656 465.832031 467.902344 C 465.640625 467.953125 465.453125 468.023438 465.28125 468.109375 C 464.96875 468.304688 464.722656 468.597656 464.546875 468.992188 C 464.371094 469.390625 464.285156 469.832031 464.285156 470.320312 C 464.285156 470.621094 464.316406 470.917969 464.378906 471.21875 C 464.441406 471.515625 464.511719 471.820312 464.589844 472.125 C 464.667969 472.433594 464.738281 472.734375 464.800781 473.035156 C 464.867188 473.332031 464.894531 473.640625 464.894531 473.957031 C 464.894531 474.359375 464.84375 474.738281 464.734375 475.089844 C 464.628906 475.441406 464.472656 475.757812 464.265625 476.039062 C 464.0625 476.320312 463.804688 476.539062 463.496094 476.695312 C 463.179688 476.855469 462.820312 476.933594 462.410156 476.933594 C 461.929688 476.933594 461.488281 476.820312 461.078125 476.597656 C 460.671875 476.371094 460.316406 476.082031 460.023438 475.726562 C 459.730469 475.371094 459.5 474.972656 459.339844 474.523438 C 459.183594 474.078125 459.101562 473.644531 459.101562 473.222656 C 459.101562 472.835938 459.179688 472.4375 459.328125 472.027344 C 459.476562 471.613281 459.675781 471.234375 459.914062 470.894531 C 460.152344 470.550781 460.414062 470.273438 460.695312 470.050781 C 460.980469 469.832031 461.253906 469.722656 461.519531 469.722656 C 461.714844 469.722656 461.894531 469.789062 462.054688 469.921875 C 462.210938 470.050781 462.292969 470.222656 462.292969 470.433594 C 462.292969 470.730469 462.179688 470.949219 461.960938 471.09375 C 461.738281 471.234375 461.554688 471.363281 461.414062 471.488281 C 461.203125 471.679688 461.019531 471.9375 460.871094 472.265625 C 460.71875 472.589844 460.644531 472.945312 460.644531 473.328125 C 460.644531 473.523438 460.683594 473.738281 460.765625 473.976562 C 460.84375 474.210938 460.96875 474.4375 461.128906 474.660156 C 461.289062 474.878906 461.480469 475.0625 461.703125 475.214844 C 461.929688 475.363281 462.171875 475.4375 462.445312 475.4375 C 462.800781 475.4375 463.042969 475.3125 463.167969 475.066406 C 463.292969 474.824219 463.355469 474.511719 463.355469 474.144531 C 463.355469 473.808594 463.324219 473.484375 463.257812 473.164062 C 463.191406 472.847656 463.125 472.542969 463.050781 472.242188 C 462.976562 471.945312 462.910156 471.632812 462.84375 471.316406 C 462.777344 471.003906 462.746094 470.660156 462.746094 470.292969 C 462.746094 469.882812 462.800781 469.472656 462.90625 469.050781 C 463.011719 468.625 463.167969 468.238281 463.371094 467.890625 C 463.574219 467.539062 463.828125 467.242188 464.128906 467.003906 C 464.429688 466.765625 464.773438 466.621094 465.164062 466.570312 L 465.273438 466.570312 Z M 465.269531 466.558594 "/>
<path style=" stroke:none;fill-rule:nonzero;fill:rgb(90.196078%,90.196078%,90.196078%);fill-opacity:1;" d="M 470.769531 464.476562 C 471.566406 464.445312 472.359375 464.382812 473.148438 464.292969 C 473.9375 464.207031 474.765625 464.160156 475.632812 464.160156 C 475.96875 464.160156 476.265625 464.152344 476.523438 464.136719 C 476.78125 464.117188 476.988281 464.179688 477.148438 464.320312 C 477.253906 464.40625 477.328125 464.523438 477.375 464.664062 C 477.417969 464.800781 477.425781 464.945312 477.398438 465.082031 C 477.375 465.222656 477.320312 465.351562 477.238281 465.464844 C 477.160156 465.578125 477.046875 465.65625 476.90625 465.691406 C 476.800781 465.722656 476.695312 465.730469 476.585938 465.703125 C 476.480469 465.675781 476.367188 465.664062 476.242188 465.664062 C 475.941406 465.644531 475.484375 465.65625 474.875 465.691406 C 474.261719 465.722656 473.632812 465.769531 472.988281 465.820312 C 472.339844 465.875 471.75 465.925781 471.21875 465.980469 C 470.6875 466.03125 470.339844 466.066406 470.179688 466.085938 C 470.179688 466.085938 470.15625 466.132812 470.101562 466.230469 C 470.050781 466.328125 469.996094 466.433594 469.941406 466.546875 C 469.890625 466.660156 469.835938 466.777344 469.78125 466.902344 C 469.730469 467.023438 469.695312 467.113281 469.675781 467.164062 C 469.304688 468.113281 468.996094 469.011719 468.746094 469.863281 C 468.496094 470.714844 468.242188 471.683594 467.976562 472.773438 C 467.90625 473.105469 467.824219 473.542969 467.738281 474.085938 C 467.738281 474.15625 467.726562 474.257812 467.710938 474.390625 C 467.691406 474.523438 467.683594 474.660156 467.683594 474.796875 C 467.683594 474.9375 467.695312 475.066406 467.722656 475.179688 C 467.75 475.292969 467.800781 475.359375 467.871094 475.378906 C 467.921875 475.394531 467.988281 475.378906 468.070312 475.324219 C 468.148438 475.273438 468.230469 475.214844 468.308594 475.152344 C 468.386719 475.09375 468.457031 475.027344 468.519531 474.957031 C 468.582031 474.886719 468.621094 474.84375 468.640625 474.824219 C 469.046875 474.261719 469.421875 473.703125 469.757812 473.140625 C 470.09375 472.578125 470.4375 471.972656 470.792969 471.324219 C 470.917969 471.097656 471.054688 470.859375 471.207031 470.613281 C 471.355469 470.367188 471.582031 470.238281 471.882812 470.21875 C 472.132812 470.199219 472.34375 470.265625 472.519531 470.414062 C 472.699219 470.566406 472.742188 470.746094 472.65625 470.957031 C 472.601562 471.113281 472.5 471.347656 472.347656 471.652344 C 472.199219 471.960938 472.015625 472.300781 471.804688 472.679688 C 471.589844 473.058594 471.359375 473.457031 471.113281 473.878906 C 470.863281 474.300781 470.609375 474.691406 470.355469 475.050781 C 470.097656 475.410156 469.847656 475.734375 469.609375 476.023438 C 469.371094 476.3125 469.152344 476.511719 468.957031 476.617188 C 468.621094 476.828125 468.292969 476.921875 467.976562 476.90625 C 467.65625 476.886719 467.367188 476.792969 467.109375 476.617188 C 466.855469 476.441406 466.636719 476.210938 466.460938 475.929688 C 466.28125 475.648438 466.183594 475.34375 466.164062 475.007812 C 466.128906 474.554688 466.15625 474.117188 466.246094 473.707031 C 466.332031 473.296875 466.421875 472.886719 466.511719 472.484375 C 466.757812 471.328125 467.03125 470.25 467.332031 469.261719 C 467.632812 468.269531 467.988281 467.273438 468.398438 466.273438 C 467.085938 466.394531 465.742188 466.488281 464.371094 466.550781 C 462.996094 466.609375 461.617188 466.640625 460.234375 466.640625 C 460.113281 466.640625 459.988281 466.660156 459.863281 466.695312 C 459.738281 466.726562 459.605469 466.726562 459.464844 466.695312 C 459.304688 466.640625 459.183594 466.550781 459.09375 466.417969 C 459.003906 466.285156 458.960938 466.144531 458.960938 465.996094 C 458.960938 465.847656 458.992188 465.707031 459.050781 465.574219 C 459.113281 465.441406 459.214844 465.34375 459.359375 465.273438 C 459.480469 465.199219 459.644531 465.15625 459.851562 465.140625 C 460.054688 465.121094 460.265625 465.113281 460.488281 465.113281 C 460.710938 465.113281 460.929688 465.117188 461.152344 465.125 C 461.375 465.136719 461.574219 465.140625 461.75 465.140625 C 462.867188 465.105469 463.894531 465.0625 464.835938 465.007812 C 465.773438 464.957031 466.785156 464.882812 467.863281 464.796875 C 468.042969 464.761719 468.25 464.746094 468.488281 464.746094 C 468.726562 464.746094 468.890625 464.71875 468.980469 464.664062 C 469.015625 464.648438 469.054688 464.601562 469.101562 464.519531 C 469.144531 464.441406 469.191406 464.347656 469.246094 464.246094 C 469.300781 464.140625 469.347656 464.039062 469.394531 463.941406 C 469.4375 463.84375 469.46875 463.769531 469.484375 463.71875 C 469.554688 463.507812 469.683594 463.15625 469.871094 462.664062 C 470.054688 462.171875 470.269531 461.667969 470.507812 461.152344 C 470.746094 460.632812 470.996094 460.171875 471.25 459.769531 C 471.507812 459.367188 471.753906 459.148438 471.984375 459.109375 C 472.214844 459.078125 472.417969 459.117188 472.59375 459.230469 C 472.769531 459.34375 472.875 459.5 472.914062 459.691406 C 472.949219 459.9375 472.90625 460.152344 472.792969 460.335938 C 472.675781 460.519531 472.574219 460.699219 472.488281 460.875 C 472.148438 461.488281 471.832031 462.105469 471.53125 462.71875 C 471.230469 463.332031 470.972656 463.917969 470.757812 464.480469 Z M 470.769531 464.476562 "/>
</g>
</svg>
