<?xml version="1.0" encoding="UTF-8"?>
<!DOCTYPE svg PUBLIC "-//W3C//DTD SVG 1.1//EN" "http://www.w3.org/Graphics/SVG/1.1/DTD/svg11.dtd">
<!-- Creator: CorelDRAW 2018 (64-Bit) -->
<svg xmlns="http://www.w3.org/2000/svg" xml:space="preserve" width="638px" height="374px" version="1.1" style="shape-rendering:geometricPrecision; text-rendering:geometricPrecision; image-rendering:optimizeQuality; fill-rule:evenodd; clip-rule:evenodd"
viewBox="0 0 638 374.369"
 xmlns:xlink="http://www.w3.org/1999/xlink">
 <defs>
  <style type="text/css">
   <![CDATA[
    .fil0 {fill:white}
   ]]>
  </style>
 </defs>
 <g id="Layer_x0020_1">
  <metadata id="CorelCorpID_0Corel-Layer"/>
  <path class="fil0" d="M189.261 73.721l1.626 -6.232c1.857,-7.121 7.272,-12.222 14.492,-13.649l26.215 -5.182c9.59,-1.896 18.967,3.84 21.648,13.241l1.806 6.337c1.459,-4.224 3.363,-8.228 5.647,-11.838 6.276,-9.921 16.681,-17.534 27.394,-22.063 14.338,-6.06 28.852,-6.587 40.579,-1.831 2.591,-4.223 6.843,-7.328 12.037,-8.446l72.207 -15.532c1.667,-0.359 3.309,-0.503 4.913,-0.436 2.271,-1.714 4.969,-2.928 7.956,-3.479l23.174 -4.273c5.662,-1.044 10.956,0.341 15.381,4.026 4.425,3.684 6.747,8.639 6.747,14.396l-0.007 100.606c2.053,0.804 3.984,2.002 5.747,3.581 4.523,4.051 6.68,9.476 6.171,15.527l-3.106 36.89c1.335,2.586 2.016,5.484 2.007,8.618l-0.036 14.26c-0.022,8.405 -5.343,15.517 -13.4,17.909 -6.906,2.05 -12.849,3.757 -20.264,2.964 -1.221,-0.13 -2.402,-0.374 -3.534,-0.721 -3.784,2.846 -8.002,5.154 -12.207,6.809 -8.49,3.345 -16.669,4.067 -23.878,2.517 -0.179,0.124 -0.36,0.246 -0.545,0.365 -6.836,4.426 -16.064,6.371 -24.165,6.601 -2.734,0.077 -5.35,-0.416 -7.726,-1.388 -2.694,3.324 -6.5,5.609 -11.001,6.471l-11.44 2.191c0.262,1.247 0.401,2.537 0.401,3.86l0 6.286c5.525,0.41 10.651,2.394 14.913,5.779 6.274,-4.077 13.812,-5.859 21.676,-5.859 8.525,0 16.664,2.087 23.23,6.921 6.955,-4.87 15.193,-6.921 23.734,-6.921 4.014,0 7.989,0.543 11.808,1.719l0 -4.702c0,-10.318 8.414,-18.733 18.732,-18.733l12.925 0c3.609,0 6.985,1.03 9.849,2.81 2.864,-1.78 6.241,-2.81 9.85,-2.81l12.925 0c10.318,0 18.732,8.415 18.732,18.733l0 3.896 6.568 0c1.845,0 3.628,0.268 5.314,0.769 3.64,-1.13 7.419,-1.682 11.249,-1.682 6.41,0 12.382,2.075 17.22,5.969 6.141,-4.056 13.211,-5.969 20.591,-5.969 4.381,0 8.751,0.671 12.86,2.219 0.203,0.077 0.404,0.155 0.605,0.235 3.119,-1.314 6.514,-2.124 10.138,-2.363 0.431,-0.028 0.8,-0.04 1.232,-0.04 0.103,0 0.207,0 0.31,0 0.126,0 0.253,0 0.379,0 0.11,0 0.219,0 0.328,0 10.318,0 18.732,8.414 18.732,18.732l0 10.548c0,5.637 -2.513,10.707 -6.475,14.146 -0.12,6.018 -1.127,11.986 -3.337,17.607 -0.355,0.906 -0.742,1.793 -1.16,2.658 0.523,0.425 1.033,0.868 1.528,1.329 2.949,2.747 5.239,6.092 6.864,9.773 1.771,4.008 2.58,8.297 2.58,12.669 0,4.812 -0.902,9.541 -2.868,13.945 -1.878,4.205 -4.57,7.954 -8.03,11.003 -3.056,2.691 -6.557,4.78 -10.323,6.312 -3.32,1.35 -6.783,2.293 -10.324,2.846 -3.245,0.507 -6.532,0.724 -9.816,0.724 -1.416,0 -2.835,0.005 -4.251,-0.02 -1.517,-0.026 -3.036,-0.091 -4.552,-0.15 -2.17,-0.086 -4.353,-0.253 -6.501,-0.583 -1.558,-0.238 -3.11,-0.518 -4.658,-0.809 -2.873,-0.539 -5.682,-1.367 -8.328,-2.621 -1.961,-0.93 -3.841,-2.021 -5.615,-3.273 -3.462,-2.44 -6.252,-5.671 -8.104,-9.482 -0.381,-0.785 -0.721,-1.585 -1.017,-2.399l-1.645 0c-2.27,0 -4.447,-0.408 -6.464,-1.153 -2.015,0.745 -4.193,1.153 -6.462,1.153l-12.925 0c-2.167,0 -4.248,-0.371 -6.187,-1.053 -1.939,0.682 -4.021,1.053 -6.188,1.053l-12.925 0c-1.524,0 -3.007,-0.184 -4.427,-0.53 -1.058,0.326 -2.159,0.562 -3.295,0.701 -3.385,0.414 -6.841,0.742 -10.253,0.742 -7.891,0 -15.502,-2.007 -21.564,-6.845 -6.932,4.815 -15.129,6.845 -23.625,6.845 -8.458,0 -16.42,-2.406 -22.958,-7.515 -6.698,5.253 -15.149,7.515 -24.006,7.515 -6.713,0 -13.194,-1.304 -18.854,-4.225 -3.021,2.088 -6.68,3.312 -10.616,3.312l-12.926 0c-2.269,0 -4.447,-0.408 -6.463,-1.153 -2.016,0.745 -4.193,1.153 -6.463,1.153l-8.331 0c-0.119,4.975 -2.14,9.706 -5.668,13.235 -3.638,3.637 -8.555,5.673 -13.7,5.673l-2.138 0c-3.633,0 -7.209,-0.481 -10.574,-1.645 -3.607,1.376 -7.481,2.019 -11.447,2.019 -3.964,0 -7.837,-0.635 -11.445,-2.001 -3.642,1.401 -7.567,2.056 -11.591,2.056 -3.153,0 -6.245,-0.406 -9.185,-1.26 -1.805,0.547 -3.698,0.831 -5.621,0.831l-6.254 0c-1.211,0 -2.409,-0.112 -3.58,-0.332 -1.173,0.22 -2.371,0.332 -3.582,0.332l-6.254 0c-0.891,0 -1.774,-0.06 -2.646,-0.18 -0.871,0.12 -1.755,0.18 -2.645,0.18l-6.254 0c-0.473,0 -0.944,-0.016 -1.412,-0.051 -1.452,0.27 -2.941,0.427 -4.453,0.471 -0.192,0.006 -0.356,0.009 -0.549,0.009 -2.431,0 -4.817,-0.298 -7.114,-0.891 -1.374,0.305 -2.787,0.462 -4.217,0.462l-6.254 0c-1.037,0 -2.064,-0.082 -3.074,-0.244 -1.008,0.162 -2.036,0.244 -3.073,0.244l-6.2 0c-1.037,0 -2.064,-0.082 -3.073,-0.244 -1.009,0.162 -2.037,0.244 -3.074,0.244l-6.253 0c-0.891,0 -1.774,-0.06 -2.646,-0.18 -0.871,0.12 -1.755,0.18 -2.645,0.18l-6.254 0c-0.336,0 -0.672,-0.008 -1.007,-0.026 -1.569,0.271 -3.163,0.4 -4.765,0.4 -3.383,0 -6.666,-0.592 -9.722,-1.763 -3.448,1.236 -7.135,1.818 -10.91,1.818 -5.186,0 -10.2,-1.11 -14.648,-3.502 -3.1,1.994 -6.727,3.073 -10.475,3.073l-6.253 0c-1.943,0 -3.854,-0.29 -5.675,-0.847 -1.768,0.523 -3.616,0.794 -5.496,0.794l-6.254 0c-0.765,0 -1.526,-0.045 -2.278,-0.134 -0.887,0.125 -1.786,0.187 -2.693,0.187l-6.253 0c-0.473,0 -0.943,-0.016 -1.412,-0.051 -1.452,0.27 -2.941,0.427 -4.453,0.471 -0.192,0.006 -0.356,0.009 -0.549,0.009 -3.835,0 -7.559,-0.742 -11.003,-2.215 -3.359,1.198 -6.95,1.786 -10.644,1.786l-9.674 0c-5.144,0 -10.062,-2.036 -13.7,-5.673 -3.637,-3.638 -5.673,-8.555 -5.673,-13.7l0 -36.132c0,-4.871 1.825,-9.538 5.108,-13.109 -3.648,-7.817 -5.109,-16.629 -5.109,-25.575l0 -44.126c0,-14.921 4.065,-29.472 15.565,-39.652 0.567,-0.502 1.143,-0.988 1.725,-1.458 -0.705,-1.057 -1.373,-2.168 -2.003,-3.335 -10.142,-5.905 -13.197,-14.241 -13.721,-24.612 -5.158,-5.127 -9.059,-11.273 -10.2,-18.842 -0.88,-5.838 -0.023,-9.047 1.146,-13.541 -3.473,-7.878 -4.286,-16.508 -1.291,-24.889 4.515,-12.631 16.314,-20.767 29.306,-25.626 -5.097,-17.117 -4.292,-35.768 7.277,-50.31 10.304,-12.95 27.329,-19.366 43.526,-15.292 3.143,0.79 6.182,1.967 9.032,3.51 15.781,8.538 16.786,29.865 16.529,45.632 -0.063,3.826 -0.233,7.648 -0.449,11.466 2.36,-2.003 5.252,-3.439 8.501,-4.093 6.181,-1.242 12.359,-3.089 18.462,-4.699 16.489,-4.346 36.001,-8.602 51.483,1.121 1.335,0.839 2.585,1.746 3.75,2.716zm124.131 44.391c3.069,21.638 -19.987,27.761 -22.403,5.057 -7.968,0.665 -16.909,3.203 -22.767,6.941 -0.179,41.935 45.454,31.548 60.691,11.696 7.116,-9.27 13.125,-30.296 4.968,-43.867 -9.148,-15.208 -25.715,-8.395 -39.521,-14.287 -4.327,-4.246 2.275,-26.813 19.725,-5.869 0.263,0.318 0.741,0.883 1.154,1.281 3.698,-0.74 6.828,-1.436 10.388,-2.52l9.346 -4.507c-2.341,-37.306 -46.419,-24.638 -58.448,-5.624 -7.151,11.305 -8.907,29.435 -0.27,38.699 10.355,11.107 26.208,5.752 37.137,13zm-283.395 237.097c-0.178,0 -0.33,-0.063 -0.454,-0.188 -0.125,-0.124 -0.188,-0.276 -0.188,-0.454l0 -36.132c0,-0.178 0.063,-0.33 0.188,-0.454 0.124,-0.125 0.276,-0.187 0.454,-0.187l9.674 0c3.243,0 5.845,0.944 7.804,2.833 1.96,1.888 2.94,4.401 2.94,7.537l0 16.676c0,3.135 -0.98,5.647 -2.94,7.535 -1.959,1.889 -4.561,2.834 -7.804,2.834l-9.674 0zm6.895 -6.736c0,0.179 0.089,0.269 0.267,0.269l2.406 -0.054c0.961,-0.036 1.745,-0.446 2.351,-1.23 0.606,-0.784 0.927,-1.817 0.962,-3.1l0 -15.714c0,-1.354 -0.302,-2.423 -0.908,-3.207 -0.606,-0.784 -1.426,-1.175 -2.459,-1.175l-2.352 0c-0.178,0 -0.267,0.088 -0.267,0.267l0 23.944zm27.526 -21.164c3.029,0 5.488,0.819 7.377,2.458 1.888,1.639 2.832,3.794 2.832,6.467l0 18.333c0,0.178 -0.062,0.33 -0.187,0.454 -0.125,0.125 -0.276,0.188 -0.455,0.188l-6.253 0c-0.178,0 -0.329,-0.063 -0.454,-0.188 -0.125,-0.124 -0.187,-0.276 -0.187,-0.454l0 -1.175c0,-0.107 -0.035,-0.179 -0.108,-0.215 -0.071,-0.035 -0.142,0 -0.213,0.108 -1.176,1.496 -2.993,2.28 -5.452,2.352 -2.066,0 -3.857,-0.571 -5.372,-1.711 -1.514,-1.14 -2.271,-3.314 -2.271,-6.521 0,-3.314 0.917,-5.594 2.753,-6.842 1.835,-1.247 4.48,-1.87 7.937,-1.87l2.458 0c0.179,0 0.268,-0.089 0.268,-0.267l0 -1.337c0,-0.962 -0.258,-1.755 -0.775,-2.379 -0.517,-0.623 -1.167,-0.934 -1.951,-0.934 -0.606,0 -1.114,0.186 -1.523,0.561 -0.411,0.373 -0.669,0.9 -0.776,1.576 -0.035,0.428 -0.267,0.642 -0.695,0.642l-6.413 -0.054c-0.427,0 -0.642,-0.213 -0.642,-0.642 0.179,-2.6 1.194,-4.676 3.047,-6.226 1.853,-1.55 4.205,-2.324 7.055,-2.324zm-0.534 22.501c0.82,0 1.559,-0.276 2.218,-0.828 0.659,-0.552 0.989,-1.293 0.989,-2.219l0 -2.512c0,-0.178 -0.089,-0.266 -0.268,-0.266l-2.19 0c-0.963,0 -1.738,0.276 -2.326,0.827 -0.588,0.553 -0.882,1.31 -0.882,2.273 0,0.89 0.223,1.567 0.668,2.03 0.445,0.464 1.043,0.695 1.791,0.695zm26.724 -22.395c0.962,0 1.711,0.178 2.245,0.534 0.285,0.179 0.392,0.446 0.321,0.802l-1.016 6.253c-0.035,0.393 -0.285,0.535 -0.748,0.428 -0.392,-0.142 -0.873,-0.213 -1.443,-0.213 -0.534,0 -0.998,0.071 -1.389,0.213 -0.82,0.143 -1.479,0.633 -1.979,1.47 -0.499,0.837 -0.748,1.808 -0.748,2.913l0 14.699c0,0.178 -0.062,0.329 -0.187,0.454 -0.125,0.125 -0.276,0.187 -0.454,0.187l-6.254 0c-0.178,0 -0.33,-0.062 -0.454,-0.187 -0.125,-0.125 -0.187,-0.276 -0.187,-0.454l0 -26.137c0,-0.178 0.062,-0.33 0.187,-0.454 0.124,-0.125 0.276,-0.188 0.454,-0.188l6.254 0c0.178,0 0.329,0.063 0.454,0.188 0.125,0.124 0.187,0.276 0.187,0.454l0 2.085c0,0.142 0.027,0.222 0.081,0.239 0.053,0.018 0.115,-0.026 0.187,-0.132 0.962,-2.103 2.459,-3.154 4.489,-3.154zm8.819 -2.78c-1.211,0 -2.218,-0.401 -3.019,-1.202 -0.802,-0.802 -1.203,-1.809 -1.203,-3.02 0,-1.247 0.392,-2.263 1.176,-3.047 0.784,-0.784 1.8,-1.176 3.046,-1.176 1.248,0 2.254,0.392 3.021,1.176 0.766,0.784 1.149,1.8 1.149,3.047 0,1.211 -0.393,2.218 -1.177,3.02 -0.783,0.801 -1.781,1.202 -2.993,1.202zm-3.046 30.574c-0.179,0 -0.329,-0.063 -0.455,-0.188 -0.124,-0.124 -0.186,-0.276 -0.186,-0.454l0 -26.19c0,-0.178 0.062,-0.33 0.186,-0.454 0.126,-0.125 0.276,-0.188 0.455,-0.188l6.253 0c0.179,0 0.33,0.063 0.455,0.188 0.125,0.124 0.187,0.276 0.187,0.454l0 26.19c0,0.178 -0.062,0.33 -0.187,0.454 -0.125,0.125 -0.276,0.188 -0.455,0.188l-6.253 0zm31.376 0.428c-3.136,0 -5.604,-0.802 -7.404,-2.406 -1.799,-1.604 -2.699,-3.795 -2.699,-6.574l0 -10.369c0,-2.709 0.9,-4.882 2.699,-6.521 1.8,-1.639 4.268,-2.458 7.404,-2.458 3.135,0 5.603,0.801 7.402,2.405 1.8,1.603 2.7,3.687 2.7,6.253l0 0.962c0,0.178 -0.063,0.33 -0.188,0.454 -0.124,0.125 -0.276,0.188 -0.454,0.188l-6.254 0.267c-0.428,0 -0.641,-0.214 -0.641,-0.642l0 -0.641c0,-0.784 -0.241,-1.444 -0.721,-1.978 -0.482,-0.534 -1.096,-0.801 -1.844,-0.801 -0.784,0 -1.408,0.284 -1.871,0.855 -0.464,0.57 -0.695,1.317 -0.695,2.245l0 9.192c0,0.928 0.231,1.676 0.695,2.245 0.463,0.571 1.087,0.856 1.871,0.856 0.748,0 1.362,-0.277 1.844,-0.828 0.48,-0.553 0.721,-1.203 0.721,-1.951l0 -0.695c0,-0.178 0.063,-0.33 0.187,-0.455 0.125,-0.124 0.276,-0.187 0.454,-0.187l6.254 0.054c0.178,0 0.33,0.062 0.454,0.187 0.125,0.125 0.188,0.276 0.188,0.454l0 1.23c0,2.636 -0.9,4.739 -2.7,6.307 -1.799,1.568 -4.267,2.352 -7.402,2.352zm25.762 -27.26c0,-0.178 0.063,-0.33 0.188,-0.454 0.124,-0.125 0.276,-0.188 0.454,-0.188l6.254 0c0.178,0 0.329,0.063 0.454,0.188 0.125,0.124 0.187,0.276 0.187,0.454l0 26.19c0,0.178 -0.062,0.33 -0.187,0.454 -0.125,0.125 -0.276,0.188 -0.454,0.188l-6.254 0c-0.178,0 -0.33,-0.063 -0.454,-0.188 -0.125,-0.124 -0.188,-0.276 -0.188,-0.454l0 -0.908c0,-0.107 -0.035,-0.179 -0.106,-0.214 -0.071,-0.036 -0.143,0 -0.214,0.107 -0.535,0.748 -1.203,1.274 -2.004,1.576 -0.802,0.303 -1.738,0.454 -2.806,0.454 -2.139,0 -3.902,-0.65 -5.292,-1.951 -1.39,-1.299 -2.085,-3.304 -2.085,-6.013l0 -19.241c0,-0.178 0.063,-0.33 0.188,-0.454 0.124,-0.125 0.276,-0.188 0.454,-0.188l6.253 0c0.178,0 0.33,0.063 0.454,0.188 0.125,0.124 0.188,0.276 0.188,0.454l0 17.585c0,1.034 0.205,1.826 0.614,2.379 0.41,0.551 1.007,0.828 1.791,0.828 0.784,0 1.408,-0.303 1.871,-0.909 0.463,-0.606 0.694,-1.426 0.694,-2.458l0 -17.425zm36.56 -1.068c2.423,0 4.241,0.819 5.451,2.458 1.212,1.639 1.818,3.937 1.818,6.894l0 17.906c0,0.178 -0.062,0.33 -0.187,0.454 -0.124,0.125 -0.276,0.188 -0.454,0.188l-6.254 0c-0.178,0 -0.329,-0.063 -0.454,-0.188 -0.125,-0.124 -0.187,-0.276 -0.187,-0.454l0 -17.424c0,-1.069 -0.214,-1.898 -0.642,-2.486 -0.427,-0.587 -0.997,-0.881 -1.71,-0.881 -0.784,0 -1.398,0.294 -1.844,0.881 -0.445,0.588 -0.668,1.417 -0.668,2.486l0 17.424c0,0.178 -0.063,0.33 -0.187,0.454 -0.125,0.125 -0.277,0.188 -0.455,0.188l-6.2 0c-0.178,0 -0.33,-0.063 -0.454,-0.188 -0.125,-0.124 -0.187,-0.276 -0.187,-0.454l0 -17.424c0,-1.069 -0.214,-1.898 -0.642,-2.486 -0.427,-0.587 -0.997,-0.881 -1.71,-0.881 -0.784,0 -1.399,0.294 -1.845,0.881 -0.444,0.588 -0.667,1.417 -0.667,2.486l0 17.424c0,0.178 -0.062,0.33 -0.188,0.454 -0.124,0.125 -0.275,0.188 -0.454,0.188l-6.253 0c-0.178,0 -0.33,-0.063 -0.455,-0.188 -0.124,-0.124 -0.186,-0.276 -0.186,-0.454l0 -26.19c0,-0.178 0.062,-0.33 0.186,-0.454 0.125,-0.125 0.277,-0.188 0.455,-0.188l6.253 0c0.179,0 0.33,0.063 0.454,0.188 0.126,0.124 0.188,0.276 0.188,0.454l0 0.695c0,0.107 0.035,0.178 0.107,0.214 0.071,0.035 0.142,0.017 0.214,-0.054 0.712,-0.713 1.496,-1.212 2.352,-1.497 0.855,-0.284 1.674,-0.426 2.458,-0.426 2.779,0 4.775,1.104 5.986,3.313l0.107 0.053c0.108,0 0.232,-0.106 0.375,-0.321 0.748,-1.14 1.647,-1.933 2.699,-2.378 1.051,-0.446 2.111,-0.667 3.18,-0.667zm21.059 0c3.029,0 5.487,0.819 7.377,2.458 1.888,1.639 2.832,3.794 2.832,6.467l0 18.333c0,0.178 -0.062,0.33 -0.187,0.454 -0.125,0.125 -0.276,0.188 -0.454,0.188l-6.254 0c-0.178,0 -0.329,-0.063 -0.455,-0.188 -0.124,-0.124 -0.186,-0.276 -0.186,-0.454l0 -1.175c0,-0.107 -0.036,-0.179 -0.108,-0.215 -0.071,-0.035 -0.142,0 -0.213,0.108 -1.176,1.496 -2.994,2.28 -5.452,2.352 -2.066,0 -3.857,-0.571 -5.371,-1.711 -1.515,-1.14 -2.272,-3.314 -2.272,-6.521 0,-3.314 0.917,-5.594 2.753,-6.842 1.835,-1.247 4.481,-1.87 7.937,-1.87l2.458 0c0.179,0 0.268,-0.089 0.268,-0.267l0 -1.337c0,-0.962 -0.258,-1.755 -0.776,-2.379 -0.517,-0.623 -1.166,-0.934 -1.95,-0.934 -0.606,0 -1.114,0.186 -1.523,0.561 -0.41,0.373 -0.669,0.9 -0.776,1.576 -0.035,0.428 -0.267,0.642 -0.695,0.642l-6.414 -0.054c-0.427,0 -0.641,-0.213 -0.641,-0.642 0.179,-2.6 1.194,-4.676 3.046,-6.226 1.854,-1.55 4.206,-2.324 7.056,-2.324zm-0.534 22.501c0.82,0 1.559,-0.276 2.218,-0.828 0.659,-0.552 0.989,-1.293 0.989,-2.219l0 -2.512c0,-0.178 -0.089,-0.266 -0.268,-0.266l-2.19 0c-0.963,0 -1.738,0.276 -2.326,0.827 -0.588,0.553 -0.882,1.31 -0.882,2.273 0,0.89 0.223,1.567 0.668,2.03 0.445,0.464 1.043,0.695 1.791,0.695zm28.167 -31.375c0,-0.178 0.063,-0.33 0.188,-0.454 0.124,-0.125 0.276,-0.187 0.454,-0.187l6.254 0c0.178,0 0.329,0.062 0.454,0.187 0.125,0.124 0.187,0.276 0.187,0.454l0 36.132c0,0.178 -0.062,0.33 -0.187,0.454 -0.125,0.125 -0.276,0.188 -0.454,0.188l-6.254 0c-0.178,0 -0.33,-0.063 -0.454,-0.188 -0.125,-0.124 -0.188,-0.276 -0.188,-0.454l0 -14.591c0,-0.179 -0.089,-0.268 -0.267,-0.268l-5.345 0c-0.178,0 -0.267,0.089 -0.267,0.268l0 14.591c0,0.178 -0.063,0.33 -0.187,0.454 -0.124,0.125 -0.276,0.188 -0.454,0.188l-6.254 0c-0.178,0 -0.329,-0.063 -0.454,-0.188 -0.125,-0.124 -0.187,-0.276 -0.187,-0.454l0 -36.132c0,-0.178 0.062,-0.33 0.187,-0.454 0.125,-0.125 0.276,-0.187 0.454,-0.187l6.254 0c0.178,0 0.33,0.062 0.454,0.187 0.124,0.124 0.187,0.276 0.187,0.454l0 14.539c0,0.178 0.089,0.267 0.267,0.267l5.345 0c0.178,0 0.267,-0.089 0.267,-0.267l0 -14.539zm21.702 37.202c-3.172,0 -5.658,-0.802 -7.457,-2.406 -1.799,-1.604 -2.699,-3.795 -2.699,-6.574l0 -10.369c0,-2.709 0.908,-4.882 2.726,-6.521 1.817,-1.639 4.294,-2.458 7.43,-2.458 3.171,0 5.665,0.819 7.483,2.458 1.817,1.639 2.725,3.812 2.725,6.521l0 10.369c0,2.779 -0.9,4.97 -2.699,6.574 -1.799,1.604 -4.303,2.406 -7.509,2.406zm0 -6.522c0.783,0 1.425,-0.285 1.923,-0.855 0.499,-0.571 0.748,-1.3 0.748,-2.192l0 -9.246c0,-0.891 -0.249,-1.621 -0.748,-2.191 -0.498,-0.571 -1.14,-0.855 -1.923,-0.855 -0.784,0 -1.417,0.284 -1.898,0.855 -0.481,0.57 -0.721,1.3 -0.721,2.191l0 9.246c0,0.892 0.24,1.621 0.721,2.192 0.481,0.57 1.114,0.855 1.898,0.855zm23.036 6.467c-3.029,0 -5.443,-0.721 -7.242,-2.164 -1.8,-1.443 -2.699,-3.377 -2.699,-5.8l0 -0.373c0,-0.178 0.062,-0.33 0.186,-0.454 0.126,-0.125 0.276,-0.188 0.455,-0.188l5.879 0c0.179,0 0.33,0.063 0.455,0.188 0.124,0.124 0.187,0.276 0.187,0.454l0 0.16c0,0.748 0.267,1.363 0.802,1.844 0.534,0.481 1.193,0.721 1.977,0.721 0.713,0 1.274,-0.204 1.684,-0.614 0.409,-0.409 0.614,-0.936 0.614,-1.577 0,-0.783 -0.338,-1.399 -1.015,-1.843 -0.677,-0.446 -1.434,-0.82 -2.271,-1.124 -0.839,-0.302 -1.417,-0.507 -1.737,-0.614 -1.961,-0.713 -3.608,-1.702 -4.945,-2.966 -1.337,-1.266 -2.004,-3.092 -2.004,-5.479 0,-2.601 0.855,-4.651 2.565,-6.147 1.71,-1.496 3.991,-2.244 6.842,-2.244 2.958,0 5.3,0.784 7.028,2.352 1.729,1.567 2.593,3.687 2.593,6.36 0,0.178 -0.062,0.33 -0.188,0.454 -0.124,0.125 -0.275,0.186 -0.454,0.186l-5.719 0c-0.178,0 -0.329,-0.061 -0.454,-0.186 -0.125,-0.124 -0.187,-0.276 -0.187,-0.454l0 -0.428c0,-0.713 -0.223,-1.292 -0.668,-1.738 -0.446,-0.444 -1.025,-0.667 -1.737,-0.667 -0.749,0 -1.336,0.24 -1.764,0.721 -0.428,0.482 -0.641,1.042 -0.641,1.684 0,0.855 0.364,1.524 1.095,2.004 0.731,0.481 1.844,1.007 3.341,1.577 1.532,0.57 2.842,1.15 3.928,1.737 1.088,0.588 2.022,1.425 2.806,2.513 0.784,1.086 1.177,2.449 1.177,4.088 0,2.459 -0.9,4.41 -2.7,5.853 -1.799,1.443 -4.196,2.164 -7.189,2.164zm25.335 -23.196c0,0.178 -0.062,0.329 -0.186,0.454 -0.125,0.124 -0.277,0.187 -0.455,0.187l-2.993 0c-0.178,0 -0.267,0.089 -0.267,0.267l0 12.721c0,1.034 0.196,1.747 0.587,2.138 0.393,0.393 0.981,0.571 1.765,0.535l0.373 0c0.178,0 0.33,0.062 0.455,0.186 0.124,0.126 0.187,0.277 0.187,0.456l0 5.237c0,0.178 -0.063,0.33 -0.187,0.454 -0.125,0.125 -0.277,0.188 -0.455,0.188l-2.138 0c-2.601,0 -4.561,-0.437 -5.879,-1.31 -1.319,-0.873 -1.978,-2.539 -1.978,-4.997l0 -15.608c0,-0.178 -0.089,-0.267 -0.267,-0.267l-1.764 0c-0.178,0 -0.329,-0.063 -0.454,-0.187 -0.125,-0.125 -0.187,-0.276 -0.187,-0.454l0 -4.009c0,-0.178 0.062,-0.33 0.187,-0.454 0.125,-0.125 0.276,-0.188 0.454,-0.188l1.764 0c0.178,0 0.267,-0.088 0.267,-0.267l0 -5.933c0,-0.178 0.063,-0.329 0.187,-0.454 0.125,-0.125 0.277,-0.187 0.455,-0.187l5.986 0c0.178,0 0.33,0.062 0.455,0.187 0.124,0.125 0.187,0.276 0.187,0.454l0 5.933c0,0.179 0.089,0.267 0.267,0.267l2.993 0c0.178,0 0.33,0.063 0.455,0.188 0.124,0.124 0.186,0.276 0.186,0.454l0 4.009zm13.599 3.914l0 -90.48 12.924 0 0 32.813c1.914,-1.74 3.482,-3.085 4.688,-4.015 1.224,-0.913 2.896,-1.792 5.032,-2.619 2.138,-0.828 4.413,-1.242 6.843,-1.242 2.758,0 4.998,1.018 6.704,3.034 1.724,2.016 2.585,4.498 2.585,7.427l0 55.082 -12.926 0 0 -48.481c0,-2.205 -0.275,-3.843 -0.844,-4.894 -0.551,-1.034 -1.759,-1.568 -3.602,-1.568 -2.619,0 -5.446,1.275 -8.48,3.791l0 51.152 -12.924 0zm83.154 -5.153c-2.999,4.032 -7.962,6.066 -14.908,6.066 -6.928,0 -11.89,-2.034 -14.889,-6.066 -3,-4.034 -4.499,-9.858 -4.499,-17.477l0 -19.388c0,-7.6 1.499,-13.425 4.499,-17.458 2.999,-4.05 7.961,-6.067 14.889,-6.067 6.946,0 11.909,2.017 14.908,6.067 2.999,4.033 4.481,9.858 4.481,17.458l0 19.388c0,7.619 -1.482,13.443 -4.481,17.477zm-17.303 -4.947c0.689,0.276 1.499,0.396 2.395,0.396 0.914,0 1.724,-0.12 2.413,-0.396 0.69,-0.275 1.259,-0.603 1.707,-0.982 0.465,-0.396 0.844,-0.965 1.137,-1.723 0.311,-0.759 0.534,-1.414 0.707,-1.982 0.172,-0.587 0.293,-1.414 0.361,-2.482 0.07,-1.086 0.104,-1.931 0.121,-2.551 0.018,-0.621 0.018,-1.551 0.018,-2.81l0 -19.388c0,-1.241 0,-2.171 -0.018,-2.792 -0.017,-0.62 -0.051,-1.482 -0.121,-2.55 -0.068,-1.086 -0.189,-1.896 -0.361,-2.482 -0.173,-0.569 -0.396,-1.223 -0.707,-1.982 -0.293,-0.758 -0.672,-1.327 -1.137,-1.723 -0.448,-0.38 -1.017,-0.707 -1.707,-0.983 -0.689,-0.275 -1.499,-0.413 -2.413,-0.413 -0.896,0 -1.706,0.138 -2.395,0.413 -0.69,0.276 -1.258,0.603 -1.706,0.983 -0.465,0.396 -0.845,0.965 -1.138,1.723 -0.31,0.759 -0.534,1.413 -0.706,1.982 -0.172,0.586 -0.293,1.396 -0.362,2.482 -0.069,1.068 -0.104,1.93 -0.12,2.55 -0.018,0.621 -0.035,1.551 -0.035,2.792l0 19.388c0,1.259 0.017,2.189 0.035,2.81 0.016,0.62 0.051,1.465 0.12,2.551 0.069,1.068 0.19,1.895 0.362,2.482 0.172,0.568 0.396,1.223 0.706,1.982 0.293,0.758 0.673,1.327 1.138,1.723 0.448,0.379 1.016,0.707 1.706,0.982zm49.359 11.013c-5.308,0 -9.582,-1.586 -12.805,-4.756 -3.205,-3.155 -5.394,-7.274 -6.583,-12.323l9.703 -3.223c2.308,6.463 5.549,9.685 9.685,9.685 2.051,0 3.654,-0.551 4.774,-1.688 1.12,-1.12 1.69,-2.706 1.69,-4.774 0,-2.982 -1.069,-5.481 -3.223,-7.463l-12.926 -9.703c-1.448,-0.965 -2.671,-1.878 -3.637,-2.739 -0.982,-0.862 -1.982,-1.914 -2.981,-3.155 -1.017,-1.258 -1.776,-2.653 -2.293,-4.205 -0.534,-1.534 -0.792,-3.223 -0.792,-5.05 0,-5.514 1.758,-9.737 5.274,-12.667 3.516,-2.93 8.22,-4.395 14.114,-4.395 2.792,0 5.326,0.448 7.584,1.344 2.257,0.897 4.136,2.138 5.669,3.758 1.534,1.62 2.792,3.412 3.793,5.377 0.999,1.965 1.774,4.171 2.343,6.583l-9.686 3.24c-0.482,-1.275 -0.947,-2.378 -1.413,-3.309 -0.482,-0.93 -1.103,-1.93 -1.896,-2.998 -0.793,-1.086 -1.723,-1.913 -2.808,-2.5 -1.069,-0.585 -2.275,-0.895 -3.586,-0.895 -2.051,0 -3.636,0.569 -4.774,1.705 -1.12,1.121 -1.688,2.706 -1.688,4.757 0,2.034 1.085,3.843 3.239,5.464l12.926 9.685c1.448,1.155 2.672,2.258 3.706,3.309 1.034,1.069 2.033,2.293 2.999,3.688 0.982,1.397 1.723,2.965 2.223,4.671 0.499,1.724 0.758,3.551 0.758,5.498 0,5.532 -1.758,9.755 -5.273,12.685 -3.516,2.929 -8.222,4.394 -14.116,4.394zm45.189 0c-5.085,0 -8.773,-1.309 -11.082,-3.895 -2.309,-2.586 -3.499,-6.514 -3.567,-11.754l0 -40.207 -6.463 0 0 -9.686 6.463 0 0 -22.628 12.925 0 0 22.628 9.703 0 0 9.686 -9.703 0 0 37.725c0,2.586 0.363,4.499 1.069,5.705 0.707,1.206 2.137,1.809 4.291,1.809 0.931,0 2.379,-0.154 4.343,-0.499l0 10.513c-3.24,0.396 -5.894,0.603 -7.979,0.603zm17.975 -75.246l0 -12.924 12.925 0 0 12.924 -12.925 0zm0 74.333l0 -64.629 12.925 0 0 64.629 -12.925 0zm25.3 0l0 -64.629 12.925 0 0 6.962c1.913,-1.74 3.481,-3.085 4.688,-4.015 1.224,-0.913 2.895,-1.792 5.032,-2.619 2.137,-0.828 4.412,-1.242 6.843,-1.242 2.757,0 4.997,1.018 6.704,3.034 1.723,2.016 2.585,4.498 2.585,7.427l0 55.082 -12.926 0 0 -48.481c0,-2.24 -0.328,-3.895 -0.965,-4.911 -0.637,-1.034 -1.93,-1.551 -3.878,-1.551 -1.121,0 -2.223,0.241 -3.309,0.689 -1.103,0.448 -1.913,0.879 -2.448,1.258 -0.55,0.396 -1.326,1 -2.326,1.844l0 51.152 -12.925 0zm59.216 -42.018c0,9.169 2.689,13.736 8.083,13.736 5.377,0 8.083,-4.567 8.083,-13.736 0,-1.844 -0.121,-3.55 -0.362,-5.118 -0.241,-1.568 -0.638,-3.103 -1.206,-4.584 -0.57,-1.5 -1.413,-2.689 -2.533,-3.551 -1.104,-0.844 -2.431,-1.276 -3.982,-1.276 -1.585,0 -2.93,0.432 -4.05,1.276 -1.103,0.862 -1.93,2.051 -2.499,3.551 -0.551,1.481 -0.947,3.016 -1.172,4.584 -0.241,1.568 -0.362,3.274 -0.362,5.118zm11.306 51.807c0.913,0 1.723,-0.018 2.447,-0.051 0.724,-0.035 1.569,-0.087 2.499,-0.191 0.948,-0.103 1.758,-0.258 2.447,-0.482 0.708,-0.224 1.362,-0.5 1.982,-0.827 0.621,-0.345 1.103,-0.793 1.431,-1.345 0.345,-0.551 0.517,-1.189 0.517,-1.896 0,-3.602 -3.464,-5.807 -10.358,-6.617l-10.65 -1.258c-1.311,0.947 -2.431,2.309 -3.361,4.084 -0.931,1.793 -1.396,3.654 -1.396,5.619 0,0.534 0.19,0.999 0.568,1.378 0.363,0.38 0.914,0.69 1.637,0.879 0.724,0.207 1.466,0.379 2.224,0.517 0.758,0.121 1.655,0.207 2.706,0.241 1.033,0.035 1.93,0.052 2.671,0.052 0.742,0 1.603,-0.017 2.603,-0.052 0.982,-0.034 1.671,-0.051 2.033,-0.051zm0 9.548c-1.603,0 -2.93,0 -3.929,-0.017 -1.017,-0.018 -2.396,-0.069 -4.137,-0.139 -1.757,-0.068 -3.223,-0.189 -4.394,-0.379 -1.189,-0.172 -2.534,-0.413 -4.05,-0.706 -1.517,-0.276 -2.758,-0.655 -3.757,-1.138 -1,-0.465 -1.948,-1.016 -2.845,-1.654 -0.913,-0.638 -1.602,-1.431 -2.05,-2.361 -0.448,-0.914 -0.689,-1.948 -0.689,-3.103 0,-3.36 0.913,-6.238 2.706,-8.634 1.809,-2.378 4.136,-4.292 6.996,-5.705 -1.758,-0.464 -3.274,-1.188 -4.549,-2.136 -1.275,-0.966 -1.913,-2.138 -1.913,-3.516 0,-0.569 0.069,-1.172 0.206,-1.81 0.121,-0.638 0.276,-1.224 0.448,-1.741 0.173,-0.534 0.431,-1.12 0.81,-1.791 0.363,-0.691 0.655,-1.208 0.88,-1.604 0.224,-0.379 0.585,-0.913 1.085,-1.603 0.499,-0.707 0.844,-1.171 1.035,-1.43 0.189,-0.241 0.551,-0.707 1.085,-1.361 0.535,-0.655 0.845,-1.035 0.913,-1.139 -4.308,-5.1 -6.462,-11.563 -6.462,-19.388 0,-4.463 0.706,-8.462 2.119,-11.96 1.413,-3.499 3.602,-6.308 6.584,-8.411 2.981,-2.103 6.549,-3.154 10.685,-3.154 2.378,0 4.481,0.345 6.257,1.018 1.791,0.671 3.239,1.516 4.377,2.55 1.12,1.017 2.223,2.378 3.291,4.068 2.569,-4.757 6.205,-7.274 10.91,-7.584 0.103,0 0.207,0 0.31,0 0.104,0 0.224,0 0.379,0 0.156,0 0.259,0 0.328,0l0 10.548c-0.172,0 -0.449,0 -0.81,0 -1.448,0 -2.551,0.017 -3.274,0.052 -0.742,0.034 -1.569,0.189 -2.482,0.43 -0.914,0.259 -1.638,0.655 -2.172,1.19 0.603,1.309 1.138,3.049 1.585,5.221 0.466,2.172 0.689,4.188 0.689,6.032 0,4.516 -0.689,8.514 -2.05,11.978 -1.361,3.465 -3.533,6.239 -6.514,8.325 -2.982,2.085 -6.584,3.136 -10.824,3.136l-6.514 -0.758c-0.069,0.172 -0.242,0.465 -0.5,0.879 -0.275,0.431 -0.482,0.776 -0.638,1.034 -0.156,0.276 -0.293,0.62 -0.431,1.034 -0.138,0.431 -0.207,0.827 -0.207,1.189 0,0.879 0.431,1.62 1.276,2.223 0.827,0.603 1.998,1.052 3.481,1.344 1.482,0.277 2.895,0.484 4.257,0.621 1.362,0.138 2.895,0.241 4.567,0.327 1.69,0.086 2.843,0.19 3.499,0.276 1.913,0.276 3.619,0.586 5.119,0.948 1.499,0.345 3.032,0.862 4.601,1.534 1.551,0.672 2.843,1.482 3.861,2.43 0.999,0.931 1.844,2.154 2.499,3.637 0.654,1.481 0.982,3.17 0.982,5.1 0,2.345 -0.414,4.447 -1.241,6.308 -0.827,1.844 -1.93,3.379 -3.309,4.585 -1.379,1.223 -3.05,2.223 -4.999,3.016 -1.947,0.792 -3.998,1.344 -6.152,1.689 -2.154,0.327 -4.464,0.5 -6.928,0.5zm-567.284 -75.886l0 -44.126c0,-11.625 3.083,-20.168 9.249,-25.626 6.167,-5.46 14.255,-8.189 24.263,-8.189 10.21,0 18.525,2.552 24.944,7.657 6.42,5.106 9.63,11.904 9.63,20.396 0,2.931 -0.632,4.953 -1.896,6.065 -1.263,1.112 -3.311,1.668 -6.141,1.668 -5.257,0 -7.936,-1.769 -8.037,-5.307 -1.112,-10.817 -7.127,-16.225 -18.045,-16.225 -11.929,0 -17.893,6.521 -17.893,19.561l0 44.126c0,13.042 5.964,19.562 17.893,19.562 5.762,0 10.21,-1.617 13.344,-4.877 3.134,-3.235 4.701,-8.164 4.701,-14.785l0 -12.486 -15.315 0c-1.618,0 -2.881,-0.631 -3.792,-1.87 -0.909,-1.263 -1.364,-2.78 -1.364,-4.574 0,-1.592 0.455,-3.058 1.364,-4.347 0.911,-1.289 2.174,-1.946 3.792,-1.946l26.081 0c1.617,0 2.906,0.531 3.867,1.592 0.96,1.062 1.441,2.351 1.441,3.867l0 19.864c0,11.627 -3.109,20.169 -9.326,25.628 -6.217,5.458 -14.482,8.188 -24.793,8.188 -10.312,0 -18.551,-2.73 -24.718,-8.188 -6.166,-5.459 -9.249,-14.001 -9.249,-25.628zm85.372 27.599l0 -100.384c0,-1.719 0.784,-3.008 2.35,-3.868 1.567,-0.858 3.463,-1.288 5.687,-1.288 2.224,0 4.119,0.43 5.687,1.288 1.566,0.86 2.349,2.149 2.349,3.868l0 100.384c0,1.617 -0.783,2.907 -2.349,3.867 -1.568,0.96 -3.463,1.44 -5.687,1.44 -2.123,0 -3.993,-0.48 -5.611,-1.44 -1.617,-0.96 -2.426,-2.25 -2.426,-3.867zm35.028 -27.599l0 -44.126c0,-11.625 3.084,-20.168 9.25,-25.626 6.167,-5.46 14.254,-8.189 24.263,-8.189 10.21,0 18.525,2.552 24.944,7.657 6.42,5.106 9.629,11.904 9.629,20.396 0,2.931 -0.632,4.953 -1.896,6.065 -1.263,1.112 -3.31,1.668 -6.141,1.668 -5.257,0 -7.935,-1.769 -8.037,-5.307 -1.112,-10.817 -7.126,-16.225 -18.044,-16.225 -11.929,0 -17.894,6.521 -17.894,19.561l0 44.126c0,13.042 5.965,19.562 17.894,19.562 5.762,0 10.21,-1.617 13.344,-4.877 3.134,-3.235 4.7,-8.164 4.7,-14.785l0 -12.486 -15.315 0c-1.617,0 -2.881,-0.631 -3.791,-1.87 -0.91,-1.263 -1.365,-2.78 -1.365,-4.574 0,-1.592 0.455,-3.058 1.365,-4.347 0.91,-1.289 2.174,-1.946 3.791,-1.946l26.082 0c1.617,0 2.906,0.531 3.867,1.592 0.96,1.062 1.44,2.351 1.44,3.867l0 19.864c0,11.627 -3.108,20.169 -9.326,25.628 -6.217,5.458 -14.481,8.188 -24.792,8.188 -10.312,0 -18.551,-2.73 -24.718,-8.188 -6.166,-5.459 -9.25,-14.001 -9.25,-25.628zm77.538 26.234c0,-0.581 0.051,-1.036 0.152,-1.339l30.1 -98.287c1.289,-3.64 4.877,-5.46 10.791,-5.46 6.016,0 9.654,1.694 10.943,5.08l30.025 98.262c0.202,0.632 0.303,1.113 0.303,1.44 0,1.896 -1.187,3.539 -3.538,4.903 -2.35,1.39 -4.853,2.073 -7.506,2.073 -3.185,0 -5.156,-1.112 -5.939,-3.311l-6.268 -21.709 -37.278 0 -6.191 21.659c-0.708,2.249 -2.579,3.361 -5.611,3.361 -2.426,0 -4.701,-0.657 -6.798,-1.972 -2.124,-1.313 -3.185,-2.88 -3.185,-4.7zm25.424 -31.086l30.101 0 -15.189 -52.037 -14.912 52.037zm-163.253 -102.689c-2.124,-1.085 -4.056,-2.564 -5.543,-3.986 2.621,-3.068 5.633,-4.401 5.598,-9.395 -0.041,-6.06 -3.191,-6.068 -7.083,-8.467 6.346,-6.559 9.083,-16.552 -1.272,-21.005l-3.093 -1.556c7.142,-12.59 4.964,-23.792 -12.717,-22.392 3.617,1.716 16.571,-0.006 14.45,12.883 -0.555,3.371 -2.958,6.828 -4.628,8.542 -1.028,1.056 -2.409,2.096 -3.631,2.873 -3.733,2.378 -2.611,0.316 -4.498,4.351 6.576,-1.162 12.698,-4.923 16.937,1.264 1.652,5.032 -0.868,9.485 -3.231,12.103 -2.497,2.768 -7.704,4.671 -9.827,8.199 7.329,-1.527 10.626,-5.354 15.996,0.531 1.7,9.335 -5.138,8.593 -8.582,13.949 5.442,2.922 -0.258,-0.416 4.947,1.4 2.255,0.787 2.437,1.476 3.642,3.3 -2.788,8.106 -12.021,11.759 -22.263,12.842 -12.557,1.326 -17.24,-3.674 -20.857,-14.269 -12.051,-3.572 -7.649,-6.671 -7.6,-18.315 -4.053,-3.004 -8.719,-3.683 -10.277,-8.967 -1.912,-6.485 1.618,-9.988 2.804,-15.474l-2.256 -3.026c-1.042,-1.417 -1.1,-1.318 -1.788,-2.807 -3.585,-7.763 2.179,-13.343 9.284,-16.602 8.325,-3.815 24.953,-5.856 30.092,-8.587 -4.453,-11.876 -19.406,-30.084 -8.71,-49.03 3.645,-6.454 11.056,-12.465 21.769,-9.247 4.63,1.392 5.015,4.263 6.04,9.965 0.887,4.943 1.04,10.309 1.027,15.389 -0.053,22.903 -5.913,25.143 2.656,33.486 4.292,4.179 7.246,10.863 8.489,16.893 3.148,15.279 -2.843,23.89 -2.894,28.514 -0.045,4.19 2.07,8.206 1.628,14.199 -0.504,6.838 -2.998,7.956 -4.609,12.442zm-24.118 20.399l6.046 -1.508 9.101 -2.53c5.322,-2.18 6.969,-6.609 10.768,-10.491 1.565,-2.603 2.66,-4.731 4.348,-6.982 3.701,-7.647 3.876,-12.429 2.571,-21.276 -1.099,-6.696 1.48,-10.823 2.426,-17.556 0.999,-7.113 0.004,-12.276 -0.98,-19.058 -3.306,-5.868 -3.703,-12.752 -12.151,-19.129 -0.159,-9.961 5.511,-50.121 -5.403,-56.026 -16.908,-9.148 -44.717,7.621 -31.946,43.396 1.892,5.3 5.491,11.195 6.595,15.349 -17.278,1.906 -47.178,11.586 -35.26,32.156 4.928,8.507 -10.461,14.776 9.512,28.928 -1.157,23.561 5.886,12.744 10.779,23.128 3.981,8.442 11.081,12.091 23.594,11.599zm-9.624 -125.709c2.039,-3.913 3.951,-8.495 6.473,-11.345 3.368,-3.806 7.373,-4.042 11.933,-6.417 0.053,-4.783 -0.259,-5.686 -5.568,-4.266 -9.536,2.549 -13.18,11.731 -12.838,22.028zm-17.752 43.04c6.824,3.708 19.168,2.304 26.103,-0.939 -2.631,-1.761 -5.539,0.2 -12.358,0.591 -3.981,0.23 -11.136,-0.879 -13.745,0.348zm1.774 24.701c5.972,2.897 12.449,3.71 19.489,2.618 7.547,-1.168 5.08,-1.66 5.894,-2.878 -3.27,-2.141 -1.448,0.637 -11.52,1.189 -5.077,0.277 -9.064,-0.526 -13.863,-0.929zm23.513 40.484c4.692,-0.167 10.345,-0.891 13.791,-3.141 -1.408,-1.227 2.836,-1.989 -3.307,-0.805l-7.42 2.257c-3.653,1.251 -1.83,0.796 -3.064,1.689zm-1.539 -17.037c8.589,-0.346 6.92,-1.304 7.766,-2.085 -1.597,-0.818 -3.022,-0.504 -5.704,0.806 -2.839,1.387 -0.727,0.336 -2.062,1.279zm388.631 28.167l-0.162 14.234c4.326,0.463 8.808,-1.068 12.94,-2.295l0.036 -14.26 -12.814 2.321zm-0.194 -46.564c-0.714,5.695 0.225,31.484 2.002,38.409 0.752,2.929 0.359,1.495 1.067,2.817l7.494 -1.133 3.61 -42.881 -14.173 2.788zm-125.227 53.941l-0.014 -12.742c4.842,-1.681 5.097,-1.518 9.997,-0.647 2.43,7.845 -1.415,13.897 -9.983,13.389zm-14.479 -22.62l-0.218 61.519 14.172 -2.786 0.563 -22.75c11.402,-3.555 27.705,-4.939 24.9,-30.029 -2.258,-20.201 -24.797,-7.946 -39.417,-5.954zm58.695 21.139l2.933 -16.858 0.097 0.112 0.508 -2.807c3.315,11.718 3.654,16.558 4.567,21.92l-4.642 0.602 -5.092 1.73c0.163,-4.989 -0.813,-2.328 1.629,-4.699zm-4.289 -33.076l-17.344 64.998 14.106 -2.702 3.104 -10.934 16.081 -3.48 2.535 9.004c4.869,-0.138 10.927,-1.277 14.514,-3.6l-16.78 -56.647 -16.216 3.361zm7.752 36.045l-4.012 0.537 0.549 -3.506c-2.442,2.371 -1.466,-0.29 -1.629,4.699l5.092 -1.73zm55.938 -9.588c2.26,10.38 -8.413,14.557 -12.636,7.332 -0.865,-1.481 -0.529,-1.282 -1.096,-2.35 -1.376,-2.597 -0.401,-1.079 -1.48,-2.473l-12.421 3.9c1.564,28.05 30.12,17.092 37.398,6.577 4.731,-6.837 7.296,-17.927 2.858,-25.413 -5.2,-8.776 -17.541,-4.439 -24.416,-8.538 -1.642,-4.102 0.314,-6.859 3.779,-7.778 6.056,-1.607 5.952,1.523 7.618,5.349l13.487 -3.301c-0.824,-23.124 -26.705,-15.123 -35.083,-4.608 -4.192,5.256 -6.189,17.698 -0.724,23.426 6.561,6.877 15.997,2.691 22.716,7.877zm0.632 -162.5l-0.69 104.419 23.857 -5.045 0.007 -103.647 -23.174 4.273zm-84.533 19.34l-0.548 24.592 24.038 -3.471 0.348 77.739 23.958 -4.94 0.155 -79.361 24.341 -4.755 -0.084 -25.337 -72.208 15.533zm-200.289 65.68c10.814,-1.056 19.373,-2.163 16.424,12.289 -1.628,7.983 -9.513,10.736 -17.828,11.621l1.404 -23.91zm-25.096 -15.104l-0.276 103.931 23.713 -4.2 0.41 -39.563c28.499,-3.821 44.897,-16.857 40.966,-50.192 -3.804,-32.279 -40.02,-14.961 -64.813,-9.976zm96.818 35.004l5.402 -29.599c3.204,9.015 8.194,25.023 7.545,34.762l-7.131 1.104 -7.265 0.891 1.449 -7.158zm-7.065 -55.735l-28.86 110.642 24.648 -4.796 3.187 -17.03c6.746,-3.493 18.899,-6.244 27.702,-5.727l3.342 14.155 24.173 -4.295 -27.977 -98.132 -26.215 5.183zm-44.145 95.023c-1.042,0.361 -2.104,0.706 -3.185,1.033l-0.126 12.23c0.106,-0.787 0.264,-1.579 0.47,-2.372l2.841 -10.891zm-3.36 17.968l-0.018 1.705c0.094,-0.036 0.187,-0.072 0.282,-0.109 -0.113,-0.526 -0.201,-1.059 -0.264,-1.596zm55.281 7.33c1.047,0.711 2.076,1.467 3.084,2.269 7.421,5.901 12.425,13.392 14.899,21.947l4.863 -15.88c0.082,-0.271 0.158,-0.5 0.253,-0.768 2.244,-6.336 6.354,-10.886 11.516,-13.817l-9.096 1.615c-7.496,1.331 -14.774,-1.983 -18.803,-7.952l-0.292 1.556c-0.841,4.498 -3.132,8.326 -6.424,11.03zm54.205 -10.291c7.987,0.486 15.457,3.21 20.653,8.753l0.047 -13.123c-4.558,-0.137 -8.921,-0.87 -12.996,-2.178 -2,2.969 -4.592,5.168 -7.704,6.548zm77.285 -96.96c-0.062,0.061 -0.125,0.122 -0.188,0.181 0.491,0.69 0.964,1.399 1.42,2.126l-0.011 -2.484 -1.221 0.177zm1.568 57.941c-0.794,1.657 -1.652,3.263 -2.572,4.805 0.654,0.187 1.304,0.396 1.951,0.631 0.411,-0.631 0.859,-1.231 1.34,-1.8 -0.355,-1.164 -0.595,-2.378 -0.719,-3.636zm-87.288 165.409c3.294,0.194 6.496,0.855 9.5,2.024 0.433,-0.169 0.87,-0.328 1.311,-0.475l-1.102 -3.817 -9.061 0 -0.648 2.268z"/>
 </g>
</svg>
