<?xml version="1.0" encoding="utf-8"?>
<!-- Generator: Adobe Illustrator 23.0.2, SVG Export Plug-In . SVG Version: 6.00 Build 0)  -->
<svg version="1.1" id="Layer_1" xmlns="http://www.w3.org/2000/svg" xmlns:xlink="http://www.w3.org/1999/xlink" x="0px" y="0px"
	 viewBox="0 0 512 512" style="enable-background:new 0 0 512 512;" xml:space="preserve">
	 <style xmlns="http://www.w3.org/2000/svg" type="text/css">


.install_setting {
	animation-name: installSetting;
    animation-duration: 8s;
    animation-iteration-count: infinite;
    transform-origin: 73.4% 74%;
    animation-timing-function: linear;
}

@keyframes installSetting {
	0% {transform: rotate(0deg);}
	100% {transform: rotate(360deg);}
}

.install_light_one {
	animation-name: Install-1;
    animation-duration: 3s;
    animation-iteration-count: infinite;
}

@keyframes Install-1 {
	0% {opacity: 1;}
	50% {opacity: 0.2;}
	100% {opacity: 1;}
}

.install_light_two {
	animation-name: Install-2;
    animation-duration: 3.1s;
    animation-iteration-count: infinite;
}

@keyframes Install-2 {
	0% {opacity: 1;}
	50% {opacity: 0.2;}
	100% {opacity: 1;}
}

.install_light_third {
	animation-name: Install-3;
    animation-duration: 3.2s;
    animation-iteration-count: infinite;
}

@keyframes Install-3 {
	0% {opacity: 1;}
	50% {opacity: 0.2;}
	100% {opacity: 1;}
}






	 </style>



<style type="text/css">
	.st0{fill:#E9DB00;}
	.st1{fill:#076D4D;}
</style>



<rect x="252" y="56" class="st0 install_light_one" width="76" height="32"/>
<rect x="252" y="147" class="st0 install_light_two" width="76" height="32"/>
<rect x="252" y="248" class="st0 install_light_third" width="76" height="32"/>


<path class="st1" d="M80,176h16v16H80V176z M80,160h16v-16H80V160z M176,192h16v-16h-16V192z M176,160h16v-16h-16V160z M144,160h16
	v-16h-16V160z M144,192h16v-16h-16V192z M112,160h16v-16h-16V160z M112,192h16v-16h-16V192z M48,160h16v-16H48V160z M80,288h16v-16
	H80V288z M80,256h16v-16H80V256z M48,256h16v-16H48V256z M48,288h16v-16H48V288z M112,288h16v-16h-16V288z M176,256h16v-16h-16V256z
	 M176,288h16v-16h-16V288z M144,256h16v-16h-16V256z M144,288h16v-16h-16V288z M112,256h16v-16h-16V256z M48,192h16v-16H48V192z
	 M144,96h16V80h-16V96z M112,64h16V48h-16V64z M144,64h16V48h-16V64z M176,64h16V48h-16V64z M112,96h16V80h-16V96z M176,96h16V80
	h-16V96z M48,96h16V80H48V96z M80,64h16V48H80V64z M80,96h16V80H80V96z M48,64h16V48H48V64z M448,264h16v-16h-16V264z M416,72h16V56
	h-16V72z M448,232h16v-16h-16V232z M448,200h16v-16h-16V200z M384,72h16V56h-16V72z M448,168h16v-16h-16V168z M448,56v16h16V56H448z
	 M448,104h16V88h-16V104z M448,136h16v-16h-16V136z M152,448h16v-16h-16V448z M88,448h16v-16H88V448z M88,384h16v-16H88V384z
	 M88,416h16v-16H88V416z M184,448h16v-16h-16V448z M88,352h16v-16H88V352z M120,448h16v-16h-16V448z M216,448h16v-16h-16V448z
	 M248,448h16v-16h-16V448z M336,56v32c0,4.4-3.6,8-8,8h-72c-4.4,0-8-3.6-8-8V56c0-4.4,3.6-8,8-8h72C332.4,48,336,51.6,336,56z
	 M320,64h-56v16h56V64z M368,40v64c0,6.2-2.4,11.7-6.2,16c3.8,4.3,6.2,9.8,6.2,16v64c0,6.2-2.4,11.7-6.2,16c3.8,4.3,6.2,9.8,6.2,16
	v64c0,13.2-10.8,24-24,24H40c-13.2,0-24-10.8-24-24v-64c0-6.2,2.4-11.7,6.2-16c-3.8-4.3-6.2-9.8-6.2-16v-64c0-6.2,2.4-11.7,6.2-16
	c-3.8-4.3-6.2-9.8-6.2-16V40c0-13.2,10.8-24,24-24h304C357.2,16,368,26.8,368,40z M352,232c0-4.4-3.6-8-8-8H40c-4.4,0-8,3.6-8,8v64
	c0,4.4,3.6,8,8,8h304c4.4,0,8-3.6,8-8V232z M352,136c0-4.4-3.6-8-8-8H40c-4.4,0-8,3.6-8,8v64c0,4.4,3.6,8,8,8h304c4.4,0,8-3.6,8-8
	V136z M352,40c0-4.4-3.6-8-8-8H40c-4.4,0-8,3.6-8,8v64c0,4.4,3.6,8,8,8h304c4.4,0,8-3.6,8-8V40z M336,248v32c0,4.4-3.6,8-8,8h-72
	c-4.4,0-8-3.6-8-8v-32c0-4.4,3.6-8,8-8h72C332.4,240,336,243.6,336,248z M320,256h-56v16h56V256z M336,152v32c0,4.4-3.6,8-8,8h-72
	c-4.4,0-8-3.6-8-8v-32c0-4.4,3.6-8,8-8h72C332.4,144,336,147.6,336,152z M320,160h-56v16h56V160z"/>


<g class="install_setting">
	<path class="st0" d="M448.5,326.1l18-18l-22.6-22.6l-18,18c-10-6.9-21.5-11.7-33.9-14V264h-32v25.5c-12.4,2.3-23.9,7.1-33.9,14
		l-18-18l-22.6,22.6l3.9,3.9l14.1,14.1c-6.9,10-11.7,21.5-14,33.9H264v32h25.5c2.3,12.4,7.1,23.9,14,33.9l-18,18l22.6,22.6l18-18
		c10,6.9,21.5,11.7,33.9,14V488h32v-25.5c12.4-2.3,23.9-7.1,33.9-14l18,18l22.6-22.6l-18-18c6.9-10,11.7-21.5,14-33.9H488v-32h-25.5
		C460.2,347.6,455.4,336.1,448.5,326.1z M376,432c-30.9,0-56-25.1-56-56s25.1-56,56-56s56,25.1,56,56S406.9,432,376,432z"/>
	<path class="st1" d="M376,312c-35.3,0-64,28.7-64,64s28.7,64,64,64s64-28.7,64-64S411.3,312,376,312z M376,424c-26.5,0-48-21.5-48-48
		s21.5-48,48-48s48,21.5,48,48C424,402.5,402.5,424,376,424z"/>
	<path class="st1" d="M488,351.8h-19.1c-2.2-8.7-5.7-17-10.2-24.7l13.5-13.5c3.1-3.1,3.1-8.2,0-11.3l-22.6-22.6
		c-3.1-3.1-8.2-3.1-11.3,0l-13.5,13.5c-7.7-4.6-16-8-24.7-10.2v-19.1c0-4.4-3.6-8-8-8h-32c-4.4,0-8,3.6-8,8v19.1
		c-8.7,2.2-17,5.6-24.7,10.2l-13.5-13.5c-3.1-3.1-8.2-3.1-11.3,0l-22.6,22.6c-3.1,3.1-3.1,8.2,0,11.3l13.5,13.5
		c-4.6,7.7-8,16-10.2,24.7H264c-4.4,0-8,3.6-8,8V392c0,4.4,3.6,8,8,8h19.1c2.2,8.7,5.7,17,10.2,24.7l-13.5,13.5
		c-3.1,3.1-3.1,8.2,0,11.3l22.6,22.6c3.1,3.1,8.2,3.1,11.3,0l13.5-13.5c7.7,4.6,16,8,24.7,10.2V488c0,4.4,3.6,8,8,8h32
		c4.4,0,8-3.6,8-8v-19.1c8.7-2.2,17-5.7,24.7-10.2l13.5,13.5c3.1,3.1,8.2,3.1,11.3,0l22.6-22.6c3.1-3.1,3.1-8.2,0-11.3l-13.5-13.5
		c4.6-7.7,8-16,10.2-24.7H488c4.4,0,8-3.6,8-8v-32.2C496,355.3,492.4,351.8,488,351.8z M480,384h-17.5c-3.9,0-7.2,2.8-7.9,6.5
		c-2.1,11.2-6.3,21.5-12.7,30.8c-2.2,3.2-1.8,7.5,0.9,10.2l12.4,12.4l-11.3,11.3l-12.4-12.4c-2.7-2.7-7-3.1-10.2-0.9
		c-9.3,6.4-19.6,10.7-30.8,12.7c-3.8,0.7-6.6,4-6.6,7.9V480h-16v-17.5c0-3.9-2.8-7.2-6.5-7.9c-11.1-2.1-21.5-6.3-30.8-12.7
		c-3.2-2.2-7.5-1.8-10.2,0.9l-12.4,12.4l-11.3-11.3l12.4-12.4c2.7-2.7,3.1-7,0.9-10.2c-6.4-9.3-10.7-19.6-12.7-30.8
		c-0.7-3.8-4-6.6-7.9-6.6H272v-16.3h17.5c3.9,0,7.2-2.8,7.9-6.6c2.1-11.2,6.3-21.5,12.7-30.8c2.2-3.2,1.8-7.5-0.9-10.2l-12.4-12.4
		l11.3-11.3l12.4,12.4c2.7,2.7,7,3.1,10.2,0.9c9.3-6.4,19.6-10.7,30.8-12.7c3.8-0.7,6.5-4,6.5-7.9v-17.5h16v17.5
		c0,3.9,2.8,7.2,6.6,7.9c11.2,2.1,21.5,6.3,30.8,12.7c3.2,2.2,7.5,1.8,10.2-0.9l12.4-12.4l11.3,11.3l-12.4,12.4
		c-2.7,2.7-3.1,7-0.9,10.2c6.4,9.3,10.7,19.6,12.7,30.8c0.7,3.8,4,6.5,7.9,6.5H480V384z"/>
</g>
</svg>
