<?xml version="1.0" encoding="utf-8"?>
<!-- Generator: Adobe Illustrator 16.0.0, SVG Export Plug-In . SVG Version: 6.00 Build 0)  -->
<!DOCTYPE svg PUBLIC "-//W3C//DTD SVG 1.1//EN" "http://www.w3.org/Graphics/SVG/1.1/DTD/svg11.dtd">
<svg version="1.1" id="Layer_1" xmlns="http://www.w3.org/2000/svg" xmlns:xlink="http://www.w3.org/1999/xlink" x="0px" y="0px"
	 width="800px" height="800px" viewBox="0 0 800 800" enable-background="new 0 0 800 800" xml:space="preserve">
<g>
	<path fill="#093071" d="M59.08,613.434v107.303c0,1.008,0.785,1.855,1.781,1.953c5.65,0.465,11.932,0.465,18.531,0
		c5.387-0.422,11.961-1.193,20.068-2.367c-0.291,1.641-0.438,3.41-0.438,5.322c0,1.631,0.166,3.611,0.482,5.754H35.645V613.461
		c1.219,0.1,2.787,0.297,4.727,0.559c2.838,0.488,5.744,0.502,7.477,0.039l5.746-0.029C55.777,613.732,57.586,613.525,59.08,613.434
		z M135.631,619.303c-3.406,0.475-5.678,0.482-7.316,0.025h-5.742c-2.029-0.275-3.578-0.457-4.746-0.568v112.639h22.229V618.734
		C138.779,618.832,137.32,619.02,135.631,619.303z M157.646,618.656c0.215,1.598,0.324,3.197,0.324,4.756
		c0,2.057-0.102,3.869-0.289,5.424h3.713c10.52-1.332,19.352-2.012,26.123-2.012c1.084,0,1.959,0.873,1.959,1.945v102.629h21.561
		V628.77c0-1.072,0.877-1.945,1.959-1.945c4.926,0,11.979,0.457,20.975,1.344c2.271,0.33,4.689,0.533,7.209,0.629
		c-0.258-1.557-0.258-3.338,0.01-5.334c-0.283-1.596-0.268-3.209,0.047-4.807H157.646z M258.934,618.656v112.742h60.906
		c-0.299-2.027-0.453-3.891-0.453-5.424c0-1.75,0.135-3.395,0.377-4.9c-4.139,0.633-8.764,1.137-13.715,1.479
		c-5.76,0.461-13.695,0.688-23.604,0.688c-1.072,0-1.949-0.881-1.949-1.957v-43.582c0-1.07,0.877-1.949,1.949-1.949h16.297
		c5.432,0.316,9.799,0.635,14.168,0.951l3.227,0.227c-0.094-0.436-0.201-0.924-0.316-1.432l-0.064-7.852
		c0-0.217,0.035-0.432,0.107-0.623c0.043-0.152,0.088-0.309,0.139-0.453c-5.74,0.709-10.994,1.012-17.26,1.012h-16.297
		c-1.072,0-1.949-0.877-1.949-1.951V628.77c0-1.072,0.877-1.945,1.949-1.945c12.025,0,24.65,0.781,37.551,2.33
		c-0.406-1.777-0.609-3.482-0.609-5.072c0-1.889,0.203-3.713,0.615-5.426H258.934z M411.543,696.76
		c-0.473-13.938-11.178-26.305-31.889-36.662c-15.35-7.902-22.799-15.592-22.799-23.457c0-12.701,7.432-19.674,21.516-20.182
		c9.572,0,16.941,5.129,21.934,15.273c0.52-1.785,1.244-4.064,2.195-6.934c1.148-3.037,2.131-5.586,2.951-7.693
		c-7.361-4.389-16.232-6.83-26.389-7.262c-25.553,1.355-38.436,13.121-39.322,35.975c0,15.395,9.758,27.76,29.004,36.711
		c16.096,7.309,24.246,15.688,24.246,24.879c-1.02,12.914-8.721,19.678-22.891,20.193c-14.033-0.498-22.801-7.096-26.137-19.635
		h-0.242c-0.9,6.816-2.328,13.541-4.252,20.012c8.535,3.227,17.395,5.09,26.35,5.518C394.113,733.496,409.729,720.1,411.543,696.76z
		 M448.785,680.531c-0.346,0.025-0.832,0.107-1.238,0.512c-0.355,0.361-0.57,0.844-0.57,1.342v49.014H424.6v-112.76h40.32
		c23.078,0,34.525,8.826,34.951,26.951c0.164,9.869-2.549,17.721-8.055,23.332c-7.586,7.729-20.863,11.648-39.457,11.648
		C451.217,680.57,450.066,680.551,448.785,680.531z M448.582,674.848c0.857,0.127,1.793,0.195,2.727,0.195
		c2.752,0,5.926-0.535,9.428-1.576c10.154-2.91,15.791-11.172,16.746-24.674c-0.955-15.23-6.943-23.705-17.932-25.178h-10.699
		c-1.031,0-1.875,0.842-1.875,1.869v47.525C446.977,673.934,447.654,674.721,448.582,674.848z M589.404,618.639v112.76h61.006
		c-0.293-2.047-0.449-3.936-0.449-5.51c0-1.783,0.127-3.463,0.398-4.992c-4.197,0.65-8.85,1.162-13.816,1.508
		c-5.807,0.449-13.502,0.666-23.549,0.666c-1.039,0-1.877-0.838-1.877-1.852v-43.527c0-1.025,0.838-1.863,1.877-1.863h18.064
		c6.801,0.412,12.965,0.797,18.633,1.184c-0.102-0.465-0.213-0.982-0.352-1.555l-0.064-7.805c0-0.213,0.027-0.416,0.096-0.594
		c0.066-0.201,0.129-0.395,0.193-0.574c-5.646,0.67-11.867,1.021-18.506,1.021h-18.07c-1.037,0-1.875-0.842-1.875-1.865v-36.816
		c0-1.029,0.838-1.861,1.875-1.861c12.043,0,24.689,0.791,37.596,2.348c-0.426-1.818-0.635-3.553-0.635-5.162
		c0-1.939,0.209-3.779,0.65-5.51H589.404z M703.23,731.398h-37.143v-112.76l47.777-0.016c32.213,2.199,48.738,19.545,50.49,52.939
		C762.182,709.096,741.609,729.227,703.23,731.398z M739.291,671.664c0-30.992-13.92-46.719-41.357-46.719h-8.287
		c-1.016,0-1.859,0.844-1.859,1.871v96.41c0,1.012,0.844,1.857,1.859,1.857h7.316c14.025,0,24.727-4.578,31.813-13.592
		C735.74,702.602,739.291,689.203,739.291,671.664z M512.363,618.639v112.76h60.998c-0.295-2.047-0.465-3.936-0.465-5.51
		c0-1.783,0.141-3.463,0.404-4.992c-4.207,0.65-8.846,1.162-13.803,1.508c-5.809,0.449-13.52,0.666-23.572,0.666
		c-1.016,0-1.861-0.838-1.861-1.852v-43.527c0-1.025,0.846-1.863,1.861-1.863h18.084c6.799,0.412,12.963,0.797,18.631,1.184
		c-0.102-0.465-0.219-0.982-0.355-1.555l-0.059-7.805c0-0.213,0.033-0.416,0.1-0.594c0.061-0.201,0.121-0.395,0.17-0.574
		c-5.625,0.67-11.84,1.021-18.486,1.021h-18.09c-1.01,0-1.861-0.842-1.861-1.865v-36.816c0-1.029,0.852-1.861,1.861-1.861
		c12.047,0,24.695,0.791,37.602,2.348c-0.408-1.818-0.629-3.553-0.629-5.162c0-1.939,0.225-3.779,0.643-5.51H512.363z"/>
	<g>
		<g>
			<path fill="#5E8CDA" d="M577.879,288.375L474.666,185.16c-0.43-0.436-1.012-0.672-1.613-0.672c-0.047,0-0.09,0-0.131,0
				c-0.652,0.037-1.258,0.354-1.664,0.867l-43.988,55.818c-0.727,0.912-0.643,2.207,0.178,3.029l47.398,47.391
				c1.697,1.709,2.633,3.969,2.633,6.396c-0.012,2.385-0.951,4.621-2.631,6.291l-13.691,13.699c-0.77,0.771-0.889,1.98-0.293,2.879
				c3.42,5.104,8.998,13.529,9.529,14.453c1.717,3.438,2.285,12.203-2.77,16.049l-107.826,82.822
				c-0.559,0.428-0.887,1.096-0.887,1.803c0,9.195-0.014,82.99-0.006,83.74c0,1.592,0,2.541,1.262,3.184
				c0.318,0.162,0.664,0.236,1.027,0.236c0.943,0,1.32-0.363,2.229-1.27l1.797-1.82c1.58-1.559,212.654-212.539,212.654-212.539
				C583.102,302.221,583.086,293.643,577.879,288.375z"/>
			<path fill="#093071" d="M440.729,67.521l-0.035-0.047c-0.027-0.025-0.049-0.059-0.064-0.08l-0.059-0.076
				c-0.41-0.492-1.012-0.787-1.654-0.814c-0.039,0-0.066,0-0.104,0c-0.605,0-1.191,0.23-1.619,0.668l-215.02,215.043
				c-2.559,2.523-3.963,5.93-3.963,9.568c0,3.633,1.414,7.02,3.979,9.539l103.178,103.191c0.428,0.438,1.012,0.67,1.613,0.67
				c0.045,0,0.09,0,0.135,0c0.65-0.037,1.256-0.35,1.654-0.873l44.023-55.818c0.719-0.906,0.635-2.193-0.18-3.027l-47.447-47.391
				c-1.682-1.668-2.592-3.902-2.6-6.291c-0.008-2.412,0.918-4.662,2.6-6.338l13.73-13.75c0.779-0.787,0.893-2.016,0.25-2.92
				l-9.361-13.465c-3.781-5.365-2.607-12.984,2.615-16.99l107.863-82.754c0.564-0.432,0.898-1.096,0.898-1.814l0.021-84.854
				C441.184,68.402,441.027,67.918,440.729,67.521z"/>
		</g>
		<path fill="#F5CD21" d="M459.723,333.936l-119.438-77.58l52.756,75.838c1.129,1.742,1.018,4.709-0.236,6.381L298.309,458.5
			c-1.666,2.174-3.063,4.529-1.879,6.959c0.631,1.27,2.178,2.291,3.674,2.396c1.865-0.01,3.297-0.82,5.26-2.318l151.859-116.58
			C461.869,345.408,461.744,336.818,459.723,333.936z"/>
		<path fill="#FDDD75" d="M503.57,124.232c-0.723-1.469-2.303-2.453-3.953-2.453c-1.479,0-2.859,0.637-4.982,2.258l-151.924,116.67
			c-4.814,3.682-5.904,10.705-2.426,15.648l119.438,77.58c-1.734-2.539-52.262-75.785-52.773-76.527
			c-1.145-1.619-1.047-4.773,0.203-6.357l94.494-119.965l0.063-0.084C503.246,129.035,504.781,126.725,503.57,124.232z"/>
	</g>
</g>
</svg>
