<svg xmlns="http://www.w3.org/2000/svg" xmlns:xlink="http://www.w3.org/1999/xlink" id="Layer_1" x="0px" y="0px" width="800px" height="800px" viewBox="0 0 800 800" xml:space="preserve">
<g>
	<path fill="#96336C" d="M255.923,343.311l45.347,45.349l98.725-98.723l45.353-45.345l47.042-47.049l91.541,18.522l18.524,91.542   l-35.707,35.707l45.346,45.352l47.756-47.756c6.226-6.237,10.402-18.493,9.26-27.235l-27.737-137.086   c-1.136-8.742-9.224-16.827-17.966-17.969L486.32,130.885c-8.746-1.142-20.998,3.032-27.233,9.262l-59.092,59.092l-45.346,45.352   L255.923,343.311z"></path>
	<path fill="#42CCE3" d="M659.85,459.096l-59.092-59.097l-45.349-45.347l-98.727-98.726l-45.349,45.347l17.949,17.948l5.369-4.121   c0.982-0.77,3.194-2.281,6.076-3.064c1.072-0.291,2.148-0.43,3.304-0.43c0.153,0,0.558,0.01,0.711,0.017   c0.823,0.057,1.354,0.133,1.896,0.239c1.969,0.383,3.373,1.168,4.048,1.545c0.837,0.483,1.573,0.986,2.313,1.602   c0.123,0.103,0.243,0.208,0.359,0.317c0.645,0.591,1.554,1.496,2.374,2.802c0.146,0.217,0.415,0.666,0.415,0.666   c0.053,0.093,0.186,0.34,0.202,0.369c0.093,0.183,0.187,0.37,0.269,0.56c0.528,1.141,0.894,2.361,1.09,3.627   c0.047,0.287,0.09,0.609,0.109,0.878c0.119,1.166,0.043,2.532-0.236,3.9c-0.056,0.274-0.191,0.82-0.269,1.087   c-0.263,0.938-0.664,1.938-1.162,2.884c-0.076,0.143-0.259,0.478-0.342,0.616c-0.511,0.867-1.072,1.667-1.71,2.436l-3.918,4.971   l59.879,59.878l45.349,45.357l47.046,47.035l-18.524,91.541l-91.541,18.524l-35.707-35.706l-45.349,45.346l47.753,47.756   c6.235,6.232,18.487,10.405,27.236,9.267l137.083-27.737c8.742-1.137,16.83-9.23,17.973-17.974l27.737-137.083   C670.252,477.582,666.082,465.324,659.85,459.096z"></path>
	<path fill="#81C99D" d="M544.073,456.685l-45.349-45.343l-98.729,98.721l-45.349,45.348l-47.039,47.046l-91.538-18.524   l-18.527-91.541l35.71-35.706l-45.351-45.349l-47.754,47.752c-6.235,6.236-10.401,18.488-9.262,27.234l27.738,137.085   c1.139,8.743,9.222,16.831,17.966,17.966l137.084,27.738c8.742,1.143,20.993-3.027,27.228-9.26l0.003-0.004l59.09-59.088   l45.353-45.35L544.073,456.685z"></path>
	<path fill="#E89D33" d="M359.27,487.938c-1.083,0.289-2.155,0.429-3.307,0.429c-0.154,0-0.55-0.01-0.704-0.018   c-0.73-0.049-1.182-0.112-1.635-0.188c-2.208-0.435-3.578-1.192-4.237-1.558c-0.075-0.043-0.235-0.133-0.309-0.176   c-0.746-0.438-1.469-0.953-2.151-1.533c-0.125-0.107-0.248-0.217-0.365-0.326c-0.614-0.574-1.481-1.451-2.268-2.693   c-0.021-0.033-0.068-0.1-0.068-0.1c-0.169-0.255-0.329-0.518-0.477-0.786c-0.033-0.063-0.329-0.651-0.432-0.894   c-0.511-1.155-0.848-2.32-1.029-3.522c-0.045-0.278-0.083-0.577-0.104-0.841c-0.116-1.151-0.043-2.52,0.237-3.891   c0.048-0.232,0.171-0.74,0.234-0.97c0.309-1.093,0.726-2.122,1.249-3.088c0.046-0.087,0.201-0.372,0.249-0.458   c0.543-0.926,1.114-1.743,1.762-2.52l3.89-4.935l-59.869-59.875l-45.347-45.347l-47.045-47.042l18.525-91.536l91.54-18.525   l35.703,35.707l45.347-45.349l-47.748-47.749c-6.239-6.237-18.493-10.408-27.233-9.266l-137.084,27.736   c-8.747,1.141-16.831,9.226-17.973,17.968l-27.731,137.086c-1.142,8.739,3.023,20.993,9.257,27.227l0.001,0.005l59.09,59.086   l45.351,45.353l98.723,98.726l45.344-45.349l-17.957-17.96l-5.347,4.104C364.367,485.641,362.155,487.152,359.27,487.938z"></path>
	<path fill="#FFD100" d="M447.635,324.953c-0.05-0.354-0.149-0.706-0.322-1.051c-0.006-0.013-0.006-0.025-0.013-0.037   c-0.044-0.083-0.097-0.134-0.144-0.209c-0.176-0.317-0.432-0.576-0.697-0.82c-0.242-0.203-0.48-0.372-0.684-0.49   c-0.349-0.194-0.697-0.398-1.089-0.475c-0.136-0.027-0.269-0.05-0.405-0.06c-0.292-0.013-0.591-0.011-0.873,0.065   c-0.977,0.266-1.936,0.837-2.547,1.315l-67.216,51.574c-3.181,2.42-1.849,7.64-1.305,9.177l23.172,33.489   c0.1,0.206,0.133,0.754,0.01,0.92l-41.7,52.898c-0.344,0.402-0.614,0.797-0.842,1.186c-0.036,0.063-0.071,0.13-0.106,0.199   c-0.176,0.326-0.302,0.651-0.392,0.971c-0.025,0.089-0.048,0.182-0.068,0.275c-0.07,0.342-0.1,0.68-0.066,1.012   c0.003,0.041,0.015,0.084,0.02,0.127c0.05,0.352,0.151,0.703,0.32,1.049c0.007,0.014,0.008,0.027,0.015,0.037   c0.043,0.082,0.1,0.136,0.146,0.212c0.174,0.312,0.421,0.562,0.681,0.804c0.254,0.216,0.503,0.389,0.712,0.512   c0.344,0.189,0.686,0.391,1.073,0.468c0.136,0.022,0.271,0.05,0.408,0.06c0.291,0.014,0.588,0.01,0.872-0.066   c0.978-0.266,1.936-0.836,2.547-1.314l67.216-51.574c3.181-2.421,1.85-7.641,1.305-9.178l-23.173-33.489   c-0.1-0.206-0.133-0.754-0.01-0.92l41.7-52.899c0.342-0.403,0.614-0.799,0.843-1.187c0.033-0.063,0.07-0.129,0.107-0.196   c0.172-0.327,0.299-0.651,0.388-0.97c0.026-0.091,0.05-0.183,0.069-0.277c0.07-0.342,0.1-0.679,0.066-1.013   C447.651,325.038,447.642,324.994,447.635,324.953z"></path>
</g>
</svg>