<?xml version="1.0" encoding="utf-8"?>
<!-- Generator: Adobe Illustrator 23.0.2, SVG Export Plug-In . SVG Version: 6.00 Build 0)  -->
<svg version="1.1" id="Layer_1" xmlns="http://www.w3.org/2000/svg" xmlns:xlink="http://www.w3.org/1999/xlink" x="0px" y="0px"
	 viewBox="0 0 409.6 409.6" style="enable-background:new 0 0 409.6 409.6;" xml:space="preserve">
	 <style xmlns="http://www.w3.org/2000/svg" type="text/css">


.protect_circle {
	animation-name: protectCircle;
    animation-duration: 8s;
    animation-iteration-count: infinite;
    transform-origin: 50% 50%;
    animation-timing-function: linear;
}

@keyframes protectCircle {
	0% {transform: rotate(0deg);}
	100% {transform: rotate(360deg);}
}







	 </style>



<style type="text/css">
	.st0{fill:#E9DB00;}
	.st1{fill:#076D4D;}
</style>



<path class="st0" d="M296.8,165.8H116.1c-10.6,0-19.3-8.6-19.3-19.3v-27.6c0-10.6,8.6-19.3,19.3-19.3h180.8
	c10.6,0,19.3,8.6,19.3,19.3v27.6C316.1,157.2,307.4,165.8,296.8,165.8z"/>
<path class="st0" d="M296.8,237.9H116.1c-10.6,0-19.3-8.6-19.3-19.3V191c0-10.6,8.6-19.3,19.3-19.3h180.8c10.6,0,19.3,8.6,19.3,19.3
	v27.6C316.1,229.3,307.4,237.9,296.8,237.9z"/>
<path class="st0" d="M296.8,310.3H116.1c-10.6,0-19.3-8.6-19.3-19.3v-27.6c0-10.6,8.6-19.3,19.3-19.3h180.8
	c10.6,0,19.3,8.6,19.3,19.3v27.6C316.1,301.7,307.4,310.3,296.8,310.3z"/>
<g>
	<path class="st1" d="M324.8,144.8v-24c0-16.6-13.4-30-30-30h-180c-16.6,0-30,13.4-30,30v24c0,9.5,4.6,18.4,12.2,24
		c-7.6,5.6-12.2,14.5-12.2,24v24c0,9.5,4.6,18.4,12.2,24c-7.6,5.6-12.2,14.5-12.2,24v24c0,16.6,13.4,30,30,30h180
		c16.6,0,30-13.4,30-30v-24c0-9.5-4.5-18.4-12.2-24c7.6-5.6,12.2-14.5,12.2-24v-24c0-9.5-4.5-18.4-12.2-24
		C320.3,163.2,324.8,154.3,324.8,144.8L324.8,144.8z M312.8,264.8v24c0,9.9-8.1,18-18,18h-180c-9.9,0-18-8.1-18-18v-24
		c0-9.9,8.1-18,18-18h180C304.7,246.8,312.8,254.9,312.8,264.8L312.8,264.8z M312.8,192.8v24c0,9.9-8.1,18-18,18h-180
		c-9.9,0-18-8.1-18-18v-24c0-9.9,8.1-18,18-18h180C304.7,174.8,312.8,182.9,312.8,192.8L312.8,192.8z M312.8,144.8
		c0,9.9-8.1,18-18,18h-180c-9.9,0-18-8.1-18-18v-24c0-9.9,8.1-18,18-18h180c9.9,0,18,8.1,18,18L312.8,144.8L312.8,144.8z"/>
	<path class="st1" d="M276.8,126.8h-12c-3.3,0-6,2.7-6,6s2.7,6,6,6h12c3.3,0,6-2.7,6-6C282.8,129.5,280.1,126.8,276.8,126.8
		L276.8,126.8z"/>
	<path class="st1" d="M240.8,126.8h-12c-3.3,0-6,2.7-6,6s2.7,6,6,6h12c3.3,0,6-2.7,6-6C246.8,129.5,244.1,126.8,240.8,126.8
		L240.8,126.8z"/>
	<path class="st1" d="M138.8,114.8c-9.9,0-18,8.1-18,18s8.1,18,18,18s18-8.1,18-18S148.7,114.8,138.8,114.8L138.8,114.8z
		 M138.8,138.8c-3.3,0-6-2.7-6-6s2.7-6,6-6c3.3,0,6,2.7,6,6C144.8,136.1,142.1,138.8,138.8,138.8L138.8,138.8z"/>
	<path class="st1" d="M276.8,198.8h-12c-3.3,0-6,2.7-6,6s2.7,6,6,6h12c3.3,0,6-2.7,6-6S280.1,198.8,276.8,198.8L276.8,198.8z"/>
	<path class="st1" d="M240.8,198.8h-12c-3.3,0-6,2.7-6,6s2.7,6,6,6h12c3.3,0,6-2.7,6-6C246.8,201.5,244.1,198.8,240.8,198.8
		L240.8,198.8z"/>
	<path class="st1" d="M138.8,186.8c-9.9,0-18,8.1-18,18s8.1,18,18,18s18-8.1,18-18S148.7,186.8,138.8,186.8L138.8,186.8z
		 M138.8,210.8c-3.3,0-6-2.7-6-6c0-3.3,2.7-6,6-6c3.3,0,6,2.7,6,6C144.8,208.1,142.1,210.8,138.8,210.8L138.8,210.8z"/>
	<path class="st1" d="M276.8,270.8h-12c-3.3,0-6,2.7-6,6s2.7,6,6,6h12c3.3,0,6-2.7,6-6C282.8,273.5,280.1,270.8,276.8,270.8
		L276.8,270.8z"/>
	<path class="st1" d="M240.8,270.8h-12c-3.3,0-6,2.7-6,6s2.7,6,6,6h12c3.3,0,6-2.7,6-6C246.8,273.5,244.1,270.8,240.8,270.8
		L240.8,270.8z"/>
	<path class="st1" d="M138.8,258.8c-9.9,0-18,8.1-18,18s8.1,18,18,18s18-8.1,18-18S148.7,258.8,138.8,258.8L138.8,258.8z
		 M138.8,282.8c-3.3,0-6-2.7-6-6c0-3.3,2.7-6,6-6c3.3,0,6,2.7,6,6C144.8,280.1,142.1,282.8,138.8,282.8L138.8,282.8z"/>
	<path class="st1 protect_circle" d="M384.8,204.8c0-0.6-0.1-1.2-0.4-1.8c0.2-0.6,0.3-1.2,0.3-1.8c-0.1-6.2-0.6-12.4-1.3-18.6
		c-0.4-3.3-3.4-5.5-6.7-5.1c-3.3,0.4-5.6,3.3-5.2,6.6c0.7,5.8,1.1,11.5,1.2,17.3c0,0.6,0.2,1.1,0.4,1.7c-0.2,0.5-0.3,1.1-0.3,1.7
		c-0.1,62.6-34.8,119.9-90.3,148.9l5.9-14.6c1.2-3.1-0.3-6.6-3.3-7.8s-6.6,0.3-7.8,3.3L266.6,361c-19.7,7.8-40.7,11.8-61.8,11.8
		c-5.8,0-11.6-0.3-17.3-0.9c-3.2-0.2-6.1,2.2-6.4,5.4c-0.3,3.2,2,6.1,5.2,6.5c6.2,0.6,12.4,0.9,18.6,0.9c22.2,0,44.3-4.1,65-12.2
		l29.8,6.1c0.4,0.1,0.8,0.1,1.2,0.1c3.1,0,5.7-2.3,6-5.4s-1.8-5.9-4.8-6.5l-13.6-2.8C347.6,333.1,384.7,271.7,384.8,204.8
		L384.8,204.8z"/>
	<path class="st1 protect_circle" d="M361.8,144.9c2.1,5.4,3.8,10.9,5.3,16.5c0.9,3.2,4.1,5.1,7.3,4.3s5.1-4.1,4.3-7.3c-1.6-6-3.5-11.9-5.7-17.7
		c-1.2-3-4.6-4.5-7.7-3.3C362.3,138.5,360.7,141.8,361.8,144.9L361.8,144.9z"/>
	<path class="st1 protect_circle" d="M352.1,123.9c1.6,2.8,5.2,3.8,8.1,2.3c2.9-1.6,3.9-5.2,2.4-8.1c-3-5.4-6.3-10.7-9.8-15.8
		c-1.2-1.8-3.3-2.8-5.4-2.6c-2.2,0.2-4.1,1.5-5,3.5c-0.9,2-0.7,4.3,0.6,6C346.2,113.9,349.3,118.9,352.1,123.9L352.1,123.9z"/>
	<path class="st1 protect_circle" d="M282.8,56c5.1,2.7,10.1,5.7,14.9,8.9c2.8,1.8,6.5,1.1,8.3-1.7s1.1-6.5-1.7-8.3c-5.2-3.4-10.5-6.6-16-9.5
		c-1.9-1-4.2-0.9-6,0.3c-1.8,1.2-2.9,3.2-2.8,5.3C279.7,53,280.9,55,282.8,56L282.8,56z"/>
	<path class="st1 protect_circle" d="M244.9,41.6c5.6,1.4,11.2,3.1,16.6,5c2,0.8,4.3,0.4,6-1c1.7-1.4,2.4-3.6,2-5.7c-0.4-2.1-1.9-3.9-4-4.6
		c-5.8-2.1-11.8-3.9-17.8-5.4c-2.1-0.7-4.5-0.1-6,1.5c-1.6,1.6-2.2,3.9-1.5,6C240.9,39.6,242.8,41.2,244.9,41.6L244.9,41.6z"/>
	<path class="st1 protect_circle" d="M316.1,79c4.3,3.8,8.5,7.9,12.4,12.2c1.1,1.2,2.7,1.9,4.4,1.9c2.4,0,4.5-1.4,5.5-3.6c1-2.2,0.5-4.7-1-6.5
		c-4.2-4.6-8.6-8.9-13.3-13c-2.5-2.2-6.3-2-8.5,0.5C313.4,73,313.6,76.8,316.1,79L316.1,79z"/>
	<path class="st1 protect_circle" d="M57.5,285.7c-1.6-2.8-5.2-3.8-8.1-2.3c-2.9,1.6-3.9,5.2-2.4,8.1c3,5.4,6.3,10.7,9.8,15.8
		c1.2,1.8,3.3,2.8,5.4,2.6s4.1-1.5,5-3.5c0.9-2,0.7-4.3-0.6-6C63.4,295.7,60.3,290.7,57.5,285.7L57.5,285.7z"/>
	<path class="st1 protect_circle" d="M32.8,232.1c3.3-0.4,5.6-3.4,5.2-6.7c-0.7-5.7-1.1-11.5-1.2-17.3c0-0.6-0.2-1.1-0.4-1.7
		c0.2-0.5,0.3-1.1,0.3-1.6c0.1-62.6,34.9-119.9,90.3-148.9l-5.9,14.6c-1.2,3.1,0.3,6.6,3.3,7.8c3.1,1.2,6.6-0.3,7.8-3.3L143,48.6
		c19.7-7.8,40.7-11.8,61.8-11.8c5.8,0,11.6,0.3,17.3,0.9c0.2,0,0.4,0,0.6,0c3.2,0,5.9-2.5,6-5.7c0.2-3.2-2.2-6-5.4-6.3
		c-6.2-0.6-12.4-0.9-18.6-0.9c-22.2,0-44.2,4.1-65,12.2L110,30.9c-3.3-0.7-6.4,1.4-7.1,4.7s1.4,6.4,4.7,7.1l13.6,2.8
		C62,76.5,24.9,137.9,24.8,204.8c0,0.6,0.1,1.2,0.4,1.8c-0.2,0.6-0.3,1.2-0.3,1.7c0.1,6.2,0.6,12.4,1.3,18.6c0.4,3,2.9,5.3,6,5.3
		C32.3,232.2,32.6,232.2,32.8,232.1L32.8,232.1z"/>
	<path class="st1 protect_circle" d="M164.7,368c-5.6-1.4-11.2-3-16.6-5c-3.1-1.1-6.5,0.6-7.6,3.7c-1.1,3.1,0.5,6.5,3.5,7.6
		c5.8,2.1,11.8,3.9,17.8,5.4c0.5,0.1,0.9,0.2,1.4,0.2c3,0,5.6-2.3,6-5.3C169.5,371.5,167.6,368.7,164.7,368L164.7,368z"/>
	<path class="st1 protect_circle" d="M93.5,330.7c-4.3-3.8-8.5-7.9-12.4-12.1c-1.4-1.6-3.6-2.4-5.8-1.9s-3.8,2-4.5,4.1c-0.6,2.1-0.1,4.4,1.4,5.9
		c4.2,4.6,8.6,8.9,13.3,13c2.5,2.2,6.3,2,8.5-0.5C96.2,336.6,96,332.9,93.5,330.7L93.5,330.7z"/>
	<path class="st1 protect_circle" d="M47.1,270.3c1.1-1.6,1.4-3.7,0.7-5.5v0c-2.1-5.4-3.8-10.9-5.3-16.5c-0.9-3.2-4.1-5.1-7.3-4.3
		c-3.2,0.9-5.1,4.1-4.3,7.3c1.6,6,3.5,11.9,5.7,17.7c0.9,2.3,3.1,3.9,5.6,3.9C44.2,272.9,46,271.9,47.1,270.3L47.1,270.3z"/>
	<path class="st1 protect_circle" d="M126.8,353.7c-5.1-2.7-10.1-5.7-14.9-8.9c-1.8-1.2-4.1-1.3-6-0.4c-1.9,1-3.2,2.9-3.3,5s0.9,4.2,2.7,5.4
		c5.2,3.4,10.5,6.6,16,9.5c1.9,1,4.2,0.9,6-0.3c1.8-1.2,2.9-3.2,2.8-5.3C129.9,356.6,128.7,354.6,126.8,353.7L126.8,353.7z"/>
</g>
</svg>
