<?xml version="1.0" encoding="UTF-8"?>
<!DOCTYPE svg PUBLIC "-//W3C//DTD SVG 1.1//EN" "http://www.w3.org/Graphics/SVG/1.1/DTD/svg11.dtd">
<!-- Creator: CorelDRAW 2018 (64-Bit) -->
<svg xmlns="http://www.w3.org/2000/svg" xml:space="preserve" width="46.5667mm" height="46.5667mm" version="1.1" style="shape-rendering:geometricPrecision; text-rendering:geometricPrecision; image-rendering:optimizeQuality; fill-rule:evenodd; clip-rule:evenodd"
viewBox="0 0 239.65 239.65"
 xmlns:xlink="http://www.w3.org/1999/xlink">
 <defs>
  <style type="text/css">
   <![CDATA[
    .fil0 {fill:#663333;fill-rule:nonzero}
   ]]>
  </style>
 </defs>
 <g id="Layer_x0020_1">
  <metadata id="CorelCorpID_0Corel-Layer"/>
  <path class="fil0" d="M119.82 0c-66.18,0 -119.82,53.65 -119.82,119.82 0,66.18 53.65,119.82 119.82,119.82 66.18,0 119.82,-53.65 119.82,-119.82 0,-66.18 -53.65,-119.82 -119.82,-119.82zm87.62 71.92c0.43,3.18 0.67,6.59 0.67,10.27 0,10.13 -1.9,21.52 -7.6,35.76l-30.5 88.18c29.69,-17.31 49.65,-49.47 49.65,-86.31 0,-17.36 -4.44,-33.68 -12.23,-47.9zm-85.87 56.64l-29.96 87.05c8.95,2.63 18.41,4.07 28.21,4.07 11.63,0 22.78,-2.01 33.16,-5.66 -0.27,-0.43 -0.51,-0.88 -0.72,-1.38l-30.69 -84.09zm65.66 -13.77c0,-12.34 -4.43,-20.89 -8.23,-27.54 -5.06,-8.23 -9.81,-15.19 -9.81,-23.42 0,-9.18 6.96,-17.72 16.77,-17.72 0.44,0 0.86,0.05 1.29,0.08 -17.77,-16.28 -41.43,-26.22 -67.43,-26.22 -34.89,0 -65.58,17.9 -83.43,45.01 2.34,0.07 4.55,0.12 6.43,0.12 10.44,0 26.61,-1.27 26.61,-1.27 5.38,-0.31 6.02,7.59 0.64,8.23 0,0 -5.41,0.63 -11.43,0.95l36.36 108.16 21.86 -65.54 -15.56 -42.62c-5.38,-0.31 -10.47,-0.95 -10.47,-0.95 -5.38,-0.32 -4.75,-8.54 0.63,-8.23 0,0 16.49,1.27 26.3,1.27 10.44,0 26.62,-1.27 26.62,-1.27 5.38,-0.31 6.02,7.59 0.64,8.23 0,0 -5.42,0.63 -11.43,0.95l36.09 107.34 10.3 -32.64c4.58,-14.27 7.26,-24.37 7.26,-32.92zm-167.26 5.04c0,39.52 22.97,73.68 56.28,89.86l-47.63 -130.5c-5.54,12.42 -8.65,26.16 -8.65,40.64zm99.85 -112.63c15.21,0 29.96,2.98 43.84,8.85 6.67,2.82 13.11,6.32 19.13,10.38 5.97,4.03 11.58,8.66 16.67,13.76 5.1,5.1 9.73,10.71 13.76,16.67 4.07,6.02 7.56,12.46 10.38,19.13 5.87,13.88 8.85,28.63 8.85,43.84 0,15.21 -2.98,29.96 -8.85,43.84 -2.82,6.67 -6.32,13.11 -10.38,19.13 -4.03,5.97 -8.66,11.58 -13.76,16.67 -5.1,5.1 -10.71,9.73 -16.67,13.76 -6.02,4.07 -12.46,7.56 -19.13,10.38 -13.88,5.87 -28.63,8.85 -43.84,8.85 -15.21,0 -29.96,-2.98 -43.84,-8.85 -6.67,-2.82 -13.11,-6.32 -19.13,-10.38 -5.97,-4.03 -11.58,-8.66 -16.67,-13.76 -5.1,-5.1 -9.73,-10.71 -13.76,-16.67 -4.07,-6.02 -7.56,-12.46 -10.38,-19.13 -5.87,-13.88 -8.85,-28.63 -8.85,-43.84 0,-15.21 2.98,-29.96 8.85,-43.84 2.82,-6.67 6.32,-13.11 10.38,-19.13 4.03,-5.97 8.66,-11.58 13.76,-16.67 5.1,-5.1 10.71,-9.73 16.67,-13.76 6.02,-4.07 12.46,-7.56 19.13,-10.38 13.88,-5.87 28.63,-8.85 43.84,-8.85z"/>
 </g>
</svg>
