<?xml version="1.0" encoding="utf-8"?>
<!-- Generator: Adobe Illustrator 23.0.2, SVG Export Plug-In . SVG Version: 6.00 Build 0)  -->
<svg version="1.1" id="Layer_1" xmlns="http://www.w3.org/2000/svg" xmlns:xlink="http://www.w3.org/1999/xlink" x="0px" y="0px"
	 viewBox="0 0 512 512" style="enable-background:new 0 0 512 512;" xml:space="preserve">
	 <style xmlns="http://www.w3.org/2000/svg" type="text/css">


.location_icon_one {
	animation-name: locationIcon-1;
    animation-duration: 3s;
    animation-iteration-count: infinite;
    transform-origin: 50% 50%;
}

@keyframes locationIcon-1 {
	0% {transform: translate(0, 0);}
	50% {transform: translate(0, -40px);}
}

.location_icon_sec {
	animation-name: locationIcon-2;
    animation-duration: 3.3s;
    animation-iteration-count: infinite;
    transform-origin: 50% 50%;
}

@keyframes locationIcon-2 {
	0% {transform: translate(0, 0);}
	50% {transform: translate(0, -40px);}
}




	 </style>



<style type="text/css">
	.st0{fill:#E9DB00;}
	.st1{fill:#FCEADE;}
	.st2{fill:#076D4D;}
</style>



<g>
	<path class="st0" d="M304,80c0-39.8-21.5-56-48-56s-48,16.2-48,56s48,88,48,88S304,119.8,304,80z M240,72c0-8.8,7.2-16,16-16
		s16,7.2,16,16s-7.2,16-16,16S240,80.8,240,72z"/>
	<circle class="st1" cx="256" cy="72" r="16"/>


	<path class="st0 location_icon_sec" d="M432,136c0-39.8-21.5-56-48-56s-48,16.2-48,56s48,88,48,88S432,175.8,432,136z M368,128c0-8.8,7.2-16,16-16
		s16,7.2,16,16s-7.2,16-16,16S368,136.8,368,128z"/>
	<circle class="st1 location_icon_sec" cx="384" cy="128" r="16"/>


	<path class="st0 location_icon_one" d="M176,136c0-39.8-21.5-56-48-56s-48,16.2-48,56s48,88,48,88S176,175.8,176,136z M112,128c0-8.8,7.2-16,16-16
		s16,7.2,16,16s-7.2,16-16,16S112,136.8,112,128z"/>
	<circle class="st1 location_icon_one" cx="128" cy="128" r="16"/>
	<path class="st2" d="M280,72c0-13.2-10.8-24-24-24c-13.2,0-24,10.8-24,24s10.8,24,24,24C269.2,96,280,85.2,280,72z M248,72c0-4.4,3.6-8,8-8
		c4.4,0,8,3.6,8,8s-3.6,8-8,8C251.6,80,248,76.4,248,72z"/>

	<path class="st2 location_icon_sec" d="M408,128c0-13.2-10.8-24-24-24s-24,10.8-24,24c0,13.2,10.8,24,24,24S408,141.2,408,128z M376,128c0-4.4,3.6-8,8-8
		s8,3.6,8,8s-3.6,8-8,8S376,132.4,376,128z"/>

	<path class="st2 location_icon_one" d="M152,128c0-13.2-10.8-24-24-24s-24,10.8-24,24c0,13.2,10.8,24,24,24S152,141.2,152,128z M120,128c0-4.4,3.6-8,8-8
		s8,3.6,8,8s-3.6,8-8,8S120,132.4,120,128z"/>
	<rect x="416" y="448" class="st2" width="16" height="16"/>
	<rect x="416" y="480" class="st2" width="16" height="16"/>
	<rect x="448" y="480" class="st2" width="16" height="16"/>
	<rect x="384" y="480" class="st2" width="16" height="16"/>
	<rect x="80" y="448" class="st2" width="16" height="16"/>
	<rect x="80" y="480" class="st2" width="16" height="16"/>
	<rect x="112" y="480" class="st2" width="16" height="16"/>
	<rect x="48" y="480" class="st2" width="16" height="16"/>
	<path class="st2" d="M423.9,322.6c0-0.8-0.1-1.5-0.1-2.3c0-0.7-0.1-1.3-0.1-2c0-0.5-0.1-1-0.1-1.5c-2.2-33-14.1-63.3-32.7-88.4
		c0.1-0.1,0.1-0.1,0.2-0.2c-12.8-17.2-28.7-31.9-47-43.2c0.1,0.1,0.2,0.3,0.2,0.4c-21.1-13.1-45.2-21.9-71.2-24.5c0,0,0,0,0,0
		c-5.6-0.6-11.4-0.9-17.2-0.9c-5.8,0-11.5,0.3-17.2,0.9c0,0,0,0,0,0c-25.9,2.6-50.1,11.4-71.2,24.5c0.1-0.1,0.2-0.3,0.3-0.4
		c-18.3,11.3-34.3,26-47,43.2c0.1,0.1,0.1,0.1,0.2,0.2c-18.6,25.1-30.5,55.4-32.7,88.4c0,0.5-0.1,1-0.1,1.5c0,0.7-0.1,1.3-0.1,2
		c0,0.8-0.1,1.5-0.1,2.3c0,0.5,0,1,0,1.5c0,1.3,0,2.6,0,3.9c0,92.6,75.4,168,168,168c92.6,0,168-75.4,168-168c0-1.3,0-2.6,0-3.9
		C423.9,323.6,423.9,323.1,423.9,322.6z M407.6,320h-79.9c-1-23.2-5.9-45.1-12.7-64.7c18.6-7.5,35.6-18.6,50.2-32.8
		C389.9,248.1,405.6,282.2,407.6,320z M353.4,211.5c-12.9,12.4-27.9,22-44.3,28.7c-11.5-27.6-25.9-49.7-35.8-63.1
		C303.7,180.5,331.3,192.9,353.4,211.5z M200.3,320c1-21.2,5.6-41.3,12-59.4c14.1,4.1,28.8,6.3,43.7,6.3c14.9,0,29.6-2.2,43.7-6.3
		c6.4,18.2,11,38.3,12,59.4H200.3z M311.7,336c-1,22.7-6.2,44.1-13.3,63.3c-27.8-7.3-57-7.3-84.8,0c-7.1-19.2-12.3-40.7-13.3-63.3
		H311.7z M256,180.7c8.7,11.2,25.1,34.5,37.9,64.8c-12.2,3.4-24.9,5.4-37.9,5.4c-13,0-25.7-2-37.9-5.4
		C230.9,215.2,247.3,191.9,256,180.7z M238.6,177.1c-9.9,13.4-24.2,35.5-35.8,63.1c-16.3-6.7-31.3-16.3-44.3-28.7
		C180.8,192.9,208.3,180.5,238.6,177.1z M146.8,222.5c14.6,14.2,31.7,25.3,50.2,32.8c-6.9,19.6-11.8,41.5-12.7,64.7h-79.9
		C106.4,282.2,122.1,248.1,146.8,222.5z M104.4,336h79.9c1,24.6,6.4,47.7,13.9,68.2c-18.2,6.7-35.4,16.7-50.8,30
		C122.3,408.5,106.4,374.1,104.4,336z M159.2,445.1c13.7-11.5,28.9-20.2,44.9-26c11.3,26.1,25,47,34.5,59.9
		C208.6,475.5,181.3,463.4,159.2,445.1z M219.7,414.3c23.8-5.9,48.7-5.9,72.5,0c-12.6,28.4-28,50.3-36.3,61.1
		C247.7,464.6,232.3,442.7,219.7,414.3z M273.4,478.9c9.5-12.9,23.2-33.8,34.5-59.9c16.1,5.9,31.3,14.5,44.9,26
		C330.7,463.4,303.4,475.5,273.4,478.9z M364.6,434.2c-15.4-13.3-32.6-23.3-50.8-30c7.5-20.5,12.9-43.6,13.9-68.2h79.9
		C405.6,374.1,389.6,408.5,364.6,434.2z"/>
	<path class="st2" d="M256.1,181c0,0,17.3-20.3,17.3-20.3c14.9-17.7,38.7-50.8,38.7-80.7c0-40.1-20.9-64-56-64s-56,23.9-56,64
		c0,30,23.9,63.2,38.8,80.9C238.9,160.9,256.1,181,256.1,181z M256.1,156.2c-12.2-13.7-40-48-40-76.2c0-31,14.2-48,40-48
		s40,17,40,48C296.1,108.2,268.3,142.5,256.1,156.2z"/>
	<path class="st2 location_icon_sec" d="M384,237c0,0,17.3-20.3,17.3-20.3C416.2,199,440,165.9,440,136c0-40.1-20.9-64-56-64s-56,23.9-56,64
		c0,30,23.9,63.2,38.8,80.9C366.8,216.9,384,237,384,237z M384,212.2c-12.2-13.7-40-48-40-76.2c0-31,14.2-48,40-48s40,17,40,48
		C424,164.2,396.2,198.5,384,212.2z"/>


	<path class="st2 location_icon_one" d="M128,237c0,0,17.3-20.3,17.3-20.3C160.2,199,184,165.9,184,136c0-40.1-20.9-64-56-64s-56,23.9-56,64
		c0,30,23.9,63.2,38.8,80.9C110.8,216.9,128,237,128,237z M128,212.2c-12.2-13.7-40-48-40-76.2c0-31,14.2-48,40-48s40,17,40,48
		C168,164.2,140.2,198.5,128,212.2z"/>
</g>
</svg>
